<svg xmlns="http://www.w3.org/2000/svg" xmlns:xlink="http://www.w3.org/1999/xlink" width="108" height="108" viewBox="0 0 108 108">
  <defs>
    <filter id="Trazado_982538" x="0" y="0" width="108" height="108" filterUnits="userSpaceOnUse">
      <feOffset dy="3" input="SourceAlpha"/>
      <feGaussianBlur stdDeviation="3" result="blur"/>
      <feFlood flood-opacity="0.161"/>
      <feComposite operator="in" in2="blur"/>
      <feComposite in="SourceGraphic"/>
    </filter>
  </defs>
  <g id="Grupo_1151922" data-name="Grupo 1151922" transform="translate(-201 -1240)">
    <g id="Grupo_1151621" data-name="Grupo 1151621" transform="translate(0 -9050)">
      <g id="Grupo_1150893" data-name="Grupo 1150893" transform="translate(0 7321)">
        <g transform="matrix(1, 0, 0, 1, 201, 2969)" filter="url(#Trazado_982538)">
          <g id="Trazado_982538-2" data-name="Trazado 982538" transform="translate(9 6)" fill="#f3f3f3">
            <path d="M 45 88.5 C 39.12687683105469 88.5 33.43022537231445 87.35007476806641 28.06830024719238 85.08217620849609 C 22.88852500915527 82.89131164550781 18.23629951477051 79.75458526611328 14.2408504486084 75.75914764404297 C 10.24541282653809 71.76370239257812 7.108687400817871 67.11147308349609 4.917825222015381 61.93170166015625 C 2.649924993515015 56.56977462768555 1.5 50.87312316894531 1.5 45 C 1.5 39.12687683105469 2.649924993515015 33.43022537231445 4.917825222015381 28.06830024719238 C 7.108687400817871 22.88852500915527 10.24541282653809 18.23629951477051 14.2408504486084 14.2408504486084 C 18.23629951477051 10.24541282653809 22.88852500915527 7.108687400817871 28.06830024719238 4.917825222015381 C 33.43022537231445 2.649924993515015 39.12687683105469 1.5 45 1.5 C 50.87312316894531 1.5 56.56977462768555 2.649924993515015 61.93170166015625 4.917825222015381 C 67.11147308349609 7.108687400817871 71.76370239257812 10.24541282653809 75.75914764404297 14.2408504486084 C 79.75458526611328 18.23629951477051 82.89131164550781 22.88852500915527 85.08217620849609 28.06830024719238 C 87.35007476806641 33.43022537231445 88.5 39.12687683105469 88.5 45 C 88.5 50.87312316894531 87.35007476806641 56.56977462768555 85.08217620849609 61.93170166015625 C 82.89131164550781 67.11147308349609 79.75458526611328 71.76370239257812 75.75914764404297 75.75914764404297 C 71.76370239257812 79.75458526611328 67.11147308349609 82.89131164550781 61.93170166015625 85.08217620849609 C 56.56977462768555 87.35007476806641 50.87312316894531 88.5 45 88.5 Z" stroke="none"/>
            <path d="M 45 3 C 39.32871246337891 3 33.82865524291992 4.110054016113281 28.65262985229492 6.299339294433594 C 23.65165710449219 8.414573669433594 19.15968322753906 11.44334411621094 15.301513671875 15.301513671875 C 11.44334411621094 19.15968322753906 8.414573669433594 23.65165710449219 6.299339294433594 28.65262985229492 C 4.110054016113281 33.82865524291992 3 39.32871246337891 3 45 C 3 50.67128753662109 4.110054016113281 56.17134475708008 6.299339294433594 61.34737396240234 C 8.414573669433594 66.34834289550781 11.44334411621094 70.84031677246094 15.301513671875 74.698486328125 C 19.15968322753906 78.55665588378906 23.65165710449219 81.58542633056641 28.65262985229492 83.70066070556641 C 33.82865524291992 85.88994598388672 39.32871246337891 87 45 87 C 50.67128753662109 87 56.17134475708008 85.88994598388672 61.34737396240234 83.70066070556641 C 66.34834289550781 81.58542633056641 70.84031677246094 78.55665588378906 74.698486328125 74.698486328125 C 78.55665588378906 70.84031677246094 81.58542633056641 66.34834289550781 83.70066070556641 61.34737396240234 C 85.88994598388672 56.17134475708008 87 50.67128753662109 87 45 C 87 39.32871246337891 85.88994598388672 33.82865524291992 83.70066070556641 28.65262985229492 C 81.58542633056641 23.65165710449219 78.55665588378906 19.15968322753906 74.698486328125 15.301513671875 C 70.84031677246094 11.44334411621094 66.34834289550781 8.414573669433594 61.34737396240234 6.299339294433594 C 56.17134475708008 4.110054016113281 50.67128753662109 3 45 3 M 45 0 C 69.85281372070312 0 90 20.14718627929688 90 45 C 90 69.85281372070312 69.85281372070312 90 45 90 C 20.14718627929688 90 0 69.85281372070312 0 45 C 0 20.14718627929688 20.14718627929688 0 45 0 Z" stroke="none" fill="#00282e"/>
          </g>
        </g>
      </g>
    </g>
    <g id="_026-accountant" data-name="026-accountant" transform="translate(207 1263.004)">
      <g id="Grupo_1151920" data-name="Grupo 1151920" transform="translate(22.133 1.133)">
        <path id="Trazado_987079" data-name="Trazado 987079" d="M34.4,10A3.4,3.4,0,0,0,31,13.4V56.442H62.716V13.4a3.4,3.4,0,0,1,3.4-3.4Z" transform="translate(-31 -10)" fill="#fff"/>
        <path id="Trazado_987080" data-name="Trazado 987080" d="M317.8,22.46H311V13.4a3.4,3.4,0,0,1,6.8,0Z" transform="translate(-279.284 -10)" fill="#f5eeec"/>
        <path id="Trazado_987081" data-name="Trazado 987081" d="M91,50h18.124v5.664H91Z" transform="translate(-84.204 -45.469)" fill="#ff9eb1"/>
        <path id="Trazado_987082" data-name="Trazado 987082" d="M265.92,200.513H243.265A2.265,2.265,0,0,1,241,198.247V164.265A2.265,2.265,0,0,1,243.265,162H265.92a2.265,2.265,0,0,1,2.265,2.265v33.982A2.265,2.265,0,0,1,265.92,200.513Z" transform="translate(-217.213 -144.783)" fill="#9ea6bf"/>
        <path id="Trazado_987083" data-name="Trazado 987083" d="M281,202h18.124v6.8H281Z" transform="translate(-252.682 -180.252)" fill="#a0c8ff"/>
        <g id="Grupo_1151919" data-name="Grupo 1151919" transform="translate(28.318 33.076)">
          <path id="Trazado_987084" data-name="Trazado 987084" d="M361,302h4.531v4.531H361Z" transform="translate(-351.938 -302)" fill="#fff"/>
          <path id="Trazado_987085" data-name="Trazado 987085" d="M361,342h4.531v4.531H361Z" transform="translate(-351.938 -337.469)" fill="#fff"/>
          <path id="Trazado_987086" data-name="Trazado 987086" d="M321,302h4.531v4.531H321Z" transform="translate(-316.469 -302)" fill="#fff"/>
          <path id="Trazado_987087" data-name="Trazado 987087" d="M281,342h4.531v4.531H281Z" transform="translate(-281 -337.469)" fill="#fff"/>
          <path id="Trazado_987088" data-name="Trazado 987088" d="M281,302h4.531v4.531H281Z" transform="translate(-281 -302)" fill="#fff"/>
          <path id="Trazado_987089" data-name="Trazado 987089" d="M321,342h4.531v4.531H321Z" transform="translate(-316.469 -337.469)" fill="#fff"/>
          <path id="Trazado_987090" data-name="Trazado 987090" d="M361,382h4.531v4.531H361Z" transform="translate(-351.938 -372.938)" fill="#fff"/>
          <path id="Trazado_987091" data-name="Trazado 987091" d="M321,382h4.531v4.531H321Z" transform="translate(-316.469 -372.938)" fill="#fff"/>
        </g>
        <path id="Trazado_987092" data-name="Trazado 987092" d="M401,382h4.531v9.062H401Z" transform="translate(-359.089 -339.862)" fill="#b8ecbc"/>
        <path id="Trazado_987093" data-name="Trazado 987093" d="M401,342h4.531v4.531H401Z" transform="translate(-359.089 -304.393)" fill="#fff"/>
        <path id="Trazado_987094" data-name="Trazado 987094" d="M281,382h4.531v4.531H281Z" transform="translate(-252.682 -339.862)" fill="#fff"/>
        <path id="Trazado_987095" data-name="Trazado 987095" d="M401,302h4.531v4.531H401Z" transform="translate(-359.089 -268.924)" fill="#fff"/>
        <path id="Trazado_987096" data-name="Trazado 987096" d="M281,422h4.531v4.531H281Z" transform="translate(-252.682 -375.332)" fill="#fff"/>
        <path id="Trazado_987097" data-name="Trazado 987097" d="M361,422h4.531v4.531H361Z" transform="translate(-323.62 -375.332)" fill="#fff"/>
        <path id="Trazado_987098" data-name="Trazado 987098" d="M321,422h4.531v4.531H321Z" transform="translate(-288.151 -375.332)" fill="#fff"/>
      </g>
      <g id="Grupo_1151921" data-name="Grupo 1151921" transform="translate(21)">
        <path id="Trazado_987099" data-name="Trazado 987099" d="M100.256,47.929a1.133,1.133,0,0,0,1.133-1.133V41.133A1.133,1.133,0,0,0,100.256,40H82.133A1.133,1.133,0,0,0,81,41.133V46.8a1.133,1.133,0,0,0,1.133,1.133ZM83.265,42.265H99.124v3.4H83.265Z" transform="translate(-74.204 -35.469)"/>
        <path id="Trazado_987100" data-name="Trazado 987100" d="M61,131.133a1.133,1.133,0,0,0,1.133,1.133H76.858a1.133,1.133,0,0,0,0-2.265H62.133A1.133,1.133,0,0,0,61,131.133Z" transform="translate(-56.469 -115.275)"/>
        <path id="Trazado_987101" data-name="Trazado 987101" d="M62.133,172.265H76.858a1.133,1.133,0,0,0,0-2.265H62.133a1.133,1.133,0,0,0,0,2.265Z" transform="translate(-56.469 -150.744)"/>
        <ellipse id="Elipse_11771" data-name="Elipse 11771" cx="1" cy="1.5" rx="1" ry="1.5" transform="translate(0 14.996)"/>
        <path id="Trazado_987102" data-name="Trazado 987102" d="M290.256,192H272.133A1.133,1.133,0,0,0,271,193.133v6.8a1.133,1.133,0,0,0,1.133,1.133h18.124a1.133,1.133,0,0,0,1.133-1.133v-6.8A1.133,1.133,0,0,0,290.256,192Zm-1.133,6.8H273.265v-4.531h15.858Z" transform="translate(-242.682 -170.252)"/>
        <path id="Trazado_987103" data-name="Trazado 987103" d="M290.256,292H272.133A1.133,1.133,0,0,0,271,293.133v18.124a1.133,1.133,0,0,0,1.133,1.133h18.124a1.133,1.133,0,0,0,1.133-1.133V293.133A1.133,1.133,0,0,0,290.256,292Zm-14.725,18.124h-2.265v-2.265h2.265Zm0-4.531h-2.265v-2.265h2.265Zm0-4.531h-2.265V298.8h2.265Zm0-4.531h-2.265v-2.265h2.265Zm4.531,13.593H277.8v-2.265h2.265Zm0-4.531H277.8v-2.265h2.265Zm0-4.531H277.8V298.8h2.265Zm0-4.531H277.8v-2.265h2.265Zm4.531,13.593h-2.265v-2.265h2.265Zm0-4.531h-2.265v-2.265h2.265Zm0-4.531h-2.265V298.8h2.265Zm0-4.531h-2.265v-2.265h2.265Zm4.531,13.593h-2.265v-6.8h2.265Zm0-9.062h-2.265V298.8h2.265Zm0-4.531h-2.265v-2.265h2.265Z" transform="translate(-242.682 -258.924)"/>
        <path id="Trazado_987104" data-name="Trazado 987104" d="M70.84,17.217H54.982V14.725h5.664a1.133,1.133,0,0,0,1.133-1.133V4.531A4.536,4.536,0,0,0,57.247,0H25.531A4.536,4.536,0,0,0,21,4.531v6.8a1.133,1.133,0,1,0,2.265,0v-6.8a2.268,2.268,0,0,1,2.265-2.265H53.325a4.5,4.5,0,0,0-.608,2.265V17.217H48.186a3.4,3.4,0,0,0-3.4,3.4V46.442H23.265V21.522a1.133,1.133,0,1,0-2.265,0V47.575a1.133,1.133,0,0,0,1.133,1.133H44.787V54.6a3.4,3.4,0,0,0,3.4,3.4H70.84a3.4,3.4,0,0,0,3.4-3.4V20.616a3.4,3.4,0,0,0-3.4-3.4ZM54.982,4.531a2.265,2.265,0,0,1,4.531,0V12.46H54.982ZM71.973,54.6A1.134,1.134,0,0,1,70.84,55.73H48.186A1.134,1.134,0,0,1,47.053,54.6V20.616a1.134,1.134,0,0,1,1.133-1.133H70.84a1.134,1.134,0,0,1,1.133,1.133Z" transform="translate(-21)"/>
        <path id="Trazado_987105" data-name="Trazado 987105" d="M82.177,230.389a1.133,1.133,0,0,0,1.133-1.133V228.2a5.1,5.1,0,0,0,3.836-4.093,4.423,4.423,0,0,0-3.044-5.062c-.261-.092-.527-.188-.793-.288v-4.511a2.108,2.108,0,0,1,.911.479,1.133,1.133,0,0,0,1.7-1.493,4.364,4.364,0,0,0-2.615-1.3v-.8a1.133,1.133,0,0,0-2.265,0v.932c-.117.029-.236.06-.357.1a4.2,4.2,0,0,0-2.878,3.294,3.713,3.713,0,0,0,1.221,3.658,9.6,9.6,0,0,0,2.014,1.164v5.754a3.967,3.967,0,0,1-1.973-.785,1.133,1.133,0,1,0-1.24,1.9,6.113,6.113,0,0,0,3.213,1.16v.954A1.133,1.133,0,0,0,82.177,230.389Zm1.133-9.221.038.013a2.2,2.2,0,0,1,1.565,2.551,2.817,2.817,0,0,1-1.6,2.1Zm-2.881-3.838a1.5,1.5,0,0,1-.393-1.456,2.021,2.021,0,0,1,1.009-1.423v3.288A5.392,5.392,0,0,1,80.428,217.33Z" transform="translate(-70.939 -186.213)"/>
      </g>
    </g>
  </g>
</svg>
