<svg xmlns="http://www.w3.org/2000/svg" xmlns:xlink="http://www.w3.org/1999/xlink" width="108" height="108" viewBox="0 0 108 108">
  <defs>
    <filter id="Fondo" x="0" y="0" width="108" height="108" filterUnits="userSpaceOnUse">
      <feOffset dy="3" input="SourceAlpha"/>
      <feGaussianBlur stdDeviation="3" result="blur"/>
      <feFlood flood-opacity="0.161"/>
      <feComposite operator="in" in2="blur"/>
      <feComposite in="SourceGraphic"/>
    </filter>
    <clipPath id="clip-path">
      <rect id="Rectángulo_408548" data-name="Rectángulo 408548" width="52.35" height="61.252" fill="none"/>
    </clipPath>
  </defs>
  <g id="Icono" transform="translate(8.5 -689)">
    <g transform="matrix(1, 0, 0, 1, -8.5, 689)" filter="url(#Fondo)">
      <g id="Fondo-2" data-name="Fondo" transform="translate(9 6)" fill="#e6d567">
        <path d="M 45 88.5 C 39.12687683105469 88.5 33.43022537231445 87.35007476806641 28.06830024719238 85.08217620849609 C 22.88852500915527 82.89131164550781 18.23629951477051 79.75458526611328 14.2408504486084 75.75914764404297 C 10.24541282653809 71.76370239257812 7.108687400817871 67.11147308349609 4.917825222015381 61.93170166015625 C 2.649924993515015 56.56977462768555 1.5 50.87312316894531 1.5 45 C 1.5 39.12687683105469 2.649924993515015 33.43022537231445 4.917825222015381 28.06830024719238 C 7.108687400817871 22.88852500915527 10.24541282653809 18.23629951477051 14.2408504486084 14.2408504486084 C 18.23629951477051 10.24541282653809 22.88852500915527 7.108687400817871 28.06830024719238 4.917825222015381 C 33.43022537231445 2.649924993515015 39.12687683105469 1.5 45 1.5 C 50.87312316894531 1.5 56.56977462768555 2.649924993515015 61.93170166015625 4.917825222015381 C 67.11147308349609 7.108687400817871 71.76370239257812 10.24541282653809 75.75914764404297 14.2408504486084 C 79.75458526611328 18.23629951477051 82.89131164550781 22.88852500915527 85.08217620849609 28.06830024719238 C 87.35007476806641 33.43022537231445 88.5 39.12687683105469 88.5 45 C 88.5 50.87312316894531 87.35007476806641 56.56977462768555 85.08217620849609 61.93170166015625 C 82.89131164550781 67.11147308349609 79.75458526611328 71.76370239257812 75.75914764404297 75.75914764404297 C 71.76370239257812 79.75458526611328 67.11147308349609 82.89131164550781 61.93170166015625 85.08217620849609 C 56.56977462768555 87.35007476806641 50.87312316894531 88.5 45 88.5 Z" stroke="none"/>
        <path d="M 45 3 C 39.32871246337891 3 33.82865524291992 4.110054016113281 28.65262985229492 6.299339294433594 C 23.65165710449219 8.414573669433594 19.15968322753906 11.44334411621094 15.301513671875 15.301513671875 C 11.44334411621094 19.15968322753906 8.414573669433594 23.65165710449219 6.299339294433594 28.65262985229492 C 4.110054016113281 33.82865524291992 3 39.32871246337891 3 45 C 3 50.67128753662109 4.110054016113281 56.17134475708008 6.299339294433594 61.34737396240234 C 8.414573669433594 66.34834289550781 11.44334411621094 70.84031677246094 15.301513671875 74.698486328125 C 19.15968322753906 78.55665588378906 23.65165710449219 81.58542633056641 28.65262985229492 83.70066070556641 C 33.82865524291992 85.88994598388672 39.32871246337891 87 45 87 C 50.67128753662109 87 56.17134475708008 85.88994598388672 61.34737396240234 83.70066070556641 C 66.34834289550781 81.58542633056641 70.84031677246094 78.55665588378906 74.698486328125 74.698486328125 C 78.55665588378906 70.84031677246094 81.58542633056641 66.34834289550781 83.70066070556641 61.34737396240234 C 85.88994598388672 56.17134475708008 87 50.67128753662109 87 45 C 87 39.32871246337891 85.88994598388672 33.82865524291992 83.70066070556641 28.65262985229492 C 81.58542633056641 23.65165710449219 78.55665588378906 19.15968322753906 74.698486328125 15.301513671875 C 70.84031677246094 11.44334411621094 66.34834289550781 8.414573669433594 61.34737396240234 6.299339294433594 C 56.17134475708008 4.110054016113281 50.67128753662109 3 45 3 M 45 0 C 69.85281372070312 0 90 20.14718627929688 90 45 C 90 69.85281372070312 69.85281372070312 90 45 90 C 20.14718627929688 90 0 69.85281372070312 0 45 C 0 20.14718627929688 20.14718627929688 0 45 0 Z" stroke="none" fill="#bca724"/>
      </g>
    </g>
    <g id="Grupo_1151959" data-name="Grupo 1151959" transform="translate(18.836 710.037)">
      <g id="Grupo_1151959-2" data-name="Grupo 1151959" clip-path="url(#clip-path)">
        <path id="Trazado_987274" data-name="Trazado 987274" d="M131.058,18.171A10.094,10.094,0,1,1,120.965,8.078a10.094,10.094,0,0,1,10.093,10.093" transform="translate(-94.789 -6.906)" fill="#fced32"/>
        <path id="Trazado_987275" data-name="Trazado 987275" d="M147.524,43.275a10.044,10.044,0,0,0-1.86-5.835c-1.513,5.453-5.435,13.011-15.534,12.8a10.091,10.091,0,0,0,17.393-6.967" transform="translate(-111.256 -32.009)" fill="#f9c932"/>
        <path id="Trazado_987276" data-name="Trazado 987276" d="M180.487,182.513V176.3s2.161-6.518,10.384-4.946v5.455s-.845,8.044-10.384,5.7" transform="translate(-154.308 -146.294)" fill="#7be03e"/>
        <path id="Trazado_987277" data-name="Trazado 987277" d="M190.871,197.868V195.74c-1.738,2.344-5.6,6.317-10.384,3.578v4.25c9.539,2.344,10.384-5.7,10.384-5.7" transform="translate(-154.308 -167.348)" fill="#4d8c24"/>
        <path id="Trazado_987278" data-name="Trazado 987278" d="M119.25,172.979v-6.209s-2.161-6.518-10.384-4.946v5.455s.845,8.044,10.384,5.7" transform="translate(-93.075 -138.143)" fill="#7be03e"/>
        <path id="Trazado_987279" data-name="Trazado 987279" d="M108.866,188.333V186.2c1.738,2.344,5.6,6.317,10.384,3.578v4.25c-9.539,2.344-10.384-5.7-10.384-5.7" transform="translate(-93.075 -159.196)" fill="#4d8c24"/>
        <rect id="Rectángulo_408537" data-name="Rectángulo 408537" width="29.536" height="3.91" transform="translate(11.38 41.532)" fill="#f2f2f2"/>
        <path id="Trazado_987280" data-name="Trazado 987280" d="M95.631,313.5l.749,14.358h23.536l.357-14.917H96.545Z" transform="translate(-81.76 -267.553)" fill="#686868"/>
        <path id="Trazado_987281" data-name="Trazado 987281" d="M99.361,348.732l.208,3.982H123.1l.256-10.7c-2.654,3.2-9.3,8.322-24,6.72" transform="translate(-84.949 -292.404)" fill="#565656"/>
        <path id="Trazado_987282" data-name="Trazado 987282" d="M200.283,290.245v-3.91h-10.1a13.425,13.425,0,0,1-3.775,3.91Z" transform="translate(-159.366 -244.803)" fill="#ccc"/>
        <path id="Trazado_987283" data-name="Trazado 987283" d="M98.842,46.385H101.1v-5.8H86.546V37.162H89.63a7.312,7.312,0,0,0,7.3-7.3V24.122H91.968a7.287,7.287,0,0,0-5.423,2.417v-4.05a11.265,11.265,0,1,0-1.886,0v2.754a7.287,7.287,0,0,0-5.418-2.412H74.276v5.736a7.312,7.312,0,0,0,7.3,7.3h3.08V40.59H70.11v5.8h2.267l.677,12.981H69.51v1.886H101.7V59.367H98.262ZM86.55,31.426a5.425,5.425,0,0,1,5.419-5.419h3.08v3.851a5.425,5.425,0,0,1-5.418,5.418H86.55ZM76.223,11.265a9.38,9.38,0,1,1,9.38,9.38,9.39,9.39,0,0,1-9.38-9.38m5.357,22.72a5.425,5.425,0,0,1-5.419-5.419V24.716h3.08a5.425,5.425,0,0,1,5.418,5.419v3.851ZM72,44.5V42.475H99.21V44.5H72Zm2.946,14.867-.677-12.981H96.954l-.58,12.981Z" transform="translate(-59.428)" fill="#050505"/>
        <rect id="Rectángulo_408538" data-name="Rectángulo 408538" width="10.628" height="1.886" transform="translate(18.655 53.422)" fill="#050505"/>
        <rect id="Rectángulo_408539" data-name="Rectángulo 408539" width="2.695" height="1.886" transform="translate(31 53.422)" fill="#050505"/>
        <path id="Trazado_987284" data-name="Trazado 987284" d="M163.885,45.45V43.81h2.029V37.845h-4.058V35.81h2.173V36.7h1.886V33.925h-2.029v-1.64H162v1.64H159.97v5.806h4.058v2.194h-2.173V41.14H159.97v2.67H162v1.64Z" transform="translate(-136.767 -27.602)" fill="#050505"/>
        <rect id="Rectángulo_408540" data-name="Rectángulo 408540" width="1.886" height="2.944" transform="translate(6.621 15.938)" fill="#050505"/>
        <rect id="Rectángulo_408541" data-name="Rectángulo 408541" width="1.886" height="15.376" transform="translate(6.621 20.843)" fill="#050505"/>
        <rect id="Rectángulo_408542" data-name="Rectángulo 408542" width="1.886" height="3.053" transform="translate(0 25.742)" fill="#050505"/>
        <rect id="Rectángulo_408543" data-name="Rectángulo 408543" width="1.886" height="16.152" transform="translate(0 30.544)" fill="#050505"/>
        <rect id="Rectángulo_408544" data-name="Rectángulo 408544" width="1.886" height="2.944" transform="translate(43.844 15.938)" fill="#050505"/>
        <rect id="Rectángulo_408545" data-name="Rectángulo 408545" width="1.886" height="15.376" transform="translate(43.844 20.843)" fill="#050505"/>
        <rect id="Rectángulo_408546" data-name="Rectángulo 408546" width="1.886" height="3.053" transform="translate(50.465 25.742)" fill="#050505"/>
        <rect id="Rectángulo_408547" data-name="Rectángulo 408547" width="1.886" height="16.152" transform="translate(50.465 30.544)" fill="#050505"/>
      </g>
    </g>
  </g>
</svg>
