<svg xmlns="http://www.w3.org/2000/svg" xmlns:xlink="http://www.w3.org/1999/xlink" width="108" height="108" viewBox="0 0 108 108">
  <defs>
    <filter id="Trazado_982538" x="0" y="0" width="108" height="108" filterUnits="userSpaceOnUse">
      <feOffset dy="3" input="SourceAlpha"/>
      <feGaussianBlur stdDeviation="3" result="blur"/>
      <feFlood flood-opacity="0.161"/>
      <feComposite operator="in" in2="blur"/>
      <feComposite in="SourceGraphic"/>
    </filter>
  </defs>
  <g id="Grupo_1151940" data-name="Grupo 1151940" transform="translate(-1294 -4692.543)">
    <g id="Grupo_1151626" data-name="Grupo 1151626" transform="translate(1303 4698.543)">
      <g id="Grupo_1150893" data-name="Grupo 1150893">
        <g transform="matrix(1, 0, 0, 1, -9, -6)" filter="url(#Trazado_982538)">
          <g id="Trazado_982538-2" data-name="Trazado 982538" transform="translate(9 6)" fill="#f3f3f3">
            <path d="M 45 88.5 C 39.12687683105469 88.5 33.43022537231445 87.35007476806641 28.06830024719238 85.08217620849609 C 22.88852500915527 82.89131164550781 18.23629951477051 79.75458526611328 14.2408504486084 75.75914764404297 C 10.24541282653809 71.76370239257812 7.108687400817871 67.11147308349609 4.917825222015381 61.93170166015625 C 2.649924993515015 56.56977462768555 1.5 50.87312316894531 1.5 45 C 1.5 39.12687683105469 2.649924993515015 33.43022537231445 4.917825222015381 28.06830024719238 C 7.108687400817871 22.88852500915527 10.24541282653809 18.23629951477051 14.2408504486084 14.2408504486084 C 18.23629951477051 10.24541282653809 22.88852500915527 7.108687400817871 28.06830024719238 4.917825222015381 C 33.43022537231445 2.649924993515015 39.12687683105469 1.5 45 1.5 C 50.87312316894531 1.5 56.56977462768555 2.649924993515015 61.93170166015625 4.917825222015381 C 67.11147308349609 7.108687400817871 71.76370239257812 10.24541282653809 75.75914764404297 14.2408504486084 C 79.75458526611328 18.23629951477051 82.89131164550781 22.88852500915527 85.08217620849609 28.06830024719238 C 87.35007476806641 33.43022537231445 88.5 39.12687683105469 88.5 45 C 88.5 50.87312316894531 87.35007476806641 56.56977462768555 85.08217620849609 61.93170166015625 C 82.89131164550781 67.11147308349609 79.75458526611328 71.76370239257812 75.75914764404297 75.75914764404297 C 71.76370239257812 79.75458526611328 67.11147308349609 82.89131164550781 61.93170166015625 85.08217620849609 C 56.56977462768555 87.35007476806641 50.87312316894531 88.5 45 88.5 Z" stroke="none"/>
            <path d="M 45 3 C 39.32871246337891 3 33.82865524291992 4.110054016113281 28.65262985229492 6.299339294433594 C 23.65165710449219 8.414573669433594 19.15968322753906 11.44334411621094 15.301513671875 15.301513671875 C 11.44334411621094 19.15968322753906 8.414573669433594 23.65165710449219 6.299339294433594 28.65262985229492 C 4.110054016113281 33.82865524291992 3 39.32871246337891 3 45 C 3 50.67128753662109 4.110054016113281 56.17134475708008 6.299339294433594 61.34737396240234 C 8.414573669433594 66.34834289550781 11.44334411621094 70.84031677246094 15.301513671875 74.698486328125 C 19.15968322753906 78.55665588378906 23.65165710449219 81.58542633056641 28.65262985229492 83.70066070556641 C 33.82865524291992 85.88994598388672 39.32871246337891 87 45 87 C 50.67128753662109 87 56.17134475708008 85.88994598388672 61.34737396240234 83.70066070556641 C 66.34834289550781 81.58542633056641 70.84031677246094 78.55665588378906 74.698486328125 74.698486328125 C 78.55665588378906 70.84031677246094 81.58542633056641 66.34834289550781 83.70066070556641 61.34737396240234 C 85.88994598388672 56.17134475708008 87 50.67128753662109 87 45 C 87 39.32871246337891 85.88994598388672 33.82865524291992 83.70066070556641 28.65262985229492 C 81.58542633056641 23.65165710449219 78.55665588378906 19.15968322753906 74.698486328125 15.301513671875 C 70.84031677246094 11.44334411621094 66.34834289550781 8.414573669433594 61.34737396240234 6.299339294433594 C 56.17134475708008 4.110054016113281 50.67128753662109 3 45 3 M 45 0 C 69.85281372070312 0 90 20.14718627929688 90 45 C 90 69.85281372070312 69.85281372070312 90 45 90 C 20.14718627929688 90 0 69.85281372070312 0 45 C 0 20.14718627929688 20.14718627929688 0 45 0 Z" stroke="none" fill="#fd7940"/>
          </g>
        </g>
      </g>
    </g>
    <g id="_002-cod" data-name="002-cod" transform="translate(1318 4716.844)">
      <g id="Grupo_1151938" data-name="Grupo 1151938" transform="translate(1.15 1.15)">
        <path id="Trazado_987167" data-name="Trazado 987167" d="M10,60H47.957V80.7H10Z" transform="translate(-10 -54.249)" fill="#b8ecbc"/>
        <g id="Grupo_1151937" data-name="Grupo 1151937" transform="translate(0 5.751)">
          <path id="Trazado_987168" data-name="Trazado 987168" d="M10,190v5.751h5.751A5.751,5.751,0,0,0,10,190Z" transform="translate(-10 -175.047)" fill="#d0f2d2"/>
          <path id="Trazado_987169" data-name="Trazado 987169" d="M10,65.751V60h5.751A5.751,5.751,0,0,1,10,65.751Z" transform="translate(-10 -60)" fill="#d0f2d2"/>
          <ellipse id="Elipse_11779" data-name="Elipse 11779" cx="6.028" cy="5.598" rx="6.028" ry="5.598" transform="translate(12.958 4.624)" fill="#d0f2d2"/>
        </g>
        <path id="Trazado_987170" data-name="Trazado 987170" d="M442,10h6.9V22.652H442Z" transform="translate(-392.311 -10)" fill="#a0c8ff"/>
        <path id="Trazado_987171" data-name="Trazado 987171" d="M237,222h23v24.154H237Z" transform="translate(-210.89 -197.616)" fill="#fff2a0"/>
        <path id="Trazado_987172" data-name="Trazado 987172" d="M67,391.941h6.9v12.652H67Z" transform="translate(-60.444 -348.01)" fill="#fff2a0"/>
        <path id="Trazado_987173" data-name="Trazado 987173" d="M169.291,342.842a2.875,2.875,0,0,0-4.067,0l-9.372,9.372a2.875,2.875,0,0,0-2.4-4.463h-9.2l-2.947-1.637a9.842,9.842,0,0,0-10.569.644L127,349.476V360.4h26.414a5.751,5.751,0,0,0,4.067-1.684l11.81-11.81A2.876,2.876,0,0,0,169.291,342.842Z" transform="translate(-113.543 -303.813)" fill="#cc9081"/>
        <path id="Trazado_987174" data-name="Trazado 987174" d="M307,222h6.9v6.9H307Z" transform="translate(-272.839 -197.616)" fill="#9ea6bf"/>
        <path id="Trazado_987175" data-name="Trazado 987175" d="M148.785,10a6.326,6.326,0,0,0-5.658,3.5L142,15.751h8.051a2.876,2.876,0,0,0,0,5.751h9.2l2.809,1.56a10.45,10.45,0,0,0,10.686-.319l3.759-2.392V10Z" transform="translate(-126.817 -10)" fill="#ffdcd5"/>
      </g>
      <g id="Grupo_1151939" data-name="Grupo 1151939" transform="translate(0)">
        <circle id="Elipse_11780" data-name="Elipse 11780" cx="1.292" cy="1.292" r="1.292" transform="translate(26.165 33.916)"/>
        <path id="Trazado_987176" data-name="Trazado 987176" d="M57.712,39.366a4.026,4.026,0,0,0-5.693,0l-.6.6V25.535a1.15,1.15,0,0,0-1.15-1.15H40.257V16.613A11.557,11.557,0,0,0,47.7,14.864L49.689,13.6V13.8a1.15,1.15,0,0,0,1.15,1.15h6.9a1.15,1.15,0,0,0,1.15-1.15V1.15A1.15,1.15,0,0,0,57.74,0H23.118a7.436,7.436,0,0,0-6.687,4.133l-.809,1.618H1.15A1.15,1.15,0,0,0,0,6.9V27.6a1.15,1.15,0,0,0,1.15,1.15H26.11v1.38a1.15,1.15,0,1,0,2.3,0V26.685h5.751v5.751a1.15,1.15,0,0,0,1.15,1.15h6.9a1.15,1.15,0,0,0,1.15-1.15V26.685h5.751V42.27l-4.281,4.281a4.033,4.033,0,0,0-3.77-2.614h-8.9l-2.686-1.492a10.952,10.952,0,0,0-1.063-.517V40.487a1.15,1.15,0,0,0-2.3,0v.755a10.983,10.983,0,0,0-8.441,1.923l-2.006,1.459a1.151,1.151,0,0,0-1.055-.692h-6.9a1.15,1.15,0,0,0-1.15,1.15V57.734a1.15,1.15,0,0,0,1.15,1.15l33.315.007a6.857,6.857,0,0,0,4.88-2.021l11.81-11.81a4.026,4.026,0,0,0,0-5.693ZM51.989,2.3h4.6V12.652h-4.6Zm-33.5,2.861A5.148,5.148,0,0,1,23.118,2.3H49.689v8.57l-3.226,2.053a9.3,9.3,0,0,1-9.509.284l-2.809-1.56a1.149,1.149,0,0,0-.559-.145h-9.2a1.725,1.725,0,1,1,0-3.451H34.736a1.15,1.15,0,0,0,0-2.3H18.194Zm6.241,12.091a4.6,4.6,0,1,1-4.6-4.6A4.6,4.6,0,0,1,24.729,17.253ZM2.3,8.051H5.605A4.618,4.618,0,0,1,2.3,11.356Zm0,18.4V23.15a4.618,4.618,0,0,1,3.305,3.305Zm24.96-2.07a1.15,1.15,0,0,0-1.15,1.15v.92H7.954A6.917,6.917,0,0,0,2.3,20.8V13.7A6.917,6.917,0,0,0,7.954,8.051H20.747a4,4,0,0,0-.389,1.725,4.046,4.046,0,0,0,.042.581c-.091,0-.181-.006-.272-.006A6.9,6.9,0,1,0,26.106,13.8h7.182l2.548,1.416a11.588,11.588,0,0,0,2.121.913v8.253Zm13.8,6.9h-4.6v-4.6h4.6Zm-27.6,25.3h-4.6V46.232h4.6ZM56.085,43.433l-11.81,11.81a4.571,4.571,0,0,1-3.253,1.348H15.758V47.4l3.264-2.374a8.692,8.692,0,0,1,9.334-.569L31.3,46.094a1.15,1.15,0,0,0,.559.145h9.2a1.725,1.725,0,1,1,0,3.451H30.711a1.15,1.15,0,1,0,0,2.3H41.062a4.024,4.024,0,0,0,3.281-1.695l9.3-9.3a1.725,1.725,0,0,1,2.44,2.44Z" transform="translate(0)"/>
      </g>
    </g>
  </g>
</svg>
