<svg xmlns="http://www.w3.org/2000/svg" xmlns:xlink="http://www.w3.org/1999/xlink" width="108" height="108" viewBox="0 0 108 108">
  <defs>
    <filter id="Trazado_982538" x="0" y="0" width="108" height="108" filterUnits="userSpaceOnUse">
      <feOffset dy="3" input="SourceAlpha"/>
      <feGaussianBlur stdDeviation="3" result="blur"/>
      <feFlood flood-opacity="0.161"/>
      <feComposite operator="in" in2="blur"/>
      <feComposite in="SourceGraphic"/>
    </filter>
  </defs>
  <g id="Grupo_1151944" data-name="Grupo 1151944" transform="translate(-200.609 -6924)">
    <g id="Grupo_1151628" data-name="Grupo 1151628" transform="translate(-0.391 -3366)">
      <g id="Grupo_1150893" data-name="Grupo 1150893" transform="translate(0 7321)">
        <g transform="matrix(1, 0, 0, 1, 201, 2969)" filter="url(#Trazado_982538)">
          <g id="Trazado_982538-2" data-name="Trazado 982538" transform="translate(9 6)" fill="#f3f3f3">
            <path d="M 45 88.5 C 39.12687683105469 88.5 33.43022537231445 87.35007476806641 28.06830024719238 85.08217620849609 C 22.88852500915527 82.89131164550781 18.23629951477051 79.75458526611328 14.2408504486084 75.75914764404297 C 10.24541282653809 71.76370239257812 7.108687400817871 67.11147308349609 4.917825222015381 61.93170166015625 C 2.649924993515015 56.56977462768555 1.5 50.87312316894531 1.5 45 C 1.5 39.12687683105469 2.649924993515015 33.43022537231445 4.917825222015381 28.06830024719238 C 7.108687400817871 22.88852500915527 10.24541282653809 18.23629951477051 14.2408504486084 14.2408504486084 C 18.23629951477051 10.24541282653809 22.88852500915527 7.108687400817871 28.06830024719238 4.917825222015381 C 33.43022537231445 2.649924993515015 39.12687683105469 1.5 45 1.5 C 50.87312316894531 1.5 56.56977462768555 2.649924993515015 61.93170166015625 4.917825222015381 C 67.11147308349609 7.108687400817871 71.76370239257812 10.24541282653809 75.75914764404297 14.2408504486084 C 79.75458526611328 18.23629951477051 82.89131164550781 22.88852500915527 85.08217620849609 28.06830024719238 C 87.35007476806641 33.43022537231445 88.5 39.12687683105469 88.5 45 C 88.5 50.87312316894531 87.35007476806641 56.56977462768555 85.08217620849609 61.93170166015625 C 82.89131164550781 67.11147308349609 79.75458526611328 71.76370239257812 75.75914764404297 75.75914764404297 C 71.76370239257812 79.75458526611328 67.11147308349609 82.89131164550781 61.93170166015625 85.08217620849609 C 56.56977462768555 87.35007476806641 50.87312316894531 88.5 45 88.5 Z" stroke="none"/>
            <path d="M 45 3 C 39.32871246337891 3 33.82865524291992 4.110054016113281 28.65262985229492 6.299339294433594 C 23.65165710449219 8.414573669433594 19.15968322753906 11.44334411621094 15.301513671875 15.301513671875 C 11.44334411621094 19.15968322753906 8.414573669433594 23.65165710449219 6.299339294433594 28.65262985229492 C 4.110054016113281 33.82865524291992 3 39.32871246337891 3 45 C 3 50.67128753662109 4.110054016113281 56.17134475708008 6.299339294433594 61.34737396240234 C 8.414573669433594 66.34834289550781 11.44334411621094 70.84031677246094 15.301513671875 74.698486328125 C 19.15968322753906 78.55665588378906 23.65165710449219 81.58542633056641 28.65262985229492 83.70066070556641 C 33.82865524291992 85.88994598388672 39.32871246337891 87 45 87 C 50.67128753662109 87 56.17134475708008 85.88994598388672 61.34737396240234 83.70066070556641 C 66.34834289550781 81.58542633056641 70.84031677246094 78.55665588378906 74.698486328125 74.698486328125 C 78.55665588378906 70.84031677246094 81.58542633056641 66.34834289550781 83.70066070556641 61.34737396240234 C 85.88994598388672 56.17134475708008 87 50.67128753662109 87 45 C 87 39.32871246337891 85.88994598388672 33.82865524291992 83.70066070556641 28.65262985229492 C 81.58542633056641 23.65165710449219 78.55665588378906 19.15968322753906 74.698486328125 15.301513671875 C 70.84031677246094 11.44334411621094 66.34834289550781 8.414573669433594 61.34737396240234 6.299339294433594 C 56.17134475708008 4.110054016113281 50.67128753662109 3 45 3 M 45 0 C 69.85281372070312 0 90 20.14718627929688 90 45 C 90 69.85281372070312 69.85281372070312 90 45 90 C 20.14718627929688 90 0 69.85281372070312 0 45 C 0 20.14718627929688 20.14718627929688 0 45 0 Z" stroke="none" fill="#fd7940"/>
          </g>
        </g>
      </g>
    </g>
    <g id="_042-interest_rate" data-name="042-interest rate" transform="translate(228.887 6949.818)">
      <g id="Grupo_1151942" data-name="Grupo 1151942" transform="translate(1.112 1.112)">
        <path id="Trazado_987177" data-name="Trazado 987177" d="M21.949,108.777h0a2.021,2.021,0,0,1-.643-2.785h0A10.621,10.621,0,0,1,30.313,101h6.349v4.042h-6.35a6.577,6.577,0,0,0-5.578,3.092A2.02,2.02,0,0,1,21.949,108.777Z" transform="translate(-19.988 -91.905)" fill="#fff2a0"/>
        <path id="Trazado_987178" data-name="Trazado 987178" d="M34.747,141H23.631L12.664,157.671a10.109,10.109,0,0,0,8.446,15.666h16.16a10.109,10.109,0,0,0,8.446-15.666Z" transform="translate(-11 -127.863)" fill="#a4f1d6"/>
        <path id="Trazado_987179" data-name="Trazado 987179" d="M119.189,11H101l3.537,9.095h11.116Z" transform="translate(-91.905 -11)" fill="#a4f1d6"/>
        <g id="Grupo_1151941" data-name="Grupo 1151941" transform="translate(10.61 9.095)">
          <path id="Trazado_987180" data-name="Trazado 987180" d="M129.137,105.042H118.021a2.021,2.021,0,0,1,0-4.042h11.116a2.021,2.021,0,1,1,0,4.042Z" transform="translate(-116 -101)" fill="#fff2a0"/>
          <path id="Trazado_987181" data-name="Trazado 987181" d="M320.684,453H305.526a2.526,2.526,0,1,0,0,5.053h15.158a2.526,2.526,0,1,0,0-5.053Z" transform="translate(-284.103 -417.43)" fill="#fff2a0"/>
          <path id="Trazado_987182" data-name="Trazado 987182" d="M320.684,353H305.526a2.526,2.526,0,1,0,0,5.053h15.158a2.526,2.526,0,0,0,0-5.053Z" transform="translate(-284.103 -327.535)" fill="#fff2a0"/>
        </g>
        <path id="Trazado_987183" data-name="Trazado 987183" d="M320.684,403H305.526a2.526,2.526,0,1,0,0,5.053h15.158a2.526,2.526,0,0,0,0-5.053Z" transform="translate(-273.493 -363.388)" fill="#fff7bf"/>
      </g>
      <g id="Grupo_1151943" data-name="Grupo 1151943" transform="translate(0 0)">
        <path id="Trazado_987184" data-name="Trazado 987184" d="M434.822,98.883a1.011,1.011,0,0,0,1.429,0l2.526-2.526a1.01,1.01,0,1,0-1.429-1.429l-.8.8V83.011a1.011,1.011,0,1,0-2.021,0V95.729l-.8-.8a1.011,1.011,0,0,0-1.429,1.429Z" transform="translate(-388.346 -73.714)"/>
        <path id="Trazado_987185" data-name="Trazado 987185" d="M353.725,86.252l.8-.8V98.168a1.011,1.011,0,1,0,2.021,0V85.45l.8.8a1.01,1.01,0,0,0,1.429-1.429L356.252,82.3a1.011,1.011,0,0,0-1.429,0L352.3,84.822a1.011,1.011,0,0,0,1.429,1.429Z" transform="translate(-316.43 -73.714)"/>
        <path id="Trazado_987186" data-name="Trazado 987186" d="M149.654,230.169a1.011,1.011,0,0,0-1.4.28l-8.084,12.126a1.011,1.011,0,1,0,1.682,1.121l8.084-12.126A1.011,1.011,0,0,0,149.654,230.169Z" transform="translate(-125.851 -206.757)"/>
        <path id="Trazado_987187" data-name="Trazado 987187" d="M131.063,233.032a3.032,3.032,0,1,0-3.032,3.032A3.035,3.035,0,0,0,131.063,233.032Zm-4.042,0a1.011,1.011,0,1,1,1.011,1.01A1.012,1.012,0,0,1,127.021,233.032Z" transform="translate(-112.369 -206.758)"/>
        <path id="Trazado_987188" data-name="Trazado 987188" d="M198.032,310a3.032,3.032,0,1,0,3.032,3.032A3.035,3.035,0,0,0,198.032,310Zm0,4.042a1.011,1.011,0,1,1,1.011-1.01A1.012,1.012,0,0,1,198.032,314.042Z" transform="translate(-175.295 -278.674)"/>
        <circle id="Elipse_11781" data-name="Elipse 11781" cx="1.123" cy="1.123" r="1.123" transform="translate(39.761 49.493)"/>
        <path id="Trazado_987189" data-name="Trazado 987189" d="M50.673,40.623A3.534,3.534,0,0,0,48.2,34.56H38.249a11.151,11.151,0,0,0-1.68-4.3L26.339,14.712a3.03,3.03,0,0,0-.228-5.3l3.126-8.038A1.01,1.01,0,0,0,28.294,0H10.105a1.011,1.011,0,0,0-.942,1.377l3,7.718h-.83a11.565,11.565,0,0,0-9.864,5.467h0a3.031,3.031,0,0,0,.964,4.177h0a3.031,3.031,0,0,0,4.177-.964,5.566,5.566,0,0,1,4.721-2.617h.434L1.83,30.263a11.12,11.12,0,0,0,9.29,17.232H27.28a11.164,11.164,0,0,0,2.36-.25,3.534,3.534,0,0,0,3.4,4.494h3.032a1.011,1.011,0,1,0,0-2.021H33.044a1.516,1.516,0,1,1,0-3.032H48.2a1.516,1.516,0,1,1,0,3.032H45.17a1.011,1.011,0,1,0,0,2.021H48.2a3.534,3.534,0,0,0,2.472-6.063,3.529,3.529,0,0,0,0-5.053ZM4.9,16.7a1.01,1.01,0,0,1-1.392.321h0a1.01,1.01,0,0,1-.321-1.392h0a9.611,9.611,0,0,1,7.593-4.5,3.027,3.027,0,0,0,.013,2.024A7.588,7.588,0,0,0,4.9,16.7ZM11.582,2.021H26.817L24.066,9.095H14.333ZM25.768,12.126a1.012,1.012,0,0,1-1.011,1.011H13.642a1.011,1.011,0,1,1,0-2.021H24.758A1.012,1.012,0,0,1,25.768,12.126Zm4.8,28.5a3.527,3.527,0,0,0-.514,4.419,9.046,9.046,0,0,1-2.779.431H11.12a9.1,9.1,0,0,1-7.6-14.1L14.187,15.158H24.213L34.881,31.373a9.126,9.126,0,0,1,1.314,3.186H33.044a3.534,3.534,0,0,0-2.472,6.063ZM48.2,44.665H33.044a1.516,1.516,0,0,1,0-3.032H48.2a1.516,1.516,0,1,1,0,3.032Zm0-5.053H33.044a1.516,1.516,0,0,1,0-3.032H48.2a1.516,1.516,0,0,1,0,3.032Z" transform="translate(0 0)"/>
      </g>
    </g>
  </g>
</svg>
