<svg xmlns="http://www.w3.org/2000/svg" xmlns:xlink="http://www.w3.org/1999/xlink" width="108" height="108" viewBox="0 0 108 108">
  <defs>
    <filter id="Fondo" x="0" y="0" width="108" height="108" filterUnits="userSpaceOnUse">
      <feOffset dy="3" input="SourceAlpha"/>
      <feGaussianBlur stdDeviation="3" result="blur"/>
      <feFlood flood-opacity="0.161"/>
      <feComposite operator="in" in2="blur"/>
      <feComposite in="SourceGraphic"/>
    </filter>
  </defs>
  <g id="Icono" transform="translate(8.5 -689)">
    <g transform="matrix(1, 0, 0, 1, -8.5, 689)" filter="url(#Fondo)">
      <g id="Fondo-2" data-name="Fondo" transform="translate(9 6)" fill="#e6d567">
        <path d="M 45 88.5 C 39.12687683105469 88.5 33.43022537231445 87.35007476806641 28.06830024719238 85.08217620849609 C 22.88852500915527 82.89131164550781 18.23629951477051 79.75458526611328 14.2408504486084 75.75914764404297 C 10.24541282653809 71.76370239257812 7.108687400817871 67.11147308349609 4.917825222015381 61.93170166015625 C 2.649924993515015 56.56977462768555 1.5 50.87312316894531 1.5 45 C 1.5 39.12687683105469 2.649924993515015 33.43022537231445 4.917825222015381 28.06830024719238 C 7.108687400817871 22.88852500915527 10.24541282653809 18.23629951477051 14.2408504486084 14.2408504486084 C 18.23629951477051 10.24541282653809 22.88852500915527 7.108687400817871 28.06830024719238 4.917825222015381 C 33.43022537231445 2.649924993515015 39.12687683105469 1.5 45 1.5 C 50.87312316894531 1.5 56.56977462768555 2.649924993515015 61.93170166015625 4.917825222015381 C 67.11147308349609 7.108687400817871 71.76370239257812 10.24541282653809 75.75914764404297 14.2408504486084 C 79.75458526611328 18.23629951477051 82.89131164550781 22.88852500915527 85.08217620849609 28.06830024719238 C 87.35007476806641 33.43022537231445 88.5 39.12687683105469 88.5 45 C 88.5 50.87312316894531 87.35007476806641 56.56977462768555 85.08217620849609 61.93170166015625 C 82.89131164550781 67.11147308349609 79.75458526611328 71.76370239257812 75.75914764404297 75.75914764404297 C 71.76370239257812 79.75458526611328 67.11147308349609 82.89131164550781 61.93170166015625 85.08217620849609 C 56.56977462768555 87.35007476806641 50.87312316894531 88.5 45 88.5 Z" stroke="none"/>
        <path d="M 45 3 C 39.32871246337891 3 33.82865524291992 4.110054016113281 28.65262985229492 6.299339294433594 C 23.65165710449219 8.414573669433594 19.15968322753906 11.44334411621094 15.301513671875 15.301513671875 C 11.44334411621094 19.15968322753906 8.414573669433594 23.65165710449219 6.299339294433594 28.65262985229492 C 4.110054016113281 33.82865524291992 3 39.32871246337891 3 45 C 3 50.67128753662109 4.110054016113281 56.17134475708008 6.299339294433594 61.34737396240234 C 8.414573669433594 66.34834289550781 11.44334411621094 70.84031677246094 15.301513671875 74.698486328125 C 19.15968322753906 78.55665588378906 23.65165710449219 81.58542633056641 28.65262985229492 83.70066070556641 C 33.82865524291992 85.88994598388672 39.32871246337891 87 45 87 C 50.67128753662109 87 56.17134475708008 85.88994598388672 61.34737396240234 83.70066070556641 C 66.34834289550781 81.58542633056641 70.84031677246094 78.55665588378906 74.698486328125 74.698486328125 C 78.55665588378906 70.84031677246094 81.58542633056641 66.34834289550781 83.70066070556641 61.34737396240234 C 85.88994598388672 56.17134475708008 87 50.67128753662109 87 45 C 87 39.32871246337891 85.88994598388672 33.82865524291992 83.70066070556641 28.65262985229492 C 81.58542633056641 23.65165710449219 78.55665588378906 19.15968322753906 74.698486328125 15.301513671875 C 70.84031677246094 11.44334411621094 66.34834289550781 8.414573669433594 61.34737396240234 6.299339294433594 C 56.17134475708008 4.110054016113281 50.67128753662109 3 45 3 M 45 0 C 69.85281372070312 0 90 20.14718627929688 90 45 C 90 69.85281372070312 69.85281372070312 90 45 90 C 20.14718627929688 90 0 69.85281372070312 0 45 C 0 20.14718627929688 20.14718627929688 0 45 0 Z" stroke="none" fill="#bca724"/>
      </g>
    </g>
    <g id="_044-secure" data-name="044-secure" transform="translate(16.328 674.5)">
      <g id="Grupo_1151948" data-name="Grupo 1151948" transform="translate(1.42 42.42)">
        <path id="Trazado_987201" data-name="Trazado 987201" d="M152,181h49.712v5.681H152Z" transform="translate(-146.21 -166.778)" fill="#d0f2d2"/>
        <path id="Trazado_987202" data-name="Trazado 987202" d="M152,141h49.712v5.681H152Z" transform="translate(-146.21 -131.154)" fill="#b8ecbc"/>
        <path id="Trazado_987203" data-name="Trazado 987203" d="M152,221h49.712v25.566H152Z" transform="translate(-146.21 -208.93)" fill="#b8ecbc"/>
        <g id="Grupo_1151947" data-name="Grupo 1151947" transform="translate(5.79 12.07)">
          <path id="Trazado_987204" data-name="Trazado 987204" d="M459.1,351v7.1H452A7.1,7.1,0,0,1,459.1,351Z" transform="translate(-409.39 -332.536)" fill="#d0f2d2"/>
          <path id="Trazado_987205" data-name="Trazado 987205" d="M459.1,228.1V221H452A7.1,7.1,0,0,0,459.1,228.1Z" transform="translate(-409.39 -221)" fill="#d0f2d2"/>
          <path id="Trazado_987206" data-name="Trazado 987206" d="M152,228.1V221h7.1A7.1,7.1,0,0,1,152,228.1Z" transform="translate(-152 -221)" fill="#d0f2d2"/>
          <circle id="Elipse_11786" data-name="Elipse 11786" cx="6.83" cy="6.83" r="6.83" transform="translate(17.954 6.031)" fill="#d0f2d2"/>
        </g>
        <path id="Trazado_987207" data-name="Trazado 987207" d="M34.856,411H13.551a3.551,3.551,0,0,0,0,7.1H34.856a3.551,3.551,0,0,0,0-7.1Z" transform="translate(-10 -371.944)" fill="#fff2a0"/>
        <path id="Trazado_987208" data-name="Trazado 987208" d="M34.856,361H13.551a3.551,3.551,0,1,0,0,7.1H34.856a3.551,3.551,0,1,0,0-7.1Z" transform="translate(-10 -329.045)" fill="#fff7bf"/>
        <path id="Trazado_987209" data-name="Trazado 987209" d="M34.856,311H13.551a3.551,3.551,0,0,0,0,7.1H34.856a3.551,3.551,0,0,0,0-7.1Z" transform="translate(-10 -282.793)" fill="#fff2a0"/>
        <path id="Trazado_987210" data-name="Trazado 987210" d="M59.726,54.551,56.175,51H40.551L37,54.551v8.46a17.511,17.511,0,0,0,11.363,16.4,17.511,17.511,0,0,0,11.363-16.4Z" transform="translate(-33.165 -51)" fill="#a0c8ff"/>
      </g>
      <g id="Grupo_1151949" data-name="Grupo 1151949" transform="translate(0 41)">
        <path id="Trazado_987211" data-name="Trazado 987211" d="M83.369,101.667l-6.026,6.026-1.507-1.506a1.42,1.42,0,0,0-2.009,2.009l2.511,2.511a1.42,1.42,0,0,0,2.009,0l7.03-7.03a1.42,1.42,0,0,0-2.009-2.009Z" transform="translate(-64.985 -94.693)"/>
        <circle id="Elipse_11787" data-name="Elipse 11787" cx="1.438" cy="1.438" r="1.438" transform="translate(35.97 37.495)"/>
        <path id="Trazado_987212" data-name="Trazado 987212" d="M284.044,259.522a8.522,8.522,0,1,0-8.522,8.522A8.532,8.532,0,0,0,284.044,259.522Zm-14.2,0a5.681,5.681,0,1,1,5.681,5.681A5.688,5.688,0,0,1,269.841,259.522Z" transform="translate(-238.871 -229.353)"/>
        <path id="Trazado_987213" data-name="Trazado 987213" d="M57.2,51.256H23.588V44.988a1.14,1.14,0,0,0-.334-.806l-2.849-2.849A1.14,1.14,0,0,0,19.6,41H7.065a1.14,1.14,0,0,0-.806.334L3.41,44.183a1.14,1.14,0,0,0-.334.806v6.787A15.188,15.188,0,0,0,12.932,66a1.14,1.14,0,0,0,.8,0,15.253,15.253,0,0,0,2.449-1.178v5.808H3.988A3.986,3.986,0,0,0,1.2,77.464a3.979,3.979,0,0,0,0,5.7A3.986,3.986,0,0,0,3.988,90H21.081a3.986,3.986,0,0,0,2.787-6.837h8.266a1.14,1.14,0,1,0,0-2.279H25.028a3.974,3.974,0,0,0-1.16-3.419,3.986,3.986,0,0,0-2.787-6.837H18.46V68.251a6.852,6.852,0,0,0,5.6-5.6h26.4a6.852,6.852,0,0,0,5.6,5.6v7.031a6.852,6.852,0,0,0-5.6,5.6H42.39a1.14,1.14,0,0,0,0,2.279H57.2a1.14,1.14,0,0,0,1.14-1.14V52.4a1.14,1.14,0,0,0-1.14-1.14Zm-1.14,29.627H52.789a4.575,4.575,0,0,1,3.274-3.274ZM21.081,87.72H3.988a1.709,1.709,0,0,1,0-3.419H21.081a1.709,1.709,0,0,1,0,3.419Zm0-5.7H3.988a1.709,1.709,0,1,1,0-3.419H21.081a1.709,1.709,0,1,1,0,3.419Zm0-9.116a1.709,1.709,0,1,1,0,3.419H3.988a1.709,1.709,0,1,1,0-3.419Zm-7.749-9.2a12.973,12.973,0,0,1-7.977-11.93V45.46l2.181-2.181h11.59l2.181,2.181v6.315A12.973,12.973,0,0,1,13.332,63.7Zm5.128,2.22v-2.77c.185-.164.367-.331.545-.5h2.73a4.575,4.575,0,0,1-3.274,3.274Zm37.6,0a4.575,4.575,0,0,1-3.274-3.274h3.274Zm0-5.553H20.92a15.26,15.26,0,0,0,1.292-2.279H56.064Zm0-4.558H23.043a15.1,15.1,0,0,0,.443-2.279H56.064Z" transform="translate(0 -41)"/>
      </g>
    </g>
  </g>
</svg>
