<svg xmlns="http://www.w3.org/2000/svg" xmlns:xlink="http://www.w3.org/1999/xlink" width="108" height="108" viewBox="0 0 108 108">
  <defs>
    <filter id="Fondo" x="0" y="0" width="108" height="108" filterUnits="userSpaceOnUse">
      <feOffset dy="3" input="SourceAlpha"/>
      <feGaussianBlur stdDeviation="3" result="blur"/>
      <feFlood flood-opacity="0.161"/>
      <feComposite operator="in" in2="blur"/>
      <feComposite in="SourceGraphic"/>
    </filter>
  </defs>
  <g id="Icono" transform="translate(8.5 -689)">
    <g transform="matrix(1, 0, 0, 1, -8.5, 689)" filter="url(#Fondo)">
      <g id="Fondo-2" data-name="Fondo" transform="translate(9 6)" fill="#e6d567">
        <path d="M 45 88.5 C 39.12687683105469 88.5 33.43022537231445 87.35007476806641 28.06830024719238 85.08217620849609 C 22.88852500915527 82.89131164550781 18.23629951477051 79.75458526611328 14.2408504486084 75.75914764404297 C 10.24541282653809 71.76370239257812 7.108687400817871 67.11147308349609 4.917825222015381 61.93170166015625 C 2.649924993515015 56.56977462768555 1.5 50.87312316894531 1.5 45 C 1.5 39.12687683105469 2.649924993515015 33.43022537231445 4.917825222015381 28.06830024719238 C 7.108687400817871 22.88852500915527 10.24541282653809 18.23629951477051 14.2408504486084 14.2408504486084 C 18.23629951477051 10.24541282653809 22.88852500915527 7.108687400817871 28.06830024719238 4.917825222015381 C 33.43022537231445 2.649924993515015 39.12687683105469 1.5 45 1.5 C 50.87312316894531 1.5 56.56977462768555 2.649924993515015 61.93170166015625 4.917825222015381 C 67.11147308349609 7.108687400817871 71.76370239257812 10.24541282653809 75.75914764404297 14.2408504486084 C 79.75458526611328 18.23629951477051 82.89131164550781 22.88852500915527 85.08217620849609 28.06830024719238 C 87.35007476806641 33.43022537231445 88.5 39.12687683105469 88.5 45 C 88.5 50.87312316894531 87.35007476806641 56.56977462768555 85.08217620849609 61.93170166015625 C 82.89131164550781 67.11147308349609 79.75458526611328 71.76370239257812 75.75914764404297 75.75914764404297 C 71.76370239257812 79.75458526611328 67.11147308349609 82.89131164550781 61.93170166015625 85.08217620849609 C 56.56977462768555 87.35007476806641 50.87312316894531 88.5 45 88.5 Z" stroke="none"/>
        <path d="M 45 3 C 39.32871246337891 3 33.82865524291992 4.110054016113281 28.65262985229492 6.299339294433594 C 23.65165710449219 8.414573669433594 19.15968322753906 11.44334411621094 15.301513671875 15.301513671875 C 11.44334411621094 19.15968322753906 8.414573669433594 23.65165710449219 6.299339294433594 28.65262985229492 C 4.110054016113281 33.82865524291992 3 39.32871246337891 3 45 C 3 50.67128753662109 4.110054016113281 56.17134475708008 6.299339294433594 61.34737396240234 C 8.414573669433594 66.34834289550781 11.44334411621094 70.84031677246094 15.301513671875 74.698486328125 C 19.15968322753906 78.55665588378906 23.65165710449219 81.58542633056641 28.65262985229492 83.70066070556641 C 33.82865524291992 85.88994598388672 39.32871246337891 87 45 87 C 50.67128753662109 87 56.17134475708008 85.88994598388672 61.34737396240234 83.70066070556641 C 66.34834289550781 81.58542633056641 70.84031677246094 78.55665588378906 74.698486328125 74.698486328125 C 78.55665588378906 70.84031677246094 81.58542633056641 66.34834289550781 83.70066070556641 61.34737396240234 C 85.88994598388672 56.17134475708008 87 50.67128753662109 87 45 C 87 39.32871246337891 85.88994598388672 33.82865524291992 83.70066070556641 28.65262985229492 C 81.58542633056641 23.65165710449219 78.55665588378906 19.15968322753906 74.698486328125 15.301513671875 C 70.84031677246094 11.44334411621094 66.34834289550781 8.414573669433594 61.34737396240234 6.299339294433594 C 56.17134475708008 4.110054016113281 50.67128753662109 3 45 3 M 45 0 C 69.85281372070312 0 90 20.14718627929688 90 45 C 90 69.85281372070312 69.85281372070312 90 45 90 C 20.14718627929688 90 0 69.85281372070312 0 45 C 0 20.14718627929688 20.14718627929688 0 45 0 Z" stroke="none" fill="#bca724"/>
      </g>
    </g>
    <g id="_046-crowdfunding" data-name="046-crowdfunding" transform="translate(16.563 711.063)">
      <g id="Grupo_1151945" data-name="Grupo 1151945" transform="translate(1.13 1.115)">
        <ellipse id="Elipse_11782" data-name="Elipse 11782" cx="4.955" cy="4.505" rx="4.955" ry="4.505" transform="translate(24.997 0)" fill="#fff2a0"/>
        <ellipse id="Elipse_11783" data-name="Elipse 11783" cx="10.361" cy="10.811" rx="10.361" ry="10.811" transform="translate(6.077 13.514)" fill="#fff2a0"/>
        <path id="Trazado_987190" data-name="Trazado 987190" d="M55,312h45.44v21.477H55Z" transform="translate(-49.913 -277.848)" fill="#a0c8ff"/>
        <path id="Trazado_987191" data-name="Trazado 987191" d="M260.746,318.782H235.087L230,312h25.659Z" transform="translate(-205.132 -277.848)" fill="#bfdbff"/>
        <path id="Trazado_987192" data-name="Trazado 987192" d="M10,318.782H29.781L34.868,312H15.087Z" transform="translate(-10 -277.848)" fill="#bfdbff"/>
        <circle id="Elipse_11784" data-name="Elipse 11784" cx="9.009" cy="9.009" r="9.009" transform="translate(34.006 9.91)" fill="#fff2a0"/>
      </g>
      <g id="Grupo_1151946" data-name="Grupo 1151946" transform="translate(0)">
        <path id="Trazado_987193" data-name="Trazado 987193" d="M230.652,11.3A5.652,5.652,0,1,0,225,5.652,5.658,5.658,0,0,0,230.652,11.3Zm0-9.043a3.391,3.391,0,1,1-3.391,3.391A3.395,3.395,0,0,1,230.652,2.261Z" transform="translate(-199.567)"/>
        <path id="Trazado_987194" data-name="Trazado 987194" d="M129.284,167.091a3.414,3.414,0,0,0-2.319-3.865,9.583,9.583,0,0,1-2.42-1.122.709.709,0,0,1-.14-.655,1,1,0,0,1,.65-.786,2.222,2.222,0,0,1,.419-.083l.052,0a1.144,1.144,0,0,0,.163-.013,1.734,1.734,0,0,1,1.071.358l-.016-.014h0a1.129,1.129,0,1,0,1.531-1.66h0a3.8,3.8,0,0,0-1.621-.822v-.3a1.13,1.13,0,1,0-2.261,0v.37a3.233,3.233,0,0,0-2.213,2.53,2.9,2.9,0,0,0,.967,2.853,11.141,11.141,0,0,0,3.062,1.474,1.146,1.146,0,0,1,.843,1.358,1.547,1.547,0,0,1-1.536,1.305,2.653,2.653,0,0,1-1.93-.5,1.13,1.13,0,1,0-1.238,1.892,4.594,4.594,0,0,0,2.044.82v.335a1.13,1.13,0,1,0,2.261,0v-.452A3.865,3.865,0,0,0,129.284,167.091Z" transform="translate(-108.068 -139.253)"/>
        <path id="Trazado_987195" data-name="Trazado 987195" d="M121.13,33.478a1.13,1.13,0,0,0,1.13-1.13V26.13a1.13,1.13,0,1,0-2.261,0v6.217A1.13,1.13,0,0,0,121.13,33.478Z" transform="translate(-106.436 -22.174)"/>
        <path id="Trazado_987196" data-name="Trazado 987196" d="M171.13,7.912a1.13,1.13,0,0,0,1.13-1.13V1.13a1.13,1.13,0,1,0-2.261,0V6.782A1.13,1.13,0,0,0,171.13,7.912Z" transform="translate(-150.784)"/>
        <path id="Trazado_987197" data-name="Trazado 987197" d="M381.13,7.912a1.13,1.13,0,0,0,1.13-1.13V1.13a1.13,1.13,0,0,0-2.261,0V6.782A1.13,1.13,0,0,0,381.13,7.912Z" transform="translate(-337.047)"/>
        <path id="Trazado_987198" data-name="Trazado 987198" d="M310.173,110.346A10.173,10.173,0,1,0,300,100.173,10.185,10.185,0,0,0,310.173,110.346Zm0-18.086a7.912,7.912,0,1,1-7.912,7.912A7.921,7.921,0,0,1,310.173,92.261Z" transform="translate(-266.089 -79.827)"/>
        <ellipse id="Elipse_11785" data-name="Elipse 11785" cx="0.901" cy="1.351" rx="0.901" ry="1.351" transform="translate(40.542 55.171)"/>
        <path id="Trazado_987199" data-name="Trazado 987199" d="M57.646,145.146l-5.087-6.782a1.13,1.13,0,0,0-.9-.452H25.21a11.869,11.869,0,1,0-15.379,0H6.219a1.13,1.13,0,0,0-.9.452L.228,145.146a1.13,1.13,0,0,0,.9,1.809H5.087v13.564a1.13,1.13,0,0,0,1.13,1.13H36.284a1.13,1.13,0,0,0,0-2.261H27.128V142.436l3.05,4.067a1.13,1.13,0,0,0,.9.452H50.527v12.434H46.457a1.13,1.13,0,0,0,0,2.261h5.2a1.13,1.13,0,0,0,1.13-1.13V146.954h3.954A1.13,1.13,0,0,0,57.646,145.146ZM7.912,128.869a9.608,9.608,0,1,1,12.858,9.043h-6.5A9.6,9.6,0,0,1,7.912,128.869ZM3.393,144.694l3.391-4.521H23.739l-3.391,4.521Zm21.475,14.695H7.347V146.954H20.914a1.13,1.13,0,0,0,.9-.452l3.05-4.067Zm6.78-14.695-3.391-4.521H51.09l3.391,4.521Z" transform="translate(0 -103.775)"/>
        <path id="Trazado_987200" data-name="Trazado 987200" d="M361.651,144.024a4.086,4.086,0,0,0,2.613.745h.1a3.321,3.321,0,0,0,3.26-2.774,2.985,2.985,0,0,0-2.026-3.38,7.659,7.659,0,0,1-1.912-.881.432.432,0,0,1-.038-.33.6.6,0,0,1,.384-.479,1.3,1.3,0,0,1,1.195.175l-.02-.018h0a1.129,1.129,0,1,0,1.531-1.66h0a3.561,3.561,0,0,0-3.359-.66,2.842,2.842,0,0,0-1.954,2.225,2.569,2.569,0,0,0,.864,2.527,9.244,9.244,0,0,0,2.553,1.233.726.726,0,0,1,.55.874,1.045,1.045,0,0,1-1.045.888,1.966,1.966,0,0,1-1.456-.376,1.13,1.13,0,0,0-1.238,1.892Z" transform="translate(-320.318 -119.384)"/>
      </g>
    </g>
  </g>
</svg>
