<svg xmlns="http://www.w3.org/2000/svg" xmlns:xlink="http://www.w3.org/1999/xlink" width="108" height="108" viewBox="0 0 108 108">
  <defs>
    <filter id="Fondo" x="0" y="0" width="108" height="108" filterUnits="userSpaceOnUse">
      <feOffset dy="3" input="SourceAlpha"/>
      <feGaussianBlur stdDeviation="3" result="blur"/>
      <feFlood flood-opacity="0.161"/>
      <feComposite operator="in" in2="blur"/>
      <feComposite in="SourceGraphic"/>
    </filter>
  </defs>
  <g id="Icono" transform="translate(8.5 -689)">
    <g transform="matrix(1, 0, 0, 1, -8.5, 689)" filter="url(#Fondo)">
      <g id="Fondo-2" data-name="Fondo" transform="translate(9 6)" fill="#e6d567">
        <path d="M 45 88.5 C 39.12687683105469 88.5 33.43022537231445 87.35007476806641 28.06830024719238 85.08217620849609 C 22.88852500915527 82.89131164550781 18.23629951477051 79.75458526611328 14.2408504486084 75.75914764404297 C 10.24541282653809 71.76370239257812 7.108687400817871 67.11147308349609 4.917825222015381 61.93170166015625 C 2.649924993515015 56.56977462768555 1.5 50.87312316894531 1.5 45 C 1.5 39.12687683105469 2.649924993515015 33.43022537231445 4.917825222015381 28.06830024719238 C 7.108687400817871 22.88852500915527 10.24541282653809 18.23629951477051 14.2408504486084 14.2408504486084 C 18.23629951477051 10.24541282653809 22.88852500915527 7.108687400817871 28.06830024719238 4.917825222015381 C 33.43022537231445 2.649924993515015 39.12687683105469 1.5 45 1.5 C 50.87312316894531 1.5 56.56977462768555 2.649924993515015 61.93170166015625 4.917825222015381 C 67.11147308349609 7.108687400817871 71.76370239257812 10.24541282653809 75.75914764404297 14.2408504486084 C 79.75458526611328 18.23629951477051 82.89131164550781 22.88852500915527 85.08217620849609 28.06830024719238 C 87.35007476806641 33.43022537231445 88.5 39.12687683105469 88.5 45 C 88.5 50.87312316894531 87.35007476806641 56.56977462768555 85.08217620849609 61.93170166015625 C 82.89131164550781 67.11147308349609 79.75458526611328 71.76370239257812 75.75914764404297 75.75914764404297 C 71.76370239257812 79.75458526611328 67.11147308349609 82.89131164550781 61.93170166015625 85.08217620849609 C 56.56977462768555 87.35007476806641 50.87312316894531 88.5 45 88.5 Z" stroke="none"/>
        <path d="M 45 3 C 39.32871246337891 3 33.82865524291992 4.110054016113281 28.65262985229492 6.299339294433594 C 23.65165710449219 8.414573669433594 19.15968322753906 11.44334411621094 15.301513671875 15.301513671875 C 11.44334411621094 19.15968322753906 8.414573669433594 23.65165710449219 6.299339294433594 28.65262985229492 C 4.110054016113281 33.82865524291992 3 39.32871246337891 3 45 C 3 50.67128753662109 4.110054016113281 56.17134475708008 6.299339294433594 61.34737396240234 C 8.414573669433594 66.34834289550781 11.44334411621094 70.84031677246094 15.301513671875 74.698486328125 C 19.15968322753906 78.55665588378906 23.65165710449219 81.58542633056641 28.65262985229492 83.70066070556641 C 33.82865524291992 85.88994598388672 39.32871246337891 87 45 87 C 50.67128753662109 87 56.17134475708008 85.88994598388672 61.34737396240234 83.70066070556641 C 66.34834289550781 81.58542633056641 70.84031677246094 78.55665588378906 74.698486328125 74.698486328125 C 78.55665588378906 70.84031677246094 81.58542633056641 66.34834289550781 83.70066070556641 61.34737396240234 C 85.88994598388672 56.17134475708008 87 50.67128753662109 87 45 C 87 39.32871246337891 85.88994598388672 33.82865524291992 83.70066070556641 28.65262985229492 C 81.58542633056641 23.65165710449219 78.55665588378906 19.15968322753906 74.698486328125 15.301513671875 C 70.84031677246094 11.44334411621094 66.34834289550781 8.414573669433594 61.34737396240234 6.299339294433594 C 56.17134475708008 4.110054016113281 50.67128753662109 3 45 3 M 45 0 C 69.85281372070312 0 90 20.14718627929688 90 45 C 90 69.85281372070312 69.85281372070312 90 45 90 C 20.14718627929688 90 0 69.85281372070312 0 45 C 0 20.14718627929688 20.14718627929688 0 45 0 Z" stroke="none" fill="#bca724"/>
      </g>
    </g>
    <g id="_024-atm" data-name="024-atm" transform="translate(20.517 701.242)">
      <g id="Grupo_1151951" data-name="Grupo 1151951" transform="translate(1.037 17.037)">
        <path id="Trazado_987214" data-name="Trazado 987214" d="M58.928,26H12.073A2.073,2.073,0,0,0,10,28.073V65.391a2.073,2.073,0,0,0,2.073,2.073H58.928A2.073,2.073,0,0,0,61,65.391V28.073A2.073,2.073,0,0,0,58.928,26Z" transform="translate(-10 -26)" fill="#b6bccf"/>
        <path id="Trazado_987215" data-name="Trazado 987215" d="M421,146h4.146v4.146H421Z" transform="translate(-378.395 -133.561)" fill="#fff"/>
        <path id="Trazado_987216" data-name="Trazado 987216" d="M381,146h4.146v4.146H381Z" transform="translate(-342.542 -133.561)" fill="#fff"/>
        <path id="Trazado_987217" data-name="Trazado 987217" d="M381,226h8.293v4.146H381Z" transform="translate(-342.542 -205.268)" fill="#ff9eb1"/>
        <g id="Grupo_1151950" data-name="Grupo 1151950" transform="translate(38.458 4.146)">
          <path id="Trazado_987218" data-name="Trazado 987218" d="M381,66h4.146v4.146H381Z" transform="translate(-381 -66)" fill="#fff"/>
          <path id="Trazado_987219" data-name="Trazado 987219" d="M381,106h4.146v4.146H381Z" transform="translate(-381 -101.854)" fill="#fff"/>
          <path id="Trazado_987220" data-name="Trazado 987220" d="M421,66h4.146v4.146H421Z" transform="translate(-416.854 -66)" fill="#fff"/>
          <path id="Trazado_987221" data-name="Trazado 987221" d="M421,106h4.146v4.146H421Z" transform="translate(-416.854 -101.854)" fill="#fff"/>
        </g>
        <path id="Trazado_987222" data-name="Trazado 987222" d="M91,66h25.915V86.732H91Z" transform="translate(-82.603 -61.854)" fill="#a0c8ff"/>
        <path id="Trazado_987223" data-name="Trazado 987223" d="M51,66h4.146V86.732H51Z" transform="translate(-46.75 -61.854)" fill="#fff"/>
        <path id="Trazado_987224" data-name="Trazado 987224" d="M51,306H93.5v8.293H51Z" transform="translate(-46.75 -276.975)" fill="#9ea6bf"/>
        <path id="Trazado_987225" data-name="Trazado 987225" d="M51,306H93.5v4.146H51Z" transform="translate(-46.75 -276.975)" fill="#9ea6bf"/>
        <path id="Trazado_987226" data-name="Trazado 987226" d="M91,346h34.208v14.513H91Z" transform="translate(-82.603 -312.828)" fill="#b8ecbc"/>
        <path id="Trazado_987227" data-name="Trazado 987227" d="M376.183,436v5.183H371A5.183,5.183,0,0,1,376.183,436Z" transform="translate(-333.578 -393.499)" fill="#d0f2d2"/>
        <path id="Trazado_987228" data-name="Trazado 987228" d="M91,436v5.183h5.183A5.183,5.183,0,0,0,91,436Z" transform="translate(-82.603 -393.499)" fill="#d0f2d2"/>
        <ellipse id="Elipse_11788" data-name="Elipse 11788" cx="5.935" cy="5.396" rx="5.935" ry="5.396" transform="translate(19.652 32.533)" fill="#d0f2d2"/>
      </g>
      <g id="Grupo_1151952" data-name="Grupo 1151952" transform="translate(0 16)">
        <path id="Trazado_987229" data-name="Trazado 987229" d="M49.965,16H31.2a1.037,1.037,0,1,0,0,2.073H49.965A1.038,1.038,0,0,1,51,19.11V56.428a1.038,1.038,0,0,1-1.037,1.037H44.678V55.391h3.11a1.037,1.037,0,0,0,1.037-1.037V46.062a1.037,1.037,0,0,0-1.037-1.037H5.287A1.037,1.037,0,0,0,4.25,46.062v8.293a1.037,1.037,0,0,0,1.037,1.037H8.4v2.073H3.11a1.038,1.038,0,0,1-1.037-1.037V19.11A1.038,1.038,0,0,1,3.11,18.073H21.873a1.037,1.037,0,0,0,0-2.073H3.11A3.113,3.113,0,0,0,0,19.11V56.428a3.113,3.113,0,0,0,3.11,3.11H8.4v5.183a1.037,1.037,0,0,0,1.037,1.037H43.641a1.037,1.037,0,0,0,1.037-1.037V59.538h5.287a3.113,3.113,0,0,0,3.11-3.11V19.11A3.113,3.113,0,0,0,49.965,16ZM46.751,53.318H44.678V51.245h2.073Zm-38.355,0H6.323V51.245H8.4ZM10.47,63.684V60.706a4.162,4.162,0,0,1,2.979,2.979Zm32.135,0H39.626A4.162,4.162,0,0,1,42.6,60.706Zm0-5.1a6.236,6.236,0,0,0-5.1,5.1H15.566a6.236,6.236,0,0,0-5.1-5.1V51.245H21.905a6.22,6.22,0,1,0,9.264,0H42.6Zm-20.214-3.2a4.146,4.146,0,1,1,4.146,4.146A4.151,4.151,0,0,1,22.391,55.391ZM6.323,49.172V47.1H46.751v2.073Z" transform="translate(0 -16)"/>
        <path id="Trazado_987230" data-name="Trazado 987230" d="M372.037,70.513h8.293a1.037,1.037,0,0,0,1.037-1.037V57.037A1.037,1.037,0,0,0,380.33,56h-8.293A1.037,1.037,0,0,0,371,57.037V69.476A1.037,1.037,0,0,0,372.037,70.513Zm5.183-12.439h2.073v2.073H377.22Zm0,4.146h2.073v2.073H377.22Zm0,4.146h2.073v2.073H377.22Zm-4.146-8.293h2.073v2.073h-2.073Zm0,4.146h2.073v2.073h-2.073Zm0,4.146h2.073v2.073h-2.073Z" transform="translate(-332.542 -51.854)"/>
        <path id="Trazado_987231" data-name="Trazado 987231" d="M371,221.183a1.037,1.037,0,0,0,1.037,1.037h8.293a1.037,1.037,0,0,0,1.037-1.037v-4.146A1.037,1.037,0,0,0,380.33,216h-8.293A1.037,1.037,0,0,0,371,217.037Zm2.073-3.11h6.22v2.073h-6.22Z" transform="translate(-332.542 -195.268)"/>
        <path id="Trazado_987232" data-name="Trazado 987232" d="M41,57.037V77.769a1.037,1.037,0,0,0,1.037,1.037H72.1a1.037,1.037,0,0,0,1.037-1.037V57.037A1.037,1.037,0,0,0,72.1,56H42.037A1.037,1.037,0,0,0,41,57.037Zm6.22,1.037H71.062V76.732H47.22Zm-4.146,0h2.073V76.732H43.073Z" transform="translate(-36.75 -51.854)"/>
        <ellipse id="Elipse_11789" data-name="Elipse 11789" cx="1.619" cy="1.079" rx="1.619" ry="1.079" transform="translate(25.005 0.115)"/>
      </g>
    </g>
  </g>
</svg>
