<svg xmlns="http://www.w3.org/2000/svg" xmlns:xlink="http://www.w3.org/1999/xlink" width="108" height="108" viewBox="0 0 108 108">
  <defs>
    <filter id="Fondo" x="0" y="0" width="108" height="108" filterUnits="userSpaceOnUse">
      <feOffset dy="3" input="SourceAlpha"/>
      <feGaussianBlur stdDeviation="3" result="blur"/>
      <feFlood flood-opacity="0.161"/>
      <feComposite operator="in" in2="blur"/>
      <feComposite in="SourceGraphic"/>
    </filter>
    <clipPath id="clip-path">
      <rect id="Rectángulo_408526" data-name="Rectángulo 408526" width="64.695" height="51.212" fill="none"/>
    </clipPath>
  </defs>
  <g id="Icono" transform="translate(8.5 -689)">
    <g transform="matrix(1, 0, 0, 1, -8.5, 689)" filter="url(#Fondo)">
      <g id="Fondo-2" data-name="Fondo" transform="translate(9 6)" fill="#e6d567">
        <path d="M 45 88.5 C 39.12687683105469 88.5 33.43022537231445 87.35007476806641 28.06830024719238 85.08217620849609 C 22.88852500915527 82.89131164550781 18.23629951477051 79.75458526611328 14.2408504486084 75.75914764404297 C 10.24541282653809 71.76370239257812 7.108687400817871 67.11147308349609 4.917825222015381 61.93170166015625 C 2.649924993515015 56.56977462768555 1.5 50.87312316894531 1.5 45 C 1.5 39.12687683105469 2.649924993515015 33.43022537231445 4.917825222015381 28.06830024719238 C 7.108687400817871 22.88852500915527 10.24541282653809 18.23629951477051 14.2408504486084 14.2408504486084 C 18.23629951477051 10.24541282653809 22.88852500915527 7.108687400817871 28.06830024719238 4.917825222015381 C 33.43022537231445 2.649924993515015 39.12687683105469 1.5 45 1.5 C 50.87312316894531 1.5 56.56977462768555 2.649924993515015 61.93170166015625 4.917825222015381 C 67.11147308349609 7.108687400817871 71.76370239257812 10.24541282653809 75.75914764404297 14.2408504486084 C 79.75458526611328 18.23629951477051 82.89131164550781 22.88852500915527 85.08217620849609 28.06830024719238 C 87.35007476806641 33.43022537231445 88.5 39.12687683105469 88.5 45 C 88.5 50.87312316894531 87.35007476806641 56.56977462768555 85.08217620849609 61.93170166015625 C 82.89131164550781 67.11147308349609 79.75458526611328 71.76370239257812 75.75914764404297 75.75914764404297 C 71.76370239257812 79.75458526611328 67.11147308349609 82.89131164550781 61.93170166015625 85.08217620849609 C 56.56977462768555 87.35007476806641 50.87312316894531 88.5 45 88.5 Z" stroke="none"/>
        <path d="M 45 3 C 39.32871246337891 3 33.82865524291992 4.110054016113281 28.65262985229492 6.299339294433594 C 23.65165710449219 8.414573669433594 19.15968322753906 11.44334411621094 15.301513671875 15.301513671875 C 11.44334411621094 19.15968322753906 8.414573669433594 23.65165710449219 6.299339294433594 28.65262985229492 C 4.110054016113281 33.82865524291992 3 39.32871246337891 3 45 C 3 50.67128753662109 4.110054016113281 56.17134475708008 6.299339294433594 61.34737396240234 C 8.414573669433594 66.34834289550781 11.44334411621094 70.84031677246094 15.301513671875 74.698486328125 C 19.15968322753906 78.55665588378906 23.65165710449219 81.58542633056641 28.65262985229492 83.70066070556641 C 33.82865524291992 85.88994598388672 39.32871246337891 87 45 87 C 50.67128753662109 87 56.17134475708008 85.88994598388672 61.34737396240234 83.70066070556641 C 66.34834289550781 81.58542633056641 70.84031677246094 78.55665588378906 74.698486328125 74.698486328125 C 78.55665588378906 70.84031677246094 81.58542633056641 66.34834289550781 83.70066070556641 61.34737396240234 C 85.88994598388672 56.17134475708008 87 50.67128753662109 87 45 C 87 39.32871246337891 85.88994598388672 33.82865524291992 83.70066070556641 28.65262985229492 C 81.58542633056641 23.65165710449219 78.55665588378906 19.15968322753906 74.698486328125 15.301513671875 C 70.84031677246094 11.44334411621094 66.34834289550781 8.414573669433594 61.34737396240234 6.299339294433594 C 56.17134475708008 4.110054016113281 50.67128753662109 3 45 3 M 45 0 C 69.85281372070312 0 90 20.14718627929688 90 45 C 90 69.85281372070312 69.85281372070312 90 45 90 C 20.14718627929688 90 0 69.85281372070312 0 45 C 0 20.14718627929688 20.14718627929688 0 45 0 Z" stroke="none" fill="#bca724"/>
      </g>
    </g>
    <g id="Grupo_1151956" data-name="Grupo 1151956" transform="translate(13.391 716.954)">
      <rect id="Rectángulo_408524" data-name="Rectángulo 408524" width="41.191" height="24.235" transform="translate(19.514 1.38)" fill="#7be03e"/>
      <g id="Grupo_1151957" data-name="Grupo 1151957">
        <g id="Grupo_1151956-2" data-name="Grupo 1151956" clip-path="url(#clip-path)">
          <path id="Trazado_987238" data-name="Trazado 987238" d="M171.192,72.262c-5.314,5.36-17.75,13.775-41.191,9.576V87.03h41.191Z" transform="translate(-110.487 -61.415)" fill="#4d8c24"/>
          <path id="Trazado_987239" data-name="Trazado 987239" d="M229.536,45.632a7.822,7.822,0,1,1-7.822-7.822,7.822,7.822,0,0,1,7.822,7.822" transform="translate(-181.785 -32.134)" fill="#fced32"/>
          <path id="Trazado_987240" data-name="Trazado 987240" d="M226.812,67.894a7.82,7.82,0,0,0,12.056-9.952c-.62,2.689-3,8.514-12.056,9.952" transform="translate(-192.765 -49.244)" fill="#f9c932"/>
          <rect id="Rectángulo_408525" data-name="Rectángulo 408525" width="9.339" height="20.145" transform="translate(1.165 23.967)" fill="#ef3d3a"/>
          <path id="Trazado_987241" data-name="Trazado 987241" d="M17.1,208.69c-1.967,2.784-5.487,6.822-9.339,6.8v5.989H17.1Z" transform="translate(-6.593 -177.364)" fill="#d82121"/>
          <path id="Trazado_987242" data-name="Trazado 987242" d="M70.306,164.982a28.025,28.025,0,0,0,7.933-1.35c3.557-1.3,5.423-1.994,5.423-1.994L98.578,170.6s3.087,3.639-.912,6.313l1.809.018,18.436-7.112s3.5-1.5,5.135,1.443-1.511,4.9-1.511,4.9L93.088,187.537l-17.672-8.176-5.109-.6Z" transform="translate(-59.752 -137.375)" fill="#fbd1a6"/>
          <path id="Trazado_987243" data-name="Trazado 987243" d="M117.911,213.941l-17.65,6.809c-.335.454-.781.683-2.177.29l-.418,0,.122-.084a82.349,82.349,0,0,1-9.96-4.543,19.336,19.336,0,0,0-17.521-.436v6.911l5.109.6,17.673,8.176,28.447-11.376s3.143-1.959,1.511-4.9-5.135-1.443-5.135-1.443" transform="translate(-59.752 -181.501)" fill="#f9b390"/>
          <path id="Trazado_987244" data-name="Trazado 987244" d="M252.045,66.38H253.7V65.3h1.493V60.651H252.2V59.417h1.336v.521h1.651V57.765H253.7V56.69h-1.651v1.075h-1.494V62.3h2.987v1.351H252.2v-.446h-1.651v2.1h1.494Z" transform="translate(-212.941 -48.18)" fill="#050505"/>
          <path id="Trazado_987245" data-name="Trazado 987245" d="M149.734,43.132a3.851,3.851,0,0,1,3.846,3.846.976.976,0,0,0,.976.976h3.979V46H155.45a5.814,5.814,0,0,0-4.74-4.74V37.007a5.77,5.77,0,0,0,4.7-4.7h3.129V30.359h-4.022a.976.976,0,0,0-.976.976,3.808,3.808,0,0,1-3.8,3.8.976.976,0,0,0-.976.976v6.043a.976.976,0,0,0,.976.976" transform="translate(-126.428 -25.802)" fill="#050505"/>
          <path id="Trazado_987246" data-name="Trazado 987246" d="M325.935,37.05v4.213a5.814,5.814,0,0,0-4.74,4.74h-3.086v1.951h3.979a.976.976,0,0,0,.976-.976,3.851,3.851,0,0,1,3.847-3.846.976.976,0,0,0,.976-.976v-6a.976.976,0,0,0-.976-.976,3.851,3.851,0,0,1-3.847-3.846.976.976,0,0,0-.976-.976h-3.6V32.31h2.7a5.814,5.814,0,0,0,4.74,4.74" transform="translate(-270.358 -25.802)" fill="#050505"/>
          <path id="Trazado_987247" data-name="Trazado 987247" d="M216.191,47.954a8.8,8.8,0,1,0-8.8-8.8,8.808,8.808,0,0,0,8.8,8.8m0-15.644a6.846,6.846,0,1,1-6.846,6.846,6.854,6.854,0,0,1,6.846-6.846" transform="translate(-176.261 -25.802)" fill="#050505"/>
          <path id="Trazado_987248" data-name="Trazado 987248" d="M368.078,35.93a.906.906,0,0,0,.168.09.988.988,0,0,0,.183.056.941.941,0,0,0,.381,0,1.025,1.025,0,0,0,.183-.056.99.99,0,0,0,.317-.212.977.977,0,0,0,0-1.38.954.954,0,0,0-.317-.21.916.916,0,0,0-.183-.056.959.959,0,0,0-.381,0,.886.886,0,0,0-.183.056,1,1,0,0,0-.168.089.965.965,0,0,0-.27.27.989.989,0,0,0-.089.168.887.887,0,0,0-.056.183.9.9,0,0,0-.02.191.977.977,0,0,0,.285.689.889.889,0,0,0,.149.122" transform="translate(-312.457 -29.019)" fill="#050505"/>
          <path id="Trazado_987249" data-name="Trazado 987249" d="M369.162,129.129a.955.955,0,0,0-.168-.09,1.026,1.026,0,0,0-.183-.056.959.959,0,0,0-.381,0,.989.989,0,0,0-.183.056.9.9,0,0,0-.168.09.881.881,0,0,0-.149.12,1.046,1.046,0,0,0-.122.149.989.989,0,0,0-.089.168,1,1,0,0,0-.075.374.983.983,0,0,0,.285.69.881.881,0,0,0,.149.12.905.905,0,0,0,.168.09.988.988,0,0,0,.183.056.94.94,0,0,0,.381,0,1.025,1.025,0,0,0,.183-.056,1.018,1.018,0,0,0,.317-.21.979.979,0,0,0,0-1.381.949.949,0,0,0-.149-.12" transform="translate(-312.457 -109.606)" fill="#050505"/>
          <path id="Trazado_987250" data-name="Trazado 987250" d="M148.9,35.493a.924.924,0,0,0,.09.17,1.025,1.025,0,0,0,.12.147.982.982,0,0,0,.317.212,1.039,1.039,0,0,0,.183.056.913.913,0,0,0,.191.019.984.984,0,0,0,.691-.287,1.036,1.036,0,0,0,.122-.147,1.019,1.019,0,0,0,.089-.17.873.873,0,0,0,.056-.181.915.915,0,0,0,.02-.191.9.9,0,0,0-.02-.191.863.863,0,0,0-.056-.183,1,1,0,0,0-.089-.168.957.957,0,0,0-.122-.149.972.972,0,0,0-.149-.122,1.008,1.008,0,0,0-.168-.089.906.906,0,0,0-.183-.056.965.965,0,0,0-.381,0,.937.937,0,0,0-.183.056,1.071,1.071,0,0,0-.168.089,1.051,1.051,0,0,0-.149.122.948.948,0,0,0-.12.149.909.909,0,0,0-.09.168.958.958,0,0,0-.056.183,1.015,1.015,0,0,0-.02.191,1.028,1.028,0,0,0,.02.191.972.972,0,0,0,.056.181" transform="translate(-126.484 -29.02)" fill="#050505"/>
          <path id="Trazado_987251" data-name="Trazado 987251" d="M150.343,129.129a.9.9,0,0,0-.168-.09.991.991,0,0,0-.183-.056.959.959,0,0,0-.381,0,1.027,1.027,0,0,0-.183.056,1.018,1.018,0,0,0-.317.21.99.99,0,0,0-.285.691,1,1,0,0,0,.075.374.9.9,0,0,0,.09.168,1.037,1.037,0,0,0,.12.149.946.946,0,0,0,.149.12.956.956,0,0,0,.168.09,1.026,1.026,0,0,0,.183.056.913.913,0,0,0,.191.02.983.983,0,0,0,.691-.285,1.051,1.051,0,0,0,.122-.149,1,1,0,0,0,.089-.168,1,1,0,0,0,.075-.374.984.984,0,0,0-.285-.691.882.882,0,0,0-.149-.12" transform="translate(-126.485 -109.606)" fill="#050505"/>
          <path id="Trazado_987252" data-name="Trazado 987252" d="M65.5,36.33A4.6,4.6,0,0,0,59.5,33.576l-17.887,6.9a5.6,5.6,0,0,0-2.431-6.811l-8.743-5.072H62.75V2.692h-43.5V27.617h.006a27.213,27.213,0,0,1-6.7,1.26v-3.6H1.258v22.41h11.29V44.431a16.244,16.244,0,0,1,6.214,1.748c9.554,4.918,15.231,7.158,15.287,7.18l.359.141L62.866,42.142A4.588,4.588,0,0,0,65.5,36.33M60.8,4.643v22H27.079l-2.01-1.166L21.2,26.922V4.643ZM10.6,45.738H3.209V27.231H10.6Zm51.545-5.409L34.407,51.4c-1.369-.56-6.64-2.78-14.752-6.955a18.206,18.206,0,0,0-7.107-1.97V30.832a29.194,29.194,0,0,0,8.6-1.806l3.744-1.4,13.318,7.727a3.645,3.645,0,0,1,1.23,5.134.823.823,0,0,1-1.073.285l-8.406-4.35-1.834-.949-.9,1.733L30.494,38.9l6.973,3.608h0l1.841.953,20.9-8.062a2.65,2.65,0,0,1,1.936,4.933" transform="translate(-1.069 -2.288)" fill="#050505"/>
          <path id="Trazado_987253" data-name="Trazado 987253" d="M55.753,41.048l1.99-1.99v12.08h1.951V39.058l1.99,1.99,1.38-1.38-4.345-4.345-4.345,4.345Z" transform="translate(-46.211 -30.02)" fill="#050505"/>
          <path id="Trazado_987254" data-name="Trazado 987254" d="M3.37,3.736v12.08H5.321V3.736l1.99,1.99,1.38-1.38L4.346,0,0,4.345l1.38,1.38Z" transform="translate(0 0)" fill="#050505"/>
        </g>
      </g>
    </g>
  </g>
</svg>
