<svg xmlns="http://www.w3.org/2000/svg" xmlns:xlink="http://www.w3.org/1999/xlink" width="108" height="108" viewBox="0 0 108 108">
  <defs>
    <filter id="Fondo" x="0" y="0" width="108" height="108" filterUnits="userSpaceOnUse">
      <feOffset dy="3" input="SourceAlpha"/>
      <feGaussianBlur stdDeviation="3" result="blur"/>
      <feFlood flood-opacity="0.161"/>
      <feComposite operator="in" in2="blur"/>
      <feComposite in="SourceGraphic"/>
    </filter>
    <clipPath id="clip-path">
      <rect id="Rectángulo_408536" data-name="Rectángulo 408536" width="55.934" height="49.919" fill="none"/>
    </clipPath>
  </defs>
  <g id="Icono" transform="translate(8.5 -689)">
    <g transform="matrix(1, 0, 0, 1, -8.5, 689)" filter="url(#Fondo)">
      <g id="Fondo-2" data-name="Fondo" transform="translate(9 6)" fill="#e6d567">
        <path d="M 45 88.5 C 39.12687683105469 88.5 33.43022537231445 87.35007476806641 28.06830024719238 85.08217620849609 C 22.88852500915527 82.89131164550781 18.23629951477051 79.75458526611328 14.2408504486084 75.75914764404297 C 10.24541282653809 71.76370239257812 7.108687400817871 67.11147308349609 4.917825222015381 61.93170166015625 C 2.649924993515015 56.56977462768555 1.5 50.87312316894531 1.5 45 C 1.5 39.12687683105469 2.649924993515015 33.43022537231445 4.917825222015381 28.06830024719238 C 7.108687400817871 22.88852500915527 10.24541282653809 18.23629951477051 14.2408504486084 14.2408504486084 C 18.23629951477051 10.24541282653809 22.88852500915527 7.108687400817871 28.06830024719238 4.917825222015381 C 33.43022537231445 2.649924993515015 39.12687683105469 1.5 45 1.5 C 50.87312316894531 1.5 56.56977462768555 2.649924993515015 61.93170166015625 4.917825222015381 C 67.11147308349609 7.108687400817871 71.76370239257812 10.24541282653809 75.75914764404297 14.2408504486084 C 79.75458526611328 18.23629951477051 82.89131164550781 22.88852500915527 85.08217620849609 28.06830024719238 C 87.35007476806641 33.43022537231445 88.5 39.12687683105469 88.5 45 C 88.5 50.87312316894531 87.35007476806641 56.56977462768555 85.08217620849609 61.93170166015625 C 82.89131164550781 67.11147308349609 79.75458526611328 71.76370239257812 75.75914764404297 75.75914764404297 C 71.76370239257812 79.75458526611328 67.11147308349609 82.89131164550781 61.93170166015625 85.08217620849609 C 56.56977462768555 87.35007476806641 50.87312316894531 88.5 45 88.5 Z" stroke="none"/>
        <path d="M 45 3 C 39.32871246337891 3 33.82865524291992 4.110054016113281 28.65262985229492 6.299339294433594 C 23.65165710449219 8.414573669433594 19.15968322753906 11.44334411621094 15.301513671875 15.301513671875 C 11.44334411621094 19.15968322753906 8.414573669433594 23.65165710449219 6.299339294433594 28.65262985229492 C 4.110054016113281 33.82865524291992 3 39.32871246337891 3 45 C 3 50.67128753662109 4.110054016113281 56.17134475708008 6.299339294433594 61.34737396240234 C 8.414573669433594 66.34834289550781 11.44334411621094 70.84031677246094 15.301513671875 74.698486328125 C 19.15968322753906 78.55665588378906 23.65165710449219 81.58542633056641 28.65262985229492 83.70066070556641 C 33.82865524291992 85.88994598388672 39.32871246337891 87 45 87 C 50.67128753662109 87 56.17134475708008 85.88994598388672 61.34737396240234 83.70066070556641 C 66.34834289550781 81.58542633056641 70.84031677246094 78.55665588378906 74.698486328125 74.698486328125 C 78.55665588378906 70.84031677246094 81.58542633056641 66.34834289550781 83.70066070556641 61.34737396240234 C 85.88994598388672 56.17134475708008 87 50.67128753662109 87 45 C 87 39.32871246337891 85.88994598388672 33.82865524291992 83.70066070556641 28.65262985229492 C 81.58542633056641 23.65165710449219 78.55665588378906 19.15968322753906 74.698486328125 15.301513671875 C 70.84031677246094 11.44334411621094 66.34834289550781 8.414573669433594 61.34737396240234 6.299339294433594 C 56.17134475708008 4.110054016113281 50.67128753662109 3 45 3 M 45 0 C 69.85281372070312 0 90 20.14718627929688 90 45 C 90 69.85281372070312 69.85281372070312 90 45 90 C 20.14718627929688 90 0 69.85281372070312 0 45 C 0 20.14718627929688 20.14718627929688 0 45 0 Z" stroke="none" fill="#bca724"/>
      </g>
    </g>
    <g id="Grupo_1151958" data-name="Grupo 1151958" transform="translate(18.391 715.104)">
      <g id="Grupo_1151958-2" data-name="Grupo 1151958" clip-path="url(#clip-path)">
        <path id="Trazado_987255" data-name="Trazado 987255" d="M62.606,45.391H51.6v6.845L50.36,54.293l-2.643.418-1.908-1.4-.54-1.63V9.382l-1.423-2.36.232-.522h32.3s2.685.3,3.113,4.016V36.921H62.966Z" transform="translate(-38.087 -5.646)" fill="#f2f2f2"/>
        <path id="Trazado_987256" data-name="Trazado 987256" d="M61.006,272.639v-6.845H72.014l.237-5.561A38.752,38.752,0,0,1,54.678,262.8v9.294l.54,1.63,1.908,1.4,2.643-.418Z" transform="translate(-47.496 -226.05)" fill="#ccc"/>
        <path id="Trazado_987257" data-name="Trazado 987257" d="M238.673,197.012H248.73V190.8a76.18,76.18,0,0,1-10.057,6.212" transform="translate(-207.322 -165.737)" fill="#ccc"/>
        <rect id="Rectángulo_408527" data-name="Rectángulo 408527" width="29.665" height="17.502" transform="translate(25.046 31.563)" fill="#7be03e"/>
        <path id="Trazado_987258" data-name="Trazado 987258" d="M325.87,303.562V292.983c-2.647,3.475-7.3,8.373-13.705,10.579Z" transform="translate(-271.16 -254.498)" fill="#4d8c24"/>
        <path id="Trazado_987259" data-name="Trazado 987259" d="M272.116,269.435a5.7,5.7,0,1,1-5.7-5.7,5.7,5.7,0,0,1,5.7,5.7" transform="translate(-226.473 -229.093)" fill="#fced32"/>
        <path id="Trazado_987260" data-name="Trazado 987260" d="M10.3,8.147h0A2.958,2.958,0,0,0,7.345,11.1V19.23h5.916V11.1A2.958,2.958,0,0,0,10.3,8.147" transform="translate(-6.38 -7.077)" fill="#ccc"/>
        <path id="Trazado_987261" data-name="Trazado 987261" d="M91.531,302.6H102.78v9.374H89.489s1.756-1.775,1.756-2.534v-5.674Z" transform="translate(-77.734 -262.848)" fill="#f2f2f2"/>
        <path id="Trazado_987262" data-name="Trazado 987262" d="M102.781,322.234v-7.822a15.764,15.764,0,0,1-11.535,4.973v.316c0,.758-1.756,2.533-1.756,2.533Z" transform="translate(-77.735 -273.112)" fill="#ccc"/>
        <path id="Trazado_987263" data-name="Trazado 987263" d="M271.474,287.747a5.7,5.7,0,0,0,8.783-7.25c-.452,1.959-2.188,6.2-8.783,7.25" transform="translate(-235.814 -243.652)" fill="#f9c932"/>
        <path id="Trazado_987264" data-name="Trazado 987264" d="M95.141,55.827h1.708V54.244h1.915V48.687h-3.83V46.694h2.122v.873h1.708v-2.58H96.848V43.4H95.141v1.583H93.226v5.408h3.83v2.142H94.933V51.76H93.226v2.484h1.915Z" transform="translate(-80.98 -37.702)" fill="#050505"/>
        <path id="Trazado_987265" data-name="Trazado 987265" d="M42.262,30.764V4.87A4.875,4.875,0,0,0,37.392,0H4.018A4.022,4.022,0,0,0,0,4.018v8.749H6.328V45.9a4.022,4.022,0,0,0,4.018,4.018H55.934V30.764ZM1.708,11.059V4.018a2.31,2.31,0,0,1,4.621,0v7.042ZM8.036,45.9V4.018A3.994,3.994,0,0,0,7.3,1.708h30.09A3.166,3.166,0,0,1,40.554,4.87V30.764h-16.6V38.6h-11.3v7.3a2.31,2.31,0,1,1-4.621,0m5.595,2.31a3.994,3.994,0,0,0,.734-2.31V40.312h9.592v7.9Zm40.6,0H25.664V32.472H54.226Z" fill="#050505"/>
        <path id="Trazado_987266" data-name="Trazado 987266" d="M206.263,266.828a2.662,2.662,0,0,1,2.659,2.659.854.854,0,0,0,.854.854h2.9v-1.708h-2.129a4.38,4.38,0,0,0-3.429-3.429v-2.862a4.349,4.349,0,0,0,3.4-3.4h2.161v-1.708h-2.93a.854.854,0,0,0-.854.854,2.63,2.63,0,0,1-2.628,2.628.854.854,0,0,0-.854.854v4.4a.854.854,0,0,0,.854.854" transform="translate(-178.427 -223.447)" fill="#050505"/>
        <path id="Trazado_987267" data-name="Trazado 987267" d="M353.033,262.373v2.83a4.38,4.38,0,0,0-3.429,3.429h-2.129v1.708h2.9a.854.854,0,0,0,.854-.854,2.662,2.662,0,0,1,2.659-2.659.854.854,0,0,0,.854-.854V261.6a.854.854,0,0,0-.854-.854,2.662,2.662,0,0,1-2.659-2.659.854.854,0,0,0-.854-.854h-2.62v1.708h1.85a4.38,4.38,0,0,0,3.429,3.429" transform="translate(-301.832 -223.446)" fill="#050505"/>
        <path id="Trazado_987268" data-name="Trazado 987268" d="M260.771,270.34a6.552,6.552,0,1,0-6.552-6.552,6.559,6.559,0,0,0,6.552,6.552m0-11.4a4.844,4.844,0,1,1-4.844,4.844,4.85,4.85,0,0,1,4.844-4.844" transform="translate(-220.826 -223.447)" fill="#050505"/>
        <path id="Trazado_987269" data-name="Trazado 987269" d="M387.684,261.564a.8.8,0,0,0,.079.147.781.781,0,0,0,.106.13.909.909,0,0,0,.129.106,1,1,0,0,0,.148.079.97.97,0,0,0,.159.049.9.9,0,0,0,.167.016.887.887,0,0,0,.167-.016.945.945,0,0,0,.16-.049.992.992,0,0,0,.147-.079.845.845,0,0,0,.236-.236.876.876,0,0,0,.077-.147.839.839,0,0,0,.05-.16.885.885,0,0,0,.016-.167.9.9,0,0,0-.016-.167.856.856,0,0,0-.05-.159.876.876,0,0,0-.077-.147.845.845,0,0,0-.236-.236.881.881,0,0,0-.147-.079.855.855,0,0,0-.494-.049.852.852,0,0,0-.159.049.892.892,0,0,0-.148.079.907.907,0,0,0-.129.106.781.781,0,0,0-.106.13.8.8,0,0,0-.079.147.854.854,0,0,0-.049.159.9.9,0,0,0-.017.167.886.886,0,0,0,.017.167.837.837,0,0,0,.049.16" transform="translate(-336.702 -226.18)" fill="#050505"/>
        <path id="Trazado_987270" data-name="Trazado 987270" d="M389.26,339.848a.876.876,0,0,0-.077-.147.845.845,0,0,0-.236-.236.871.871,0,0,0-.147-.078.836.836,0,0,0-.16-.05.889.889,0,0,0-.334,0,.854.854,0,0,0-.159.05.881.881,0,0,0-.148.078.905.905,0,0,0-.129.106.78.78,0,0,0-.106.13.8.8,0,0,0-.079.147.837.837,0,0,0-.049.16.886.886,0,0,0-.017.167.9.9,0,0,0,.017.167.854.854,0,0,0,.049.159.805.805,0,0,0,.079.148.884.884,0,0,0,.235.235.8.8,0,0,0,.148.079.855.855,0,0,0,.159.049.9.9,0,0,0,.167.017.888.888,0,0,0,.167-.017.837.837,0,0,0,.16-.049.791.791,0,0,0,.147-.079.777.777,0,0,0,.13-.106.908.908,0,0,0,.106-.129.887.887,0,0,0,.077-.148.856.856,0,0,0,.05-.159.9.9,0,0,0,.016-.167.885.885,0,0,0-.016-.167.839.839,0,0,0-.05-.16" transform="translate(-336.702 -294.749)" fill="#050505"/>
        <path id="Trazado_987271" data-name="Trazado 987271" d="M205.534,261.564a.871.871,0,0,0,.077.147.845.845,0,0,0,.106.13.853.853,0,0,0,.13.106.99.99,0,0,0,.147.079.941.941,0,0,0,.16.049.887.887,0,0,0,.167.016.9.9,0,0,0,.167-.016.968.968,0,0,0,.159-.049,1,1,0,0,0,.148-.079.92.92,0,0,0,.129-.106.78.78,0,0,0,.106-.13.8.8,0,0,0,.079-.147.846.846,0,0,0,.049-.16.791.791,0,0,0,.017-.167.8.8,0,0,0-.017-.167.863.863,0,0,0-.049-.159.8.8,0,0,0-.079-.147.78.78,0,0,0-.106-.13.918.918,0,0,0-.129-.106.892.892,0,0,0-.148-.079.851.851,0,0,0-.159-.049.855.855,0,0,0-.494.049.88.88,0,0,0-.147.079.844.844,0,0,0-.236.236.871.871,0,0,0-.077.147.847.847,0,0,0-.05.159.885.885,0,0,0-.016.167.875.875,0,0,0,.016.167.83.83,0,0,0,.05.16" transform="translate(-178.478 -226.18)" fill="#050505"/>
        <path id="Trazado_987272" data-name="Trazado 987272" d="M207.11,339.848a.8.8,0,0,0-.079-.147.779.779,0,0,0-.106-.13.916.916,0,0,0-.129-.106.882.882,0,0,0-.148-.078.853.853,0,0,0-.159-.05.889.889,0,0,0-.334,0,.833.833,0,0,0-.16.05.869.869,0,0,0-.147.078.844.844,0,0,0-.236.236.871.871,0,0,0-.077.147.83.83,0,0,0-.05.16.875.875,0,0,0-.016.167.885.885,0,0,0,.016.167.847.847,0,0,0,.05.159.883.883,0,0,0,.077.148.9.9,0,0,0,.106.129.777.777,0,0,0,.13.106.79.79,0,0,0,.147.079.834.834,0,0,0,.16.049.888.888,0,0,0,.167.017.9.9,0,0,0,.167-.017.853.853,0,0,0,.159-.049.8.8,0,0,0,.148-.079.882.882,0,0,0,.235-.235.805.805,0,0,0,.079-.148.863.863,0,0,0,.049-.159.8.8,0,0,0,.017-.167.791.791,0,0,0-.017-.167.846.846,0,0,0-.049-.16" transform="translate(-178.478 -294.749)" fill="#050505"/>
        <path id="Trazado_987273" data-name="Trazado 987273" d="M293.478,285.409h1.051v-.977h1.18v-3.424h-2.361v-1.23h1.31v.539h1.051v-1.59h-1.18v-.977h-1.051v.977H292.3v3.332h2.361v1.322h-1.31V282.9H292.3v1.53h1.18Z" transform="translate(-253.902 -241.266)" fill="#050505"/>
        <rect id="Rectángulo_408528" data-name="Rectángulo 408528" width="2.349" height="1.708" transform="translate(33.597 7.285)" fill="#050505"/>
        <rect id="Rectángulo_408529" data-name="Rectángulo 408529" width="9.105" height="1.708" transform="translate(21.694 7.285)" fill="#050505"/>
        <rect id="Rectángulo_408530" data-name="Rectángulo 408530" width="14.251" height="1.708" transform="translate(21.694 11.816)" fill="#050505"/>
        <rect id="Rectángulo_408531" data-name="Rectángulo 408531" width="14.251" height="1.708" transform="translate(21.694 16.347)" fill="#050505"/>
        <rect id="Rectángulo_408532" data-name="Rectángulo 408532" width="3.774" height="1.708" transform="translate(32.171 21.34)" fill="#050505"/>
        <rect id="Rectángulo_408533" data-name="Rectángulo 408533" width="16.204" height="1.708" transform="translate(12.273 21.34)" fill="#050505"/>
        <rect id="Rectángulo_408534" data-name="Rectángulo 408534" width="16.811" height="1.708" transform="translate(19.134 26.052)" fill="#050505"/>
        <rect id="Rectángulo_408535" data-name="Rectángulo 408535" width="3.431" height="1.708" transform="translate(12.273 26.052)" fill="#050505"/>
      </g>
    </g>
  </g>
</svg>
