<svg xmlns="http://www.w3.org/2000/svg" xmlns:xlink="http://www.w3.org/1999/xlink" width="108" height="108" viewBox="0 0 108 108">
  <defs>
    <filter id="Fondo" x="0" y="0" width="108" height="108" filterUnits="userSpaceOnUse">
      <feOffset dy="3" input="SourceAlpha"/>
      <feGaussianBlur stdDeviation="3" result="blur"/>
      <feFlood flood-opacity="0.161"/>
      <feComposite operator="in" in2="blur"/>
      <feComposite in="SourceGraphic"/>
    </filter>
    <clipPath id="clip-path">
      <rect id="Rectángulo_408549" data-name="Rectángulo 408549" width="57.547" height="60.33" fill="none"/>
    </clipPath>
  </defs>
  <g id="Icono" transform="translate(8.5 -689)">
    <g transform="matrix(1, 0, 0, 1, -8.5, 689)" filter="url(#Fondo)">
      <g id="Fondo-2" data-name="Fondo" transform="translate(9 6)" fill="#e6d567">
        <path d="M 45 88.5 C 39.12687683105469 88.5 33.43022537231445 87.35007476806641 28.06830024719238 85.08217620849609 C 22.88852500915527 82.89131164550781 18.23629951477051 79.75458526611328 14.2408504486084 75.75914764404297 C 10.24541282653809 71.76370239257812 7.108687400817871 67.11147308349609 4.917825222015381 61.93170166015625 C 2.649924993515015 56.56977462768555 1.5 50.87312316894531 1.5 45 C 1.5 39.12687683105469 2.649924993515015 33.43022537231445 4.917825222015381 28.06830024719238 C 7.108687400817871 22.88852500915527 10.24541282653809 18.23629951477051 14.2408504486084 14.2408504486084 C 18.23629951477051 10.24541282653809 22.88852500915527 7.108687400817871 28.06830024719238 4.917825222015381 C 33.43022537231445 2.649924993515015 39.12687683105469 1.5 45 1.5 C 50.87312316894531 1.5 56.56977462768555 2.649924993515015 61.93170166015625 4.917825222015381 C 67.11147308349609 7.108687400817871 71.76370239257812 10.24541282653809 75.75914764404297 14.2408504486084 C 79.75458526611328 18.23629951477051 82.89131164550781 22.88852500915527 85.08217620849609 28.06830024719238 C 87.35007476806641 33.43022537231445 88.5 39.12687683105469 88.5 45 C 88.5 50.87312316894531 87.35007476806641 56.56977462768555 85.08217620849609 61.93170166015625 C 82.89131164550781 67.11147308349609 79.75458526611328 71.76370239257812 75.75914764404297 75.75914764404297 C 71.76370239257812 79.75458526611328 67.11147308349609 82.89131164550781 61.93170166015625 85.08217620849609 C 56.56977462768555 87.35007476806641 50.87312316894531 88.5 45 88.5 Z" stroke="none"/>
        <path d="M 45 3 C 39.32871246337891 3 33.82865524291992 4.110054016113281 28.65262985229492 6.299339294433594 C 23.65165710449219 8.414573669433594 19.15968322753906 11.44334411621094 15.301513671875 15.301513671875 C 11.44334411621094 19.15968322753906 8.414573669433594 23.65165710449219 6.299339294433594 28.65262985229492 C 4.110054016113281 33.82865524291992 3 39.32871246337891 3 45 C 3 50.67128753662109 4.110054016113281 56.17134475708008 6.299339294433594 61.34737396240234 C 8.414573669433594 66.34834289550781 11.44334411621094 70.84031677246094 15.301513671875 74.698486328125 C 19.15968322753906 78.55665588378906 23.65165710449219 81.58542633056641 28.65262985229492 83.70066070556641 C 33.82865524291992 85.88994598388672 39.32871246337891 87 45 87 C 50.67128753662109 87 56.17134475708008 85.88994598388672 61.34737396240234 83.70066070556641 C 66.34834289550781 81.58542633056641 70.84031677246094 78.55665588378906 74.698486328125 74.698486328125 C 78.55665588378906 70.84031677246094 81.58542633056641 66.34834289550781 83.70066070556641 61.34737396240234 C 85.88994598388672 56.17134475708008 87 50.67128753662109 87 45 C 87 39.32871246337891 85.88994598388672 33.82865524291992 83.70066070556641 28.65262985229492 C 81.58542633056641 23.65165710449219 78.55665588378906 19.15968322753906 74.698486328125 15.301513671875 C 70.84031677246094 11.44334411621094 66.34834289550781 8.414573669433594 61.34737396240234 6.299339294433594 C 56.17134475708008 4.110054016113281 50.67128753662109 3 45 3 M 45 0 C 69.85281372070312 0 90 20.14718627929688 90 45 C 90 69.85281372070312 69.85281372070312 90 45 90 C 20.14718627929688 90 0 69.85281372070312 0 45 C 0 20.14718627929688 20.14718627929688 0 45 0 Z" stroke="none" fill="#bca724"/>
      </g>
    </g>
    <g id="Grupo_1151960" data-name="Grupo 1151960" transform="translate(17.59 710.033)">
      <g id="Grupo_1151960-2" data-name="Grupo 1151960" clip-path="url(#clip-path)">
        <path id="Trazado_987285" data-name="Trazado 987285" d="M54.986,31.9A23.055,23.055,0,1,1,31.932,8.847,23.055,23.055,0,0,1,54.986,31.9" transform="translate(-7.528 -7.503)" fill="#fece32"/>
        <path id="Trazado_987286" data-name="Trazado 987286" d="M46.938,129.008a23.059,23.059,0,0,0,38.75-23.662c-2.657,7.008-12.059,26.6-38.75,23.662" transform="translate(-39.806 -89.34)" fill="#faaa36"/>
        <path id="Trazado_987287" data-name="Trazado 987287" d="M78.518,60.568A17.919,17.919,0,1,1,60.6,42.649,17.919,17.919,0,0,1,78.518,60.568" transform="translate(-36.195 -36.169)" fill="#fced32"/>
        <path id="Trazado_987288" data-name="Trazado 987288" d="M85.085,166.411a17.917,17.917,0,0,0,29.395-13.76c0-.479-.02-.953-.057-1.422C109.63,158.9,100,169.747,85.085,166.411" transform="translate(-72.158 -128.252)" fill="#f9c932"/>
        <path id="Trazado_987289" data-name="Trazado 987289" d="M178.032,262.057c0,2.6-7.742,4.715-17.292,4.715s-17.292-2.111-17.292-4.715,7.742-4.715,17.292-4.715,17.292,2.111,17.292,4.715" transform="translate(-121.652 -218.243)" fill="#fece32"/>
        <path id="Trazado_987290" data-name="Trazado 987290" d="M213.637,262.355c-1.783,3.327-6.493,7.834-18.929,7.892a54.8,54.8,0,0,0,9.5.776c9.55,0,17.292-2.111,17.292-4.715,0-1.656-3.132-3.112-7.867-3.953" transform="translate(-165.125 -222.494)" fill="#faaa36"/>
        <path id="Trazado_987291" data-name="Trazado 987291" d="M140.563,292.8s5.53,5.459,19.987,4.558,15.311-4.558,15.311-4.558v5.777s-4.309,4.053-17.649,3.89-17.649-4.4-17.649-4.4Z" transform="translate(-119.207 -248.31)" fill="#fece32"/>
        <path id="Trazado_987292" data-name="Trazado 987292" d="M298.19,298.574V292.8s-.5,2.124-7.133,3.533a20.024,20.024,0,0,1-6.25,6.034c10.009-.62,13.382-3.79,13.382-3.79" transform="translate(-241.536 -248.311)" fill="#faaa36"/>
        <path id="Trazado_987293" data-name="Trazado 987293" d="M140.563,329.589s5.53,5.459,19.987,4.558,15.311-4.558,15.311-4.558v5.777s-4.309,4.053-17.649,3.89-17.649-4.4-17.649-4.4Z" transform="translate(-119.207 -279.513)" fill="#fece32"/>
        <path id="Trazado_987294" data-name="Trazado 987294" d="M298.19,335.366v-5.777s-.5,2.124-7.133,3.533a20.025,20.025,0,0,1-6.25,6.034c10.009-.62,13.382-3.79,13.382-3.79" transform="translate(-241.536 -279.513)" fill="#faaa36"/>
        <path id="Trazado_987295" data-name="Trazado 987295" d="M44.616,38.08A24.182,24.182,0,0,0,48.807,24.4,24.4,24.4,0,1,0,20.3,48.462v5.712c0,4.041,9.369,6.155,18.623,6.155s18.623-2.114,18.623-6.155V43.964c0-3.2-5.884-5.194-12.931-5.883m10.956,5.883c0,1.459-5.718,4.18-16.648,4.18s-16.648-2.721-16.648-4.18,5.718-4.18,16.648-4.18,16.648,2.721,16.648,4.18M11.123,35.71a17.442,17.442,0,1,1,24.316,2.2c-6.077.353-11.675,1.631-14,3.78l.016-.093A17.455,17.455,0,0,1,11.123,35.71M5.012,23.416H2A22.343,22.343,0,0,1,7.869,9.266L10,11.4A19.34,19.34,0,0,0,5.012,23.416m38.783,0A19.341,19.341,0,0,0,38.807,11.4l2.131-2.131a22.342,22.342,0,0,1,5.871,14.15ZM37.41,10A19.34,19.34,0,0,0,25.391,5.012V2a22.343,22.343,0,0,1,14.15,5.871ZM23.416,5.012A19.34,19.34,0,0,0,11.4,10L9.266,7.869A22.343,22.343,0,0,1,23.416,2Zm15.508,32.8-.476,0a19.314,19.314,0,0,0,5.346-12.42H46.81A22.211,22.211,0,0,1,42.35,37.857l.071.053c-1.155-.067-2.327-.1-3.5-.1M2,25.391H5.013a19.42,19.42,0,0,0,4.606,11.6c.123.144.248.285.375.425L7.862,39.548c-.171-.187-.34-.376-.505-.569A22.427,22.427,0,0,1,2,25.391M9.259,40.944l2.131-2.131A19.423,19.423,0,0,0,20.364,43.4a2.547,2.547,0,0,0-.063.566v2.493A22.418,22.418,0,0,1,9.259,40.944m29.665,17.41c-10.93,0-16.648-2.721-16.648-4.18V51.992c3.234,2.131,9.97,3.232,16.648,3.232s13.414-1.1,16.648-3.232v2.183c0,1.459-5.718,4.18-16.648,4.18m0-5.106c-10.93,0-16.648-2.721-16.648-4.18V46.887c3.234,2.131,9.97,3.232,16.648,3.232s13.414-1.1,16.648-3.232v2.183c0,1.459-5.718,4.18-16.648,4.18" fill="#050505"/>
        <path id="Trazado_987296" data-name="Trazado 987296" d="M135.382,116.35h1.975V114.3h3.357v-8.724H134v-4.511h4.738V103.1h1.975V99.086h-3.357V97.03h-1.975v2.056h-3.357v8.461h6.713v4.773H134v-1.869h-1.975V114.3h3.357Z" transform="translate(-111.966 -82.288)" fill="#050505"/>
      </g>
    </g>
  </g>
</svg>
