<svg xmlns="http://www.w3.org/2000/svg" width="820" height="249.531" viewBox="0 0 820 249.531">
  <g id="Grupo_1151961" data-name="Grupo 1151961" transform="translate(-390 -2406.755)">
    <g id="Grupo_1151963" data-name="Grupo 1151963">
      <path id="Trazado_986338" data-name="Trazado 986338" d="M8.871,133.554a8.881,8.881,0,0,1-7.68-13.319L68.046,4.439A8.879,8.879,0,0,1,75.735,0h133.71a8.879,8.879,0,0,1,7.689,4.439l66.854,115.8a8.878,8.878,0,1,1-15.377,8.878L204.319,17.756H80.86L16.568,129.113a8.875,8.875,0,0,1-7.7,4.441" transform="translate(390 2406.755)" fill="#a4f1d6"/>
      <path id="Trazado_986339" data-name="Trazado 986339" d="M292.627,120.724H187.164l-52.731,91.333,52.731,91.333H292.627l52.731-91.333Z" transform="translate(292.694 2319.373)" fill="#d4ddf0"/>
      <path id="Trazado_986340" data-name="Trazado 986340" d="M1945.408,133.554a8.881,8.881,0,0,1-7.68-13.319l66.855-115.8A8.879,8.879,0,0,1,2012.271,0h133.71a8.879,8.879,0,0,1,7.688,4.439l66.854,115.8a8.878,8.878,0,1,1-15.377,8.878L2140.856,17.756H2017.4L1953.1,129.113a8.874,8.874,0,0,1-7.7,4.441" transform="translate(-1011.715 2406.755)" fill="#a4f1d6"/>
      <path id="Trazado_986341" data-name="Trazado 986341" d="M2229.164,120.724H2123.7l-52.731,91.333L2123.7,303.39h105.462l52.731-91.333Z" transform="translate(-1109.021 2319.373)" fill="#d4ddf0"/>
      <path id="Trazado_986342" data-name="Trazado 986342" d="M1177.83,553.494H1044.121a8.879,8.879,0,0,1-7.689-4.439l-66.855-115.8a8.878,8.878,0,1,1,15.377-8.878l64.292,111.357H1172.7L1237,424.381a8.878,8.878,0,1,1,15.377,8.878l-66.855,115.8a8.878,8.878,0,0,1-7.689,4.439" transform="translate(-310.942 2102.792)" fill="#01899b"/>
      <path id="Trazado_986343" data-name="Trazado 986343" d="M1261.012,120.724H1155.549l-52.731,91.333,52.731,91.333h105.462l52.731-91.333Z" transform="translate(-408.248 2319.373)" fill="#d4ddf0"/>
      <path id="Trazado_987391" data-name="Trazado 987391" d="M16.142,1.045h2.689V14H16.142Zm9.519,5.229a1.744,1.744,0,0,0-1.749,1.081,3.713,3.713,0,0,0-.246,1.459V14h-2.5V4.438h2.417v1.4A4.252,4.252,0,0,1,24.5,4.771a3.177,3.177,0,0,1,1.96-.58,3.7,3.7,0,0,1,2.43.778,3.163,3.163,0,0,1,.945,2.58V14H27.269V8.173a2.659,2.659,0,0,0-.2-1.16A1.422,1.422,0,0,0,25.661,6.274ZM31.207,4.42h2.813l2,7.066L38.053,4.42h2.689L37.289,14H34.643Zm19.151,6.768a3.178,3.178,0,0,1-.888,1.731,4.349,4.349,0,0,1-3.445,1.4A4.858,4.858,0,0,1,42.8,13.139a4.75,4.75,0,0,1-1.4-3.832,5.326,5.326,0,0,1,1.261-3.814,4.312,4.312,0,0,1,3.274-1.327,5.021,5.021,0,0,1,2.153.448,3.772,3.772,0,0,1,1.582,1.415A4.828,4.828,0,0,1,50.4,8.006a12.771,12.771,0,0,1,.079,1.9H43.924a2.381,2.381,0,0,0,.905,2.021,2.132,2.132,0,0,0,1.248.36,1.8,1.8,0,0,0,1.257-.439,2.087,2.087,0,0,0,.466-.659ZM47.879,8.252a2.181,2.181,0,0,0-.6-1.507,1.87,1.87,0,0,0-1.34-.514,1.7,1.7,0,0,0-1.349.545,2.72,2.72,0,0,0-.6,1.477Zm9.105-1.521a2.078,2.078,0,0,0-2.03.984,3.829,3.829,0,0,0-.29,1.705V14H52.142V4.42h2.391V6.09a5.3,5.3,0,0,1,1.011-1.31,2.752,2.752,0,0,1,1.828-.589q.07,0,.119,0l.215.013V6.775q-.237-.026-.422-.035T56.985,6.731Zm8.789-1.872a3.086,3.086,0,0,1,1.292,2.479h-2.5a1.482,1.482,0,0,0-.272-.765,1.714,1.714,0,0,0-1.406-.51,2.021,2.021,0,0,0-1.165.255.734.734,0,0,0-.347.6.654.654,0,0,0,.369.624,15.98,15.98,0,0,0,2.61.694A4.8,4.8,0,0,1,66.591,9.3a2.415,2.415,0,0,1,.738,1.8,2.911,2.911,0,0,1-1.059,2.325,4.976,4.976,0,0,1-3.274.9,4.929,4.929,0,0,1-3.335-.954,3.1,3.1,0,0,1-1.077-2.43h2.54a1.673,1.673,0,0,0,.343.949,2.317,2.317,0,0,0,1.723.5,2.626,2.626,0,0,0,1.173-.22.737.737,0,0,0,.083-1.3,14.3,14.3,0,0,0-2.61-.756A5.437,5.437,0,0,1,59.542,9.1a2.191,2.191,0,0,1-.668-1.723A2.988,2.988,0,0,1,59.916,5.1a4.183,4.183,0,0,1,2.931-.954A5.427,5.427,0,0,1,65.774,4.859Zm5.985-.439V14h-2.54V4.42Zm0-3.454V3.277h-2.54V.966ZM82.174,5.633a5.59,5.59,0,0,1,1.213,3.595,5.553,5.553,0,0,1-1.213,3.608,5.274,5.274,0,0,1-7.365,0A5.553,5.553,0,0,1,73.6,9.228a5.59,5.59,0,0,1,1.213-3.595,5.22,5.22,0,0,1,7.365,0Zm-3.691.6a2,2,0,0,0-1.692.778A3.6,3.6,0,0,0,76.2,9.228a3.619,3.619,0,0,0,.593,2.224,2.216,2.216,0,0,0,3.379,0,3.639,3.639,0,0,0,.589-2.224,3.619,3.619,0,0,0-.589-2.219A1.99,1.99,0,0,0,78.483,6.23Zm-1.477-3.1L78.694.5h2.795L78.817,3.128ZM89.689,6.274A1.744,1.744,0,0,0,87.94,7.355a3.713,3.713,0,0,0-.246,1.459V14H85.2V4.438h2.417v1.4a4.252,4.252,0,0,1,.914-1.063,3.177,3.177,0,0,1,1.96-.58,3.7,3.7,0,0,1,2.43.778,3.163,3.163,0,0,1,.945,2.58V14H91.3V8.173a2.659,2.659,0,0,0-.2-1.16A1.422,1.422,0,0,0,89.689,6.274Zm15.381,5.212,1.978-7.066h2.663l-3.287,9.422a13.23,13.23,0,0,1-1.5,3.379,2.856,2.856,0,0,1-2.215.655q-.334,0-.536,0t-.606-.031v-2l.316.018a3.948,3.948,0,0,0,.7-.026,1.262,1.262,0,0,0,.563-.2,1.352,1.352,0,0,0,.409-.624,1.319,1.319,0,0,0,.154-.58l-3.516-10h2.786ZM35.526,32.457a4.09,4.09,0,0,1,3.41-1.266,6.059,6.059,0,0,1,2.795.624,2.4,2.4,0,0,1,1.222,2.355v4.395q0,.457.018,1.107a1.392,1.392,0,0,0,.149.668.9.9,0,0,0,.369.29V41H40.765a2.79,2.79,0,0,1-.158-.545q-.044-.255-.07-.58a5.146,5.146,0,0,1-1.2.958,3.6,3.6,0,0,1-1.828.466,3.143,3.143,0,0,1-2.149-.743,2.649,2.649,0,0,1-.848-2.1,2.732,2.732,0,0,1,1.362-2.558,6.049,6.049,0,0,1,2.2-.615l.853-.105a3.91,3.91,0,0,0,.993-.22.753.753,0,0,0,.536-.712.845.845,0,0,0-.409-.813,2.553,2.553,0,0,0-1.2-.224,1.563,1.563,0,0,0-1.257.439,1.827,1.827,0,0,0-.352.879H34.823A3.676,3.676,0,0,1,35.526,32.457Zm1.863,6.732a1.309,1.309,0,0,0,.861.29A2.551,2.551,0,0,0,39.741,39a2.024,2.024,0,0,0,.708-1.731v-.932a2.722,2.722,0,0,1-.479.242,4.006,4.006,0,0,1-.664.171l-.562.105a3.632,3.632,0,0,0-1.134.343,1.149,1.149,0,0,0-.58,1.063A1.1,1.1,0,0,0,37.39,39.189Zm16.444-3.814V41H51.276V35.173a2.563,2.563,0,0,0-.264-1.248,1.324,1.324,0,0,0-1.3-.668,1.791,1.791,0,0,0-1.507.664,3.037,3.037,0,0,0-.514,1.894V41h-2.5V28.089h2.5v4.579A3.071,3.071,0,0,1,48.952,31.5a3.565,3.565,0,0,1,1.507-.33,4.09,4.09,0,0,1,1.613.308,2.82,2.82,0,0,1,1.191.94,2.5,2.5,0,0,1,.483,1.1A13.582,13.582,0,0,1,53.834,35.375Zm10.327-2.742a5.953,5.953,0,0,1,0,7.2,4.456,4.456,0,0,1-3.683,1.5,4.456,4.456,0,0,1-3.683-1.5,5.953,5.953,0,0,1,0-7.2,4.426,4.426,0,0,1,3.683-1.521A4.426,4.426,0,0,1,64.161,32.633Zm-3.691.6a2,2,0,0,0-1.692.778,3.6,3.6,0,0,0-.593,2.219,3.619,3.619,0,0,0,.593,2.224,2.216,2.216,0,0,0,3.379,0,3.639,3.639,0,0,0,.589-2.224,3.619,3.619,0,0,0-.589-2.219A1.99,1.99,0,0,0,60.47,33.23Zm11.514.5a2.078,2.078,0,0,0-2.03.984,3.829,3.829,0,0,0-.29,1.705V41H67.141V31.42h2.391v1.67a5.3,5.3,0,0,1,1.011-1.31,2.752,2.752,0,0,1,1.828-.589q.07,0,.119,0l.215.013v2.566q-.237-.026-.422-.035T71.983,33.731Zm7,0a2.078,2.078,0,0,0-2.03.984,3.829,3.829,0,0,0-.29,1.705V41H74.146V31.42h2.391v1.67a5.3,5.3,0,0,1,1.011-1.31,2.752,2.752,0,0,1,1.828-.589q.07,0,.119,0l.215.013v2.566q-.237-.026-.422-.035T78.988,33.731Zm10.178-1.1a5.953,5.953,0,0,1,0,7.2,5.274,5.274,0,0,1-7.365,0,5.953,5.953,0,0,1,0-7.2,5.22,5.22,0,0,1,7.365,0Zm-3.691.6a2,2,0,0,0-1.692.778,3.6,3.6,0,0,0-.593,2.219,3.619,3.619,0,0,0,.593,2.224,2.216,2.216,0,0,0,3.379,0,3.639,3.639,0,0,0,.589-2.224,3.619,3.619,0,0,0-.589-2.219A1.99,1.99,0,0,0,85.475,33.23Z" transform="translate(470 2534)" fill="#212429"/>
      <path id="Trazado_987392" data-name="Trazado 987392" d="M16.155,1.045h2.689V14H16.155Zm9.519,5.229a1.744,1.744,0,0,0-1.749,1.081,3.713,3.713,0,0,0-.246,1.459V14h-2.5V4.438H23.6v1.4a4.252,4.252,0,0,1,.914-1.063,3.177,3.177,0,0,1,1.96-.58,3.7,3.7,0,0,1,2.43.778,3.163,3.163,0,0,1,.945,2.58V14H27.282V8.173a2.659,2.659,0,0,0-.2-1.16A1.422,1.422,0,0,0,25.674,6.274Zm11,0A1.744,1.744,0,0,0,34.92,7.355a3.713,3.713,0,0,0-.246,1.459V14h-2.5V4.438h2.417v1.4a4.252,4.252,0,0,1,.914-1.063,3.177,3.177,0,0,1,1.96-.58,3.7,3.7,0,0,1,2.43.778,3.163,3.163,0,0,1,.945,2.58V14H38.277V8.173a2.659,2.659,0,0,0-.2-1.16A1.422,1.422,0,0,0,36.669,6.274Zm14.476-.642a5.59,5.59,0,0,1,1.213,3.595,5.553,5.553,0,0,1-1.213,3.608,4.456,4.456,0,0,1-3.683,1.5,4.456,4.456,0,0,1-3.683-1.5,5.553,5.553,0,0,1-1.213-3.608,5.59,5.59,0,0,1,1.213-3.595,4.426,4.426,0,0,1,3.683-1.521A4.426,4.426,0,0,1,51.145,5.633Zm-3.691.6a2,2,0,0,0-1.692.778,3.6,3.6,0,0,0-.593,2.219,3.619,3.619,0,0,0,.593,2.224,2.216,2.216,0,0,0,3.379,0,3.639,3.639,0,0,0,.589-2.224,3.619,3.619,0,0,0-.589-2.219A1.99,1.99,0,0,0,47.453,6.23ZM53.21,4.42h2.813l2,7.066L60.057,4.42h2.689L59.292,14H56.646ZM64.521,5.457a4.09,4.09,0,0,1,3.41-1.266,6.059,6.059,0,0,1,2.795.624,2.4,2.4,0,0,1,1.222,2.355v4.395q0,.457.018,1.107a1.392,1.392,0,0,0,.149.668.9.9,0,0,0,.369.29V14H69.76a2.79,2.79,0,0,1-.158-.545q-.044-.255-.07-.58a5.146,5.146,0,0,1-1.2.958,3.6,3.6,0,0,1-1.828.466,3.143,3.143,0,0,1-2.149-.743,2.649,2.649,0,0,1-.848-2.1,2.732,2.732,0,0,1,1.362-2.558,6.049,6.049,0,0,1,2.2-.615l.853-.105a3.91,3.91,0,0,0,.993-.22.753.753,0,0,0,.536-.712.845.845,0,0,0-.409-.813,2.553,2.553,0,0,0-1.2-.224,1.563,1.563,0,0,0-1.257.439,1.827,1.827,0,0,0-.352.879H63.818A3.676,3.676,0,0,1,64.521,5.457Zm1.863,6.732a1.309,1.309,0,0,0,.861.29A2.551,2.551,0,0,0,68.736,12a2.024,2.024,0,0,0,.708-1.731V9.342a2.722,2.722,0,0,1-.479.242,4.006,4.006,0,0,1-.664.171l-.562.105A3.632,3.632,0,0,0,66.6,10.2a1.149,1.149,0,0,0-.58,1.063A1.1,1.1,0,0,0,66.385,12.189ZM82.46,7.856H79.894a2.223,2.223,0,0,0-.36-.967,1.511,1.511,0,0,0-1.31-.58,1.725,1.725,0,0,0-1.731,1.257,5.255,5.255,0,0,0-.246,1.775,4.832,4.832,0,0,0,.246,1.7,1.671,1.671,0,0,0,1.688,1.2,1.488,1.488,0,0,0,1.248-.475,2.362,2.362,0,0,0,.448-1.23h2.558a4.191,4.191,0,0,1-.826,2.162,4.016,4.016,0,0,1-3.489,1.644,4.082,4.082,0,0,1-3.4-1.371,5.548,5.548,0,0,1-1.09-3.56,5.63,5.63,0,0,1,1.2-3.841,4.191,4.191,0,0,1,3.322-1.371A5,5,0,0,1,81.1,5,3.761,3.761,0,0,1,82.46,7.856Zm4.3-3.437V14h-2.54V4.42Zm0-3.454V3.277h-2.54V.966ZM97.173,5.633a5.59,5.59,0,0,1,1.213,3.595,5.553,5.553,0,0,1-1.213,3.608,5.274,5.274,0,0,1-7.365,0,5.553,5.553,0,0,1-1.213-3.608,5.59,5.59,0,0,1,1.213-3.595,5.22,5.22,0,0,1,7.365,0Zm-3.691.6a2,2,0,0,0-1.692.778A3.6,3.6,0,0,0,91.2,9.228a3.619,3.619,0,0,0,.593,2.224,2.216,2.216,0,0,0,3.379,0,3.639,3.639,0,0,0,.589-2.224,3.619,3.619,0,0,0-.589-2.219A1.99,1.99,0,0,0,93.481,6.23ZM92,3.128,93.692.5h2.795L93.815,3.128Zm12.683,3.146a1.744,1.744,0,0,0-1.749,1.081,3.713,3.713,0,0,0-.246,1.459V14h-2.5V4.438h2.417v1.4a4.252,4.252,0,0,1,.914-1.063,3.177,3.177,0,0,1,1.96-.58,3.7,3.7,0,0,1,2.43.778,3.163,3.163,0,0,1,.945,2.58V14H106.3V8.173a2.659,2.659,0,0,0-.2-1.16A1.422,1.422,0,0,0,104.688,6.274ZM18.045,39.216v1.872l-1.187.044a3.184,3.184,0,0,1-2.426-.615,1.832,1.832,0,0,1-.422-1.327v-5.9H12.675V31.508h1.336V28.836h2.479v2.672h1.556v1.784H16.489v5.063a1.14,1.14,0,0,0,.149.734,1.645,1.645,0,0,0,.914.145q.114,0,.242,0T18.045,39.216Zm9.809-1.028a3.178,3.178,0,0,1-.888,1.731,4.349,4.349,0,0,1-3.445,1.4,4.858,4.858,0,0,1-3.226-1.178,4.75,4.75,0,0,1-1.4-3.832,5.326,5.326,0,0,1,1.261-3.814,4.312,4.312,0,0,1,3.274-1.327,5.021,5.021,0,0,1,2.153.448,3.772,3.772,0,0,1,1.582,1.415,4.828,4.828,0,0,1,.729,1.978,12.771,12.771,0,0,1,.079,1.9H21.42a2.381,2.381,0,0,0,.905,2.021,2.132,2.132,0,0,0,1.248.36,1.8,1.8,0,0,0,1.257-.439,2.087,2.087,0,0,0,.466-.659Zm-2.479-2.936a2.181,2.181,0,0,0-.6-1.507,1.87,1.87,0,0,0-1.34-.514,1.7,1.7,0,0,0-1.349.545,2.72,2.72,0,0,0-.6,1.477Zm12.577-.4H35.386a2.223,2.223,0,0,0-.36-.967,1.511,1.511,0,0,0-1.31-.58,1.725,1.725,0,0,0-1.731,1.257,5.255,5.255,0,0,0-.246,1.775,4.832,4.832,0,0,0,.246,1.7,1.671,1.671,0,0,0,1.688,1.2,1.488,1.488,0,0,0,1.248-.475,2.362,2.362,0,0,0,.448-1.23h2.558A4.191,4.191,0,0,1,37.1,39.69a4.016,4.016,0,0,1-3.489,1.644,4.082,4.082,0,0,1-3.4-1.371,5.548,5.548,0,0,1-1.09-3.56,5.63,5.63,0,0,1,1.2-3.841,4.191,4.191,0,0,1,3.322-1.371A5,5,0,0,1,36.594,32,3.761,3.761,0,0,1,37.952,34.856Zm6.231-1.582a1.744,1.744,0,0,0-1.749,1.081,3.713,3.713,0,0,0-.246,1.459V41h-2.5V31.438h2.417v1.4a4.252,4.252,0,0,1,.914-1.063,3.177,3.177,0,0,1,1.96-.58,3.7,3.7,0,0,1,2.43.778,3.163,3.163,0,0,1,.945,2.58V41H45.792V35.173a2.659,2.659,0,0,0-.2-1.16A1.422,1.422,0,0,0,44.184,33.274Zm14.476-.642a5.953,5.953,0,0,1,0,7.2,4.456,4.456,0,0,1-3.683,1.5,4.456,4.456,0,0,1-3.683-1.5,5.953,5.953,0,0,1,0-7.2,4.426,4.426,0,0,1,3.683-1.521A4.426,4.426,0,0,1,58.659,32.633Zm-3.691.6a2,2,0,0,0-1.692.778,3.6,3.6,0,0,0-.593,2.219,3.619,3.619,0,0,0,.593,2.224,2.216,2.216,0,0,0,3.379,0,3.639,3.639,0,0,0,.589-2.224,3.619,3.619,0,0,0-.589-2.219A1.99,1.99,0,0,0,54.968,33.23Zm6.75-5.186h2.5V41h-2.5Zm12.938,4.588a5.953,5.953,0,0,1,0,7.2,5.274,5.274,0,0,1-7.365,0,5.953,5.953,0,0,1,0-7.2,5.22,5.22,0,0,1,7.365,0Zm-3.691.6a2,2,0,0,0-1.692.778,3.6,3.6,0,0,0-.593,2.219,3.619,3.619,0,0,0,.593,2.224,2.216,2.216,0,0,0,3.379,0,3.639,3.639,0,0,0,.589-2.224,3.619,3.619,0,0,0-.589-2.219A1.99,1.99,0,0,0,70.964,33.23Zm-1.477-3.1L71.175,27.5H73.97L71.3,30.128ZM80.368,42.679a2.117,2.117,0,0,0,1.362.343,1.83,1.83,0,0,0,1.811-.905,4.585,4.585,0,0,0,.3-1.951V39.55a3.055,3.055,0,0,1-.773.923,3.11,3.11,0,0,1-1.942.571,3.676,3.676,0,0,1-2.949-1.3,5.241,5.241,0,0,1-1.1-3.511,5.919,5.919,0,0,1,1.063-3.59,3.514,3.514,0,0,1,3.015-1.455,3.3,3.3,0,0,1,1.257.22A3.01,3.01,0,0,1,83.884,32.8V31.42h2.435v9.088a5.09,5.09,0,0,1-.624,2.795q-1.072,1.617-4.113,1.617a5.6,5.6,0,0,1-3-.721A2.659,2.659,0,0,1,77.3,42.046h2.725A1.128,1.128,0,0,0,80.368,42.679Zm-.422-4.948a1.833,1.833,0,0,0,1.828,1.213,1.935,1.935,0,0,0,1.485-.664,3.072,3.072,0,0,0,.606-2.114,3.235,3.235,0,0,0-.576-2.074,1.882,1.882,0,0,0-1.542-.712,1.818,1.818,0,0,0-1.819,1.239,4.395,4.395,0,0,0-.264,1.626A3.71,3.71,0,0,0,79.946,37.73ZM91.231,31.42V41h-2.54V31.42Zm0-3.454v2.312h-2.54V27.966Zm10.714,6.891H99.379a2.223,2.223,0,0,0-.36-.967,1.511,1.511,0,0,0-1.31-.58,1.725,1.725,0,0,0-1.731,1.257,5.255,5.255,0,0,0-.246,1.775,4.832,4.832,0,0,0,.246,1.7,1.671,1.671,0,0,0,1.688,1.2,1.488,1.488,0,0,0,1.248-.475,2.362,2.362,0,0,0,.448-1.23h2.558a4.191,4.191,0,0,1-.826,2.162A4.016,4.016,0,0,1,97.6,41.334a4.082,4.082,0,0,1-3.4-1.371,5.548,5.548,0,0,1-1.09-3.56,5.63,5.63,0,0,1,1.2-3.841,4.191,4.191,0,0,1,3.322-1.371,5,5,0,0,1,2.949.809A3.761,3.761,0,0,1,101.945,34.856Zm2.083-2.4a4.09,4.09,0,0,1,3.41-1.266,6.059,6.059,0,0,1,2.795.624,2.4,2.4,0,0,1,1.222,2.355v4.395q0,.457.018,1.107a1.392,1.392,0,0,0,.149.668.9.9,0,0,0,.369.29V41h-2.725a2.79,2.79,0,0,1-.158-.545q-.044-.255-.07-.58a5.146,5.146,0,0,1-1.2.958,3.6,3.6,0,0,1-1.828.466,3.143,3.143,0,0,1-2.149-.743,2.649,2.649,0,0,1-.848-2.1,2.732,2.732,0,0,1,1.362-2.558,6.049,6.049,0,0,1,2.2-.615l.853-.105a3.91,3.91,0,0,0,.993-.22.753.753,0,0,0,.536-.712.845.845,0,0,0-.409-.813,2.553,2.553,0,0,0-1.2-.224,1.563,1.563,0,0,0-1.257.439,1.827,1.827,0,0,0-.352.879h-2.417A3.676,3.676,0,0,1,104.028,32.457Zm1.863,6.732a1.309,1.309,0,0,0,.861.29,2.551,2.551,0,0,0,1.49-.475,2.024,2.024,0,0,0,.708-1.731v-.932a2.722,2.722,0,0,1-.479.242,4.006,4.006,0,0,1-.664.171l-.562.105a3.632,3.632,0,0,0-1.134.343,1.149,1.149,0,0,0-.58,1.063A1.1,1.1,0,0,0,105.892,39.189Z" transform="translate(738 2534)" fill="#212429"/>
      <path id="Trazado_987393" data-name="Trazado 987393" d="M34.878,8.34H28.585v3.331h7.172V14H25.94V1.045h9.5V3.339H28.585V6.09h6.293Zm9.387-3.48a3.086,3.086,0,0,1,1.292,2.479h-2.5a1.482,1.482,0,0,0-.272-.765,1.714,1.714,0,0,0-1.406-.51,2.021,2.021,0,0,0-1.165.255.734.734,0,0,0-.347.6.654.654,0,0,0,.369.624,15.98,15.98,0,0,0,2.61.694A4.8,4.8,0,0,1,45.083,9.3a2.415,2.415,0,0,1,.738,1.8,2.911,2.911,0,0,1-1.059,2.325,4.976,4.976,0,0,1-3.274.9,4.929,4.929,0,0,1-3.335-.954,3.1,3.1,0,0,1-1.077-2.43h2.54a1.673,1.673,0,0,0,.343.949,2.317,2.317,0,0,0,1.723.5,2.626,2.626,0,0,0,1.173-.22.737.737,0,0,0,.083-1.3,14.3,14.3,0,0,0-2.61-.756A5.437,5.437,0,0,1,38.034,9.1a2.191,2.191,0,0,1-.668-1.723A2.988,2.988,0,0,1,38.407,5.1a4.183,4.183,0,0,1,2.931-.954A5.427,5.427,0,0,1,44.265,4.859Zm7.8,7.356v1.872l-1.187.044a3.184,3.184,0,0,1-2.426-.615,1.832,1.832,0,0,1-.422-1.327v-5.9H46.691V4.508h1.336V1.836h2.479V4.508h1.556V6.292H50.505v5.063a1.14,1.14,0,0,0,.149.734,1.645,1.645,0,0,0,.914.145q.114,0,.242,0T52.061,12.216ZM54.03,5.457a4.09,4.09,0,0,1,3.41-1.266,6.059,6.059,0,0,1,2.795.624,2.4,2.4,0,0,1,1.222,2.355v4.395q0,.457.018,1.107a1.392,1.392,0,0,0,.149.668.9.9,0,0,0,.369.29V14H59.268a2.79,2.79,0,0,1-.158-.545q-.044-.255-.07-.58a5.146,5.146,0,0,1-1.2.958,3.6,3.6,0,0,1-1.828.466,3.143,3.143,0,0,1-2.149-.743,2.649,2.649,0,0,1-.848-2.1,2.732,2.732,0,0,1,1.362-2.558,6.049,6.049,0,0,1,2.2-.615l.853-.105a3.91,3.91,0,0,0,.993-.22.753.753,0,0,0,.536-.712.845.845,0,0,0-.409-.813,2.553,2.553,0,0,0-1.2-.224,1.563,1.563,0,0,0-1.257.439,1.827,1.827,0,0,0-.352.879H53.327A3.676,3.676,0,0,1,54.03,5.457Zm1.863,6.732a1.309,1.309,0,0,0,.861.29A2.551,2.551,0,0,0,58.244,12a2.024,2.024,0,0,0,.708-1.731V9.342a2.722,2.722,0,0,1-.479.242,4.006,4.006,0,0,1-.664.171l-.562.105a3.632,3.632,0,0,0-1.134.343,1.149,1.149,0,0,0-.58,1.063A1.1,1.1,0,0,0,55.893,12.189Zm12.99,2.065a3.418,3.418,0,0,1-1.907-.475,3.809,3.809,0,0,1-.932-.984V14H63.592V1.063h2.5V5.668a3.655,3.655,0,0,1,1.046-1.02,3.107,3.107,0,0,1,1.723-.439,3.548,3.548,0,0,1,2.958,1.362,5.53,5.53,0,0,1,1.068,3.516,6.181,6.181,0,0,1-1.055,3.7A3.42,3.42,0,0,1,68.883,14.255Zm1.371-4.9a4.636,4.636,0,0,0-.264-1.687A1.837,1.837,0,0,0,68.145,6.4a1.864,1.864,0,0,0-1.872,1.239,4.651,4.651,0,0,0-.264,1.705,3.572,3.572,0,0,0,.545,2.039,1.866,1.866,0,0,0,1.661.809,1.719,1.719,0,0,0,1.5-.782A3.572,3.572,0,0,0,70.254,9.351Zm7-4.931V14H74.71V4.42Zm0-3.454V3.277H74.71V.966Zm2.479.079h2.5V14h-2.5ZM87.252,4.42V14h-2.54V4.42Zm0-3.454V3.277h-2.54V.966Zm11.145.1V14H95.962V12.673a3.533,3.533,0,0,1-1.222,1.239,3.43,3.43,0,0,1-1.705.387,3.56,3.56,0,0,1-2.826-1.358,5.215,5.215,0,0,1-1.147-3.485A6,6,0,0,1,90.192,5.6a3.674,3.674,0,0,1,3.019-1.406,3.09,3.09,0,0,1,1.547.382,3.043,3.043,0,0,1,1.1,1.059V1.063Zm-6.75,8.209a3.767,3.767,0,0,0,.527,2.118,1.756,1.756,0,0,0,1.582.8,1.849,1.849,0,0,0,1.617-.791,3.5,3.5,0,0,0,.554-2.048,3.141,3.141,0,0,0-.888-2.514,1.91,1.91,0,0,0-1.266-.457,1.759,1.759,0,0,0-1.613.831A3.848,3.848,0,0,0,91.647,9.271Zm9.387-3.814a4.09,4.09,0,0,1,3.41-1.266,6.059,6.059,0,0,1,2.795.624,2.4,2.4,0,0,1,1.222,2.355v4.395q0,.457.018,1.107a1.392,1.392,0,0,0,.149.668.9.9,0,0,0,.369.29V14h-2.725a2.79,2.79,0,0,1-.158-.545q-.044-.255-.07-.58a5.146,5.146,0,0,1-1.2.958,3.6,3.6,0,0,1-1.828.466,3.143,3.143,0,0,1-2.149-.743,2.649,2.649,0,0,1-.848-2.1,2.732,2.732,0,0,1,1.362-2.558,6.049,6.049,0,0,1,2.2-.615l.853-.105a3.91,3.91,0,0,0,.993-.22.753.753,0,0,0,.536-.712.845.845,0,0,0-.409-.813,2.553,2.553,0,0,0-1.2-.224,1.563,1.563,0,0,0-1.257.439,1.827,1.827,0,0,0-.352.879h-2.417A3.676,3.676,0,0,1,101.034,5.457Zm1.863,6.732a1.309,1.309,0,0,0,.861.29,2.551,2.551,0,0,0,1.49-.475,2.024,2.024,0,0,0,.708-1.731V9.342a2.722,2.722,0,0,1-.479.242,4.006,4.006,0,0,1-.664.171l-.562.105a3.632,3.632,0,0,0-1.134.343,1.149,1.149,0,0,0-.58,1.063A1.1,1.1,0,0,0,102.9,12.189ZM119.4,1.063V14h-2.435V12.673a3.533,3.533,0,0,1-1.222,1.239,3.43,3.43,0,0,1-1.705.387,3.56,3.56,0,0,1-2.826-1.358,5.215,5.215,0,0,1-1.147-3.485A6,6,0,0,1,111.2,5.6a3.674,3.674,0,0,1,3.019-1.406,3.09,3.09,0,0,1,1.547.382,3.043,3.043,0,0,1,1.1,1.059V1.063Zm-6.75,8.209a3.767,3.767,0,0,0,.527,2.118,1.756,1.756,0,0,0,1.582.8,1.849,1.849,0,0,0,1.617-.791,3.5,3.5,0,0,0,.554-2.048,3.141,3.141,0,0,0-.888-2.514,1.91,1.91,0,0,0-1.266-.457,1.759,1.759,0,0,0-1.613.831A3.848,3.848,0,0,0,112.653,9.271ZM25.259,31.859a3.086,3.086,0,0,1,1.292,2.479h-2.5a1.482,1.482,0,0,0-.272-.765,1.714,1.714,0,0,0-1.406-.51,2.021,2.021,0,0,0-1.165.255.734.734,0,0,0-.347.6.654.654,0,0,0,.369.624,15.98,15.98,0,0,0,2.61.694A4.8,4.8,0,0,1,26.076,36.3a2.415,2.415,0,0,1,.738,1.8,2.911,2.911,0,0,1-1.059,2.325,4.976,4.976,0,0,1-3.274.9,4.929,4.929,0,0,1-3.335-.954,3.1,3.1,0,0,1-1.077-2.43h2.54a1.673,1.673,0,0,0,.343.949,2.317,2.317,0,0,0,1.723.5,2.626,2.626,0,0,0,1.173-.22.737.737,0,0,0,.083-1.3,14.3,14.3,0,0,0-2.61-.756A5.437,5.437,0,0,1,19.027,36.1a2.191,2.191,0,0,1-.668-1.723A2.988,2.988,0,0,1,19.4,32.1a4.183,4.183,0,0,1,2.931-.954A5.427,5.427,0,0,1,25.259,31.859Zm11.4.773a5.953,5.953,0,0,1,0,7.2,4.456,4.456,0,0,1-3.683,1.5,4.456,4.456,0,0,1-3.683-1.5,5.953,5.953,0,0,1,0-7.2,4.426,4.426,0,0,1,3.683-1.521A4.426,4.426,0,0,1,36.658,32.633Zm-3.691.6a2,2,0,0,0-1.692.778,3.6,3.6,0,0,0-.593,2.219,3.619,3.619,0,0,0,.593,2.224,2.216,2.216,0,0,0,3.379,0,3.639,3.639,0,0,0,.589-2.224,3.619,3.619,0,0,0-.589-2.219A1.99,1.99,0,0,0,32.967,33.23Zm14.985,1.626H45.386a2.223,2.223,0,0,0-.36-.967,1.511,1.511,0,0,0-1.31-.58,1.725,1.725,0,0,0-1.731,1.257,5.255,5.255,0,0,0-.246,1.775,4.832,4.832,0,0,0,.246,1.7,1.671,1.671,0,0,0,1.688,1.2,1.488,1.488,0,0,0,1.248-.475,2.362,2.362,0,0,0,.448-1.23h2.558A4.191,4.191,0,0,1,47.1,39.69a4.016,4.016,0,0,1-3.489,1.644,4.082,4.082,0,0,1-3.4-1.371,5.548,5.548,0,0,1-1.09-3.56,5.63,5.63,0,0,1,1.2-3.841,4.191,4.191,0,0,1,3.322-1.371A5,5,0,0,1,46.594,32,3.761,3.761,0,0,1,47.952,34.856Zm4.3-3.437V41H49.71V31.42Zm0-3.454v2.312H49.71V27.966Zm10.415,4.667a5.953,5.953,0,0,1,0,7.2,4.456,4.456,0,0,1-3.683,1.5,4.456,4.456,0,0,1-3.683-1.5,5.953,5.953,0,0,1,0-7.2,4.426,4.426,0,0,1,3.683-1.521A4.426,4.426,0,0,1,62.665,32.633Zm-3.691.6a2,2,0,0,0-1.692.778,3.6,3.6,0,0,0-.593,2.219,3.619,3.619,0,0,0,.593,2.224,2.216,2.216,0,0,0,3.379,0,3.639,3.639,0,0,0,.589-2.224,3.619,3.619,0,0,0-.589-2.219A1.99,1.99,0,0,0,58.974,33.23ZM73.7,32.448a5.14,5.14,0,0,1,1.16,3.639,5.771,5.771,0,0,1-1.138,3.858,3.685,3.685,0,0,1-2.931,1.327,3.059,3.059,0,0,1-1.9-.571,3.683,3.683,0,0,1-.809-.923v4.992H65.6V31.42H68v1.415a4.021,4.021,0,0,1,.861-.984,3.165,3.165,0,0,1,1.986-.642A3.767,3.767,0,0,1,73.7,32.448ZM72.271,36.21a3.77,3.77,0,0,0-.505-1.96,1.759,1.759,0,0,0-1.639-.853,1.865,1.865,0,0,0-1.872,1.292,4.9,4.9,0,0,0-.264,1.74,2.776,2.776,0,0,0,.888,2.347,2.021,2.021,0,0,0,1.248.4,1.809,1.809,0,0,0,1.6-.809A3.771,3.771,0,0,0,72.271,36.21Zm12.384-3.577a5.953,5.953,0,0,1,0,7.2,5.274,5.274,0,0,1-7.365,0,5.953,5.953,0,0,1,0-7.2,5.22,5.22,0,0,1,7.365,0Zm-3.691.6a2,2,0,0,0-1.692.778,3.6,3.6,0,0,0-.593,2.219,3.619,3.619,0,0,0,.593,2.224,2.216,2.216,0,0,0,3.379,0,3.639,3.639,0,0,0,.589-2.224,3.619,3.619,0,0,0-.589-2.219A1.99,1.99,0,0,0,80.964,33.23Zm6.75-5.186h2.5V41h-2.5ZM92.7,31.42h2.54V41H92.7Zm-.167-1.292L94.218,27.5h2.795l-2.672,2.628Zm9.519,9.088v1.872l-1.187.044a3.184,3.184,0,0,1-2.426-.615,1.832,1.832,0,0,1-.422-1.327v-5.9H96.679V31.508h1.336V28.836h2.479v2.672h1.556v1.784h-1.556v5.063a1.14,1.14,0,0,0,.149.734,1.645,1.645,0,0,0,.914.145q.114,0,.242,0T102.049,39.216Zm4.184-7.8V41h-2.54V31.42Zm0-3.454v2.312h-2.54V27.966Zm10.714,6.891H114.38a2.223,2.223,0,0,0-.36-.967,1.511,1.511,0,0,0-1.31-.58,1.725,1.725,0,0,0-1.731,1.257,5.255,5.255,0,0,0-.246,1.775,4.832,4.832,0,0,0,.246,1.7,1.671,1.671,0,0,0,1.688,1.2,1.488,1.488,0,0,0,1.248-.475,2.362,2.362,0,0,0,.448-1.23h2.558a4.191,4.191,0,0,1-.826,2.162,4.016,4.016,0,0,1-3.489,1.644,4.082,4.082,0,0,1-3.4-1.371,5.548,5.548,0,0,1-1.09-3.56,5.63,5.63,0,0,1,1.2-3.841,4.191,4.191,0,0,1,3.322-1.371,5,5,0,0,1,2.949.809A3.761,3.761,0,0,1,116.946,34.856Zm2.083-2.4a4.09,4.09,0,0,1,3.41-1.266,6.059,6.059,0,0,1,2.795.624,2.4,2.4,0,0,1,1.222,2.355v4.395q0,.457.018,1.107a1.392,1.392,0,0,0,.149.668.9.9,0,0,0,.369.29V41h-2.725a2.79,2.79,0,0,1-.158-.545q-.044-.255-.07-.58a5.146,5.146,0,0,1-1.2.958,3.6,3.6,0,0,1-1.828.466,3.143,3.143,0,0,1-2.149-.743,2.649,2.649,0,0,1-.848-2.1,2.732,2.732,0,0,1,1.362-2.558,6.049,6.049,0,0,1,2.2-.615l.853-.105a3.91,3.91,0,0,0,.993-.22.753.753,0,0,0,.536-.712.845.845,0,0,0-.409-.813,2.553,2.553,0,0,0-1.2-.224,1.563,1.563,0,0,0-1.257.439,1.827,1.827,0,0,0-.352.879h-2.417A3.676,3.676,0,0,1,119.029,32.457Zm1.863,6.732a1.309,1.309,0,0,0,.861.29,2.551,2.551,0,0,0,1.49-.475,2.024,2.024,0,0,0,.708-1.731v-.932a2.722,2.722,0,0,1-.479.242,4.006,4.006,0,0,1-.664.171l-.562.105a3.632,3.632,0,0,0-1.134.343,1.149,1.149,0,0,0-.58,1.063A1.1,1.1,0,0,0,120.893,39.189Z" transform="translate(995 2534)" fill="#212429"/>
    </g>
    <g id="Banking-Bank-Finance-Business-Money_Bag" data-name="Banking-Bank-Finance-Business-Money Bag" transform="translate(1041.994 2459)">
      <path id="Trazado_987297" data-name="Trazado 987297" d="M49,11v6H3V11L26,3Z" fill="#c6c5ca"/>
      <circle id="Elipse_11794" data-name="Elipse 11794" cx="3" cy="3" r="3" transform="translate(23 7)" fill="#d8d7da"/>
      <rect id="Rectángulo_408550" data-name="Rectángulo 408550" width="6" height="4" transform="translate(8 39)" fill="#d8d7da"/>
      <rect id="Rectángulo_408551" data-name="Rectángulo 408551" width="6" height="4" transform="translate(23 39)" fill="#d8d7da"/>
      <path id="Trazado_987298" data-name="Trazado 987298" d="M49,47v6H3V47H49Z" fill="#acabb1"/>
      <rect id="Rectángulo_408552" data-name="Rectángulo 408552" width="6" height="4" transform="translate(38 39)" fill="#d8d7da"/>
      <rect id="Rectángulo_408553" data-name="Rectángulo 408553" width="6" height="4" transform="translate(38 17)" fill="#d8d7da"/>
      <rect id="Rectángulo_408554" data-name="Rectángulo 408554" width="6" height="4" transform="translate(23 17)" fill="#d8d7da"/>
      <rect id="Rectángulo_408555" data-name="Rectángulo 408555" width="6" height="4" transform="translate(8 17)" fill="#d8d7da"/>
      <path id="Trazado_987299" data-name="Trazado 987299" d="M47,43v4H5V43H47Z" fill="#c6c5ca"/>
      <rect id="Rectángulo_408556" data-name="Rectángulo 408556" width="6" height="18" transform="translate(38 21)" fill="#c6c5ca"/>
      <rect id="Rectángulo_408557" data-name="Rectángulo 408557" width="6" height="18" transform="translate(8 21)" fill="#c6c5ca"/>
      <rect id="Rectángulo_408558" data-name="Rectángulo 408558" width="6" height="18" transform="translate(23 21)" fill="#c6c5ca"/>
      <path id="Trazado_987300" data-name="Trazado 987300" d="M42,35a2,2,0,1,1,0-4h6a2,2,0,0,1,0,4Z" fill="#3d9ae2"/>
      <path id="Trazado_987301" data-name="Trazado 987301" d="M54,23l-6,8H42l-6-8c2.5,0,1.5-1,4-1s2.5,2,5.01,2,2.5-2,4.99-2S51.5,23,54,23Z" fill="#5aaae7"/>
      <path id="Trazado_987302" data-name="Trazado 987302" d="M32,45A10,10,0,0,1,42,35h6A10,10,0,0,1,58,45v7.38a4,4,0,0,0,1.75,3.19A2.988,2.988,0,0,1,61,58.16,3.121,3.121,0,0,1,57.83,61H32.17A3.121,3.121,0,0,1,29,58.16a2.988,2.988,0,0,1,1.25-2.59A4,4,0,0,0,32,52.38Z" fill="#5aaae7"/>
      <path id="Trazado_987303" data-name="Trazado 987303" d="M26,14a4,4,0,1,0-4-4A4,4,0,0,0,26,14Zm0-6a2,2,0,1,1-2,2A2,2,0,0,1,26,8Z"/>
      <path id="Trazado_987304" data-name="Trazado 987304" d="M60.34,54.75A2.96,2.96,0,0,1,59,52.38V45a11.013,11.013,0,0,0-8.33-10.66,2.954,2.954,0,0,0-1.04-3.85L54.8,23.6A1,1,0,0,0,54,22a2.058,2.058,0,0,1-1.44-.33A3.932,3.932,0,0,0,50,21a4.531,4.531,0,0,0-3.12,1.22,2.591,2.591,0,0,1-1.87.78H45V18h4a1,1,0,0,0,1-1V11a.992.992,0,0,0-.67-.94l-23-8a.938.938,0,0,0-.66,0l-23,8A.992.992,0,0,0,2,11v6a1,1,0,0,0,1,1H7V42H5a1,1,0,0,0-1,1v3H3a1,1,0,0,0-1,1v6a1,1,0,0,0,1,1H30.41a3.333,3.333,0,0,1-.75.75,3.971,3.971,0,0,0-1.65,3.46A4.078,4.078,0,0,0,32.17,62H57.83A4.094,4.094,0,0,0,62,58.21,4,4,0,0,0,60.34,54.75ZM45.01,25a4.531,4.531,0,0,0,3.12-1.22A2.591,2.591,0,0,1,50,23a2.092,2.092,0,0,1,1.45.33,3.767,3.767,0,0,0,.75.41L47.5,30h-5l-4.7-6.26a4.172,4.172,0,0,0,.76-.41A2.039,2.039,0,0,1,40,23a2.6,2.6,0,0,1,1.88.78A4.538,4.538,0,0,0,45.01,25ZM49,33a1,1,0,0,1-1,1H42a1,1,0,0,1,0-2h6A1,1,0,0,1,49,33Zm-9.67,1.34-.33.09V28.67l1.37,1.82a2.954,2.954,0,0,0-1.04,3.85ZM39,20V18h4v2Zm4,2v.12L42.85,22ZM4,16V11.71L26,4.06l22,7.65V16Zm31.2,7.6L37,26v9.21A11.026,11.026,0,0,0,31.43,42H30V18h7v3.9a3.651,3.651,0,0,1-1,.1,1,1,0,0,0-.8,1.6ZM24,38V22h4V38Zm4,2v2H24V40ZM24,20V18h4v2Zm-2-2V42H15V18ZM9,38V22h4V38Zm4,2v2H9V40ZM9,20V18h4v2ZM6,44H31.05c-.03.33-.05.66-.05,1v1H6ZM4,52V48H31v4Zm53.83,8H32.17A2.127,2.127,0,0,1,30,58.11a2.014,2.014,0,0,1,.83-1.73,4.952,4.952,0,0,0,2.17-4V45a9.009,9.009,0,0,1,7.4-8.85A6,6,0,0,0,39,40v1h2V40a4,4,0,0,1,8,0v1h2V40a6,6,0,0,0-1.4-3.85A9.009,9.009,0,0,1,57,45v7.38a4.952,4.952,0,0,0,2.17,4A2.014,2.014,0,0,1,60,58.11,2.127,2.127,0,0,1,57.83,60Z"/>
      <path id="Trazado_987305" data-name="Trazado 987305" d="M44,47h2a1,1,0,0,1,1,1h2a3,3,0,0,0-3-3V44H44v1a3,3,0,0,0,0,6h2a1,1,0,0,1,0,2H44a1,1,0,0,1-1-1H41a3,3,0,0,0,3,3v1h2V55a3,3,0,0,0,0-6H44a1,1,0,0,1,0-2Z"/>
      <rect id="Rectángulo_408559" data-name="Rectángulo 408559" width="2" height="2" transform="translate(51 49)"/>
      <rect id="Rectángulo_408560" data-name="Rectángulo 408560" width="2" height="2" transform="translate(37 49)"/>
    </g>
    <g id="Budget-Earning-Investment-Money-Profit" transform="translate(497 2459.001)">
      <rect id="Rectángulo_408561" data-name="Rectángulo 408561" width="18" height="32" transform="translate(25 29)" fill="#e6e7e8"/>
      <path id="Trazado_987306" data-name="Trazado 987306" d="M10,33H25v4H7V33Z" fill="#00b39d"/>
      <path id="Trazado_987307" data-name="Trazado 987307" d="M25,41v4H7V41H25Z" fill="#00b39d"/>
      <path id="Trazado_987308" data-name="Trazado 987308" d="M10,49H25v4H7V49Z" fill="#00b39d"/>
      <path id="Trazado_987309" data-name="Trazado 987309" d="M61,49v4H43V49H61Z" fill="#00b39d"/>
      <path id="Trazado_987310" data-name="Trazado 987310" d="M46,41H61v4H43V41Z" fill="#00b39d"/>
      <path id="Trazado_987311" data-name="Trazado 987311" d="M61,33v4H43V33H61Z" fill="#00b39d"/>
      <path id="Trazado_987312" data-name="Trazado 987312" d="M61,45v4H43V45Z" fill="#00ccb3"/>
      <path id="Trazado_987313" data-name="Trazado 987313" d="M61,37v4H43V37Z" fill="#00ccb3"/>
      <path id="Trazado_987314" data-name="Trazado 987314" d="M61,30v3H43V29H60A1,1,0,0,1,61,30Z" fill="#00ccb3"/>
      <path id="Trazado_987315" data-name="Trazado 987315" d="M25,45v4H7V45Z" fill="#00ccb3"/>
      <path id="Trazado_987316" data-name="Trazado 987316" d="M10,57H25v4H8a1,1,0,0,1-1-1V57Z" fill="#00b39d"/>
      <path id="Trazado_987317" data-name="Trazado 987317" d="M61,57v3a1,1,0,0,1-1,1H43V57Z" fill="#00b39d"/>
      <path id="Trazado_987318" data-name="Trazado 987318" d="M61,53v4H43V53Z" fill="#00ccb3"/>
      <path id="Trazado_987319" data-name="Trazado 987319" d="M25,53v4H7V53Z" fill="#00ccb3"/>
      <path id="Trazado_987320" data-name="Trazado 987320" d="M25,37v4H7V37Z" fill="#00ccb3"/>
      <path id="Trazado_987321" data-name="Trazado 987321" d="M25,29v4H7V30a1,1,0,0,1,1-1Z" fill="#00ccb3"/>
      <circle id="Elipse_11795" data-name="Elipse 11795" cx="8" cy="8" r="8" transform="translate(3 3)" fill="#ffd422"/>
      <path id="Trazado_987322" data-name="Trazado 987322" d="M19,25a2.006,2.006,0,0,1,2,2v2a2.006,2.006,0,0,1-2,2H7a2.006,2.006,0,0,1-2-2V27a2.006,2.006,0,0,1,2-2Z" fill="#ffa733"/>
      <path id="Trazado_987323" data-name="Trazado 987323" d="M19,37a2.006,2.006,0,0,1,2,2v2a2.006,2.006,0,0,1-2,2H7a2.006,2.006,0,0,1-2-2V39a2.006,2.006,0,0,1,2-2Z" fill="#ffa733"/>
      <path id="Trazado_987324" data-name="Trazado 987324" d="M17,49a2.006,2.006,0,0,1,2,2v2a2.006,2.006,0,0,1-2,2H5a2.006,2.006,0,0,1-2-2V51a2.006,2.006,0,0,1,2-2Z" fill="#ffa733"/>
      <path id="Trazado_987325" data-name="Trazado 987325" d="M17,19a2.006,2.006,0,0,1,2,2v2a2.006,2.006,0,0,1-2,2H5a2.006,2.006,0,0,1-2-2V21a2.006,2.006,0,0,1,2-2Z" fill="#ee8700"/>
      <path id="Trazado_987326" data-name="Trazado 987326" d="M17,31a2.006,2.006,0,0,1,2,2v2a2.006,2.006,0,0,1-2,2H5a2.006,2.006,0,0,1-2-2V33a2.006,2.006,0,0,1,2-2Z" fill="#ee8700"/>
      <path id="Trazado_987327" data-name="Trazado 987327" d="M19,43a2.006,2.006,0,0,1,2,2v2a2.006,2.006,0,0,1-2,2H7a2.006,2.006,0,0,1-2-2V45a2.006,2.006,0,0,1,2-2Z" fill="#ee8700"/>
      <path id="Trazado_987328" data-name="Trazado 987328" d="M17,55a2.006,2.006,0,0,1,2,2v2a2.006,2.006,0,0,1-2,2H5a2.006,2.006,0,0,1-2-2V57a2.006,2.006,0,0,1,2-2Z" fill="#ee8700"/>
      <path id="Trazado_987329" data-name="Trazado 987329" d="M11,6V8a3,3,0,0,1,3,3h2a5.006,5.006,0,0,0-5-5Z"/>
      <path id="Trazado_987330" data-name="Trazado 987330" d="M33,42h2a1,1,0,0,1,1,1h2a3,3,0,0,0-3-3V39H33v1a3,3,0,0,0,0,6h2a1,1,0,0,1,0,2H33a1,1,0,0,1-1-1H30a3,3,0,0,0,3,3v1h2V50a3,3,0,1,0,0-6H33a1,1,0,0,1,0-2Z"/>
      <path id="Trazado_987331" data-name="Trazado 987331" d="M60,28H22V27a2.994,2.994,0,0,0-2.22-2.88A3.02,3.02,0,0,0,20,23V21a3.009,3.009,0,0,0-3-3h-.36A9,9,0,1,0,5.36,18H5a3.009,3.009,0,0,0-3,3v2a2.994,2.994,0,0,0,2.22,2.88A3.02,3.02,0,0,0,4,27v2a3.02,3.02,0,0,0,.22,1.12A2.994,2.994,0,0,0,2,33v2a2.994,2.994,0,0,0,2.22,2.88A3.02,3.02,0,0,0,4,39v2a2.974,2.974,0,0,0,.78,2A2.974,2.974,0,0,0,4,45v2a3.02,3.02,0,0,0,.22,1.12A2.994,2.994,0,0,0,2,51v2a2.974,2.974,0,0,0,.78,2A2.974,2.974,0,0,0,2,57v2a3.009,3.009,0,0,0,3,3H60a2.006,2.006,0,0,0,2-2V30a2.006,2.006,0,0,0-2-2ZM20,27v2a1,1,0,0,1-1,1H7a1,1,0,0,1-1-1V27a1,1,0,0,1,1-1H8v2h2V26h2v2h2V26h2v2h2V26h1A1,1,0,0,1,20,27ZM10,40V38h2v2h2V38h2v2h2V38h1a1,1,0,0,1,1,1v2a1,1,0,0,1-1,1H7a1,1,0,0,1-1-1V39a1,1,0,0,1,1-1H8v2ZM4,11a7,7,0,1,1,7,7,7,7,0,0,1-7-7ZM4,23V21a1,1,0,0,1,1-1H6v2H8V20h2v2h2V20h2v2h2V20h1a1,1,0,0,1,1,1v2a1,1,0,0,1-1,1H5A1,1,0,0,1,4,23ZM4,35V33a1,1,0,0,1,1-1H6v2H8V32h2v2h2V32h2v2h2V32h1a1,1,0,0,1,1,1v2a1,1,0,0,1-1,1H5A1,1,0,0,1,4,35ZM18,59a1,1,0,0,1-1,1H5a1,1,0,0,1-1-1V57a1,1,0,0,1,1-1H6v2H8V56h2v2h2V56h2v2h2V56h1a1,1,0,0,1,1,1Zm0-6a1,1,0,0,1-1,1H5a1,1,0,0,1-1-1V51a1,1,0,0,1,1-1H6v2H8V50h2v2h2V50h2v2h2V50h1a1,1,0,0,1,1,1ZM7,48a1,1,0,0,1-1-1V45a1,1,0,0,1,1-1H8v2h2V44h2v2h2V44h2v2h2V44h1a1,1,0,0,1,1,1v2a1,1,0,0,1-1,1ZM24,60H19.82A3,3,0,0,0,20,59V57a2.974,2.974,0,0,0-.78-2,3.174,3.174,0,0,0,.6-1H24Zm0-8H20V51a3.02,3.02,0,0,0-.22-1.12A2.994,2.994,0,0,0,22,47V46h2Zm0-8H21.82a3.174,3.174,0,0,0-.6-1A2.974,2.974,0,0,0,22,41V39a3,3,0,0,0-.18-1H24Zm0-8H19.82A3,3,0,0,0,20,35V33a3.02,3.02,0,0,0-.22-1.12A2.981,2.981,0,0,0,21.82,30H24ZM42,60H26V30H42Zm18,0H44V58H54V56H44V54H60Zm0-12H50v2H60v2H44V46H60Zm0-4H44V42H54V40H44V38H60Zm0-12H50v2H60v2H44V30H60Z"/>
      <rect id="Rectángulo_408562" data-name="Rectángulo 408562" width="2" height="2" transform="translate(56 40)"/>
      <rect id="Rectángulo_408563" data-name="Rectángulo 408563" width="2" height="2" transform="translate(56 56)"/>
      <rect id="Rectángulo_408564" data-name="Rectángulo 408564" width="2" height="2" transform="translate(46 48)"/>
      <rect id="Rectángulo_408565" data-name="Rectángulo 408565" width="2" height="2" transform="translate(46 32)"/>
      <path id="Trazado_987332" data-name="Trazado 987332" d="M31,17h2V14h3V12H33V9H31v3H28v2h3Z"/>
      <path id="Trazado_987333" data-name="Trazado 987333" d="M51,21h2V18h3V16H53V13H51v3H48v2h3Z"/>
    </g>
    <g id="Money-Computer-Banking-Dollar-Online_Banking" data-name="Money-Computer-Banking-Dollar-Online Banking" transform="translate(765 2459)">
      <path id="Trazado_987334" data-name="Trazado 987334" d="M60,52v4a3,3,0,1,1-6,0V52a3,3,0,0,1,6,0Z" fill="#3d9ae2"/>
      <path id="Trazado_987335" data-name="Trazado 987335" d="M48,47H16a2.006,2.006,0,0,0-2,2V59a2.006,2.006,0,0,0,2,2H48a2.006,2.006,0,0,0,2-2V49A2.006,2.006,0,0,0,48,47Z" fill="#5aaae7"/>
      <path id="Trazado_987336" data-name="Trazado 987336" d="M41,39v4H23V39H41Z" fill="#898890"/>
      <rect id="Rectángulo_408566" data-name="Rectángulo 408566" width="10" height="6" transform="translate(27 33)" fill="#acabb1"/>
      <path id="Trazado_987337" data-name="Trazado 987337" d="M54,29v2a2.006,2.006,0,0,1-2,2H12a2.006,2.006,0,0,1-2-2V29Z" fill="#c6c5ca"/>
      <path id="Trazado_987338" data-name="Trazado 987338" d="M54,5V29H10V5a2.006,2.006,0,0,1,2-2H52a2.006,2.006,0,0,1,2,2Z" fill="#5aaae7"/>
      <circle id="Elipse_11796" data-name="Elipse 11796" cx="9" cy="9" r="9" transform="translate(25 9)" fill="#3d9ae2"/>
      <circle id="Elipse_11797" data-name="Elipse 11797" cx="9" cy="9" r="9" transform="translate(23 7)" fill="#ffd422"/>
      <rect id="Rectángulo_408567" data-name="Rectángulo 408567" width="10" height="2" transform="translate(27 33)" fill="#898890"/>
      <path id="Trazado_987339" data-name="Trazado 987339" d="M57,48a4,4,0,0,0-4,4v4a4,4,0,0,0,8,0V52A4,4,0,0,0,57,48Zm2,8a2,2,0,0,1-4,0V52a2,2,0,0,1,4,0Z"/>
      <rect id="Rectángulo_408568" data-name="Rectángulo 408568" width="2" height="2" transform="translate(21 55)"/>
      <rect id="Rectángulo_408569" data-name="Rectángulo 408569" width="2" height="2" transform="translate(17 55)"/>
      <path id="Trazado_987340" data-name="Trazado 987340" d="M48,46H16a3.009,3.009,0,0,0-3,3V59a3.009,3.009,0,0,0,3,3H48a3.009,3.009,0,0,0,3-3V49a3.009,3.009,0,0,0-3-3Zm1,13a1,1,0,0,1-1,1H16a1,1,0,0,1-1-1V49a1,1,0,0,1,1-1H48a1,1,0,0,1,1,1Z"/>
      <rect id="Rectángulo_408570" data-name="Rectángulo 408570" width="14" height="2" transform="translate(25 55)"/>
      <rect id="Rectángulo_408571" data-name="Rectángulo 408571" width="2" height="2" transform="translate(41 55)"/>
      <rect id="Rectángulo_408572" data-name="Rectángulo 408572" width="2" height="2" transform="translate(45 55)"/>
      <rect id="Rectángulo_408573" data-name="Rectángulo 408573" width="2" height="2" transform="translate(45 51)"/>
      <rect id="Rectángulo_408574" data-name="Rectángulo 408574" width="2" height="2" transform="translate(41 51)"/>
      <rect id="Rectángulo_408575" data-name="Rectángulo 408575" width="2" height="2" transform="translate(37 51)"/>
      <rect id="Rectángulo_408576" data-name="Rectángulo 408576" width="2" height="2" transform="translate(33 51)"/>
      <rect id="Rectángulo_408577" data-name="Rectángulo 408577" width="2" height="2" transform="translate(17 51)"/>
      <rect id="Rectángulo_408578" data-name="Rectángulo 408578" width="2" height="2" transform="translate(21 51)"/>
      <rect id="Rectángulo_408579" data-name="Rectángulo 408579" width="2" height="2" transform="translate(25 51)"/>
      <rect id="Rectángulo_408580" data-name="Rectángulo 408580" width="2" height="2" transform="translate(29 51)"/>
      <path id="Trazado_987341" data-name="Trazado 987341" d="M52,2H12A3.009,3.009,0,0,0,9,5V31a3.009,3.009,0,0,0,3,3H26v4H23a1,1,0,0,0-1,1v4a1,1,0,0,0,1,1H41a1,1,0,0,0,1-1V39a1,1,0,0,0-1-1H38V34H52a3.009,3.009,0,0,0,3-3V5a3.009,3.009,0,0,0-3-3ZM40,40v2H24V40ZM28,38V34h8v4Zm25-7a1,1,0,0,1-1,1H12a1,1,0,0,1-1-1V30H53Zm0-3H11V5a1,1,0,0,1,1-1H52a1,1,0,0,1,1,1Z"/>
      <path id="Trazado_987342" data-name="Trazado 987342" d="M33,19H31a1,1,0,0,1-1-1H28a3,3,0,0,0,3,3v1h2V21a3,3,0,0,0,0-6H31a1,1,0,0,1,0-2h2a1,1,0,0,1,1,1h2a3,3,0,0,0-3-3V10H31v1a3,3,0,0,0,0,6h2a1,1,0,0,1,0,2Z"/>
      <path id="Trazado_987343" data-name="Trazado 987343" d="M32,26A10,10,0,1,0,22,16,10,10,0,0,0,32,26ZM32,8a8,8,0,1,1-8,8,8,8,0,0,1,8-8Z"/>
      <rect id="Rectángulo_408581" data-name="Rectángulo 408581" width="4" height="2" transform="translate(44 15)"/>
      <rect id="Rectángulo_408582" data-name="Rectángulo 408582" width="4" height="2" transform="translate(16 15)"/>
    </g>
  </g>
</svg>
