<svg xmlns="http://www.w3.org/2000/svg" xmlns:xlink="http://www.w3.org/1999/xlink" width="108" height="108" viewBox="0 0 108 108">
  <defs>
    <filter id="Fondo" x="0" y="0" width="108" height="108" filterUnits="userSpaceOnUse">
      <feOffset dy="3" input="SourceAlpha"/>
      <feGaussianBlur stdDeviation="3" result="blur"/>
      <feFlood flood-opacity="0.161"/>
      <feComposite operator="in" in2="blur"/>
      <feComposite in="SourceGraphic"/>
    </filter>
  </defs>
  <g id="Icono" transform="translate(-325.72 -689)">
    <g transform="matrix(1, 0, 0, 1, 325.72, 689)" filter="url(#Fondo)">
      <g id="Fondo-2" data-name="Fondo" transform="translate(9 6)" fill="#fbeadf">
        <path d="M 45 88.5 C 39.12687683105469 88.5 33.43022537231445 87.35007476806641 28.06830024719238 85.08217620849609 C 22.88852500915527 82.89131164550781 18.23629951477051 79.75458526611328 14.2408504486084 75.75914764404297 C 10.24541282653809 71.76370239257812 7.108687400817871 67.11147308349609 4.917825222015381 61.93170166015625 C 2.649924993515015 56.56977462768555 1.5 50.87312316894531 1.5 45 C 1.5 39.12687683105469 2.649924993515015 33.43022537231445 4.917825222015381 28.06830024719238 C 7.108687400817871 22.88852500915527 10.24541282653809 18.23629951477051 14.2408504486084 14.2408504486084 C 18.23629951477051 10.24541282653809 22.88852500915527 7.108687400817871 28.06830024719238 4.917825222015381 C 33.43022537231445 2.649924993515015 39.12687683105469 1.5 45 1.5 C 50.87312316894531 1.5 56.56977462768555 2.649924993515015 61.93170166015625 4.917825222015381 C 67.11147308349609 7.108687400817871 71.76370239257812 10.24541282653809 75.75914764404297 14.2408504486084 C 79.75458526611328 18.23629951477051 82.89131164550781 22.88852500915527 85.08217620849609 28.06830024719238 C 87.35007476806641 33.43022537231445 88.5 39.12687683105469 88.5 45 C 88.5 50.87312316894531 87.35007476806641 56.56977462768555 85.08217620849609 61.93170166015625 C 82.89131164550781 67.11147308349609 79.75458526611328 71.76370239257812 75.75914764404297 75.75914764404297 C 71.76370239257812 79.75458526611328 67.11147308349609 82.89131164550781 61.93170166015625 85.08217620849609 C 56.56977462768555 87.35007476806641 50.87312316894531 88.5 45 88.5 Z" stroke="none"/>
        <path d="M 45 3 C 39.32871246337891 3 33.82865524291992 4.110054016113281 28.65262985229492 6.299339294433594 C 23.65165710449219 8.414573669433594 19.15968322753906 11.44334411621094 15.301513671875 15.301513671875 C 11.44334411621094 19.15968322753906 8.414573669433594 23.65165710449219 6.299339294433594 28.65262985229492 C 4.110054016113281 33.82865524291992 3 39.32871246337891 3 45 C 3 50.67128753662109 4.110054016113281 56.17134475708008 6.299339294433594 61.34737396240234 C 8.414573669433594 66.34834289550781 11.44334411621094 70.84031677246094 15.301513671875 74.698486328125 C 19.15968322753906 78.55665588378906 23.65165710449219 81.58542633056641 28.65262985229492 83.70066070556641 C 33.82865524291992 85.88994598388672 39.32871246337891 87 45 87 C 50.67128753662109 87 56.17134475708008 85.88994598388672 61.34737396240234 83.70066070556641 C 66.34834289550781 81.58542633056641 70.84031677246094 78.55665588378906 74.698486328125 74.698486328125 C 78.55665588378906 70.84031677246094 81.58542633056641 66.34834289550781 83.70066070556641 61.34737396240234 C 85.88994598388672 56.17134475708008 87 50.67128753662109 87 45 C 87 39.32871246337891 85.88994598388672 33.82865524291992 83.70066070556641 28.65262985229492 C 81.58542633056641 23.65165710449219 78.55665588378906 19.15968322753906 74.698486328125 15.301513671875 C 70.84031677246094 11.44334411621094 66.34834289550781 8.414573669433594 61.34737396240234 6.299339294433594 C 56.17134475708008 4.110054016113281 50.67128753662109 3 45 3 M 45 0 C 69.85281372070312 0 90 20.14718627929688 90 45 C 90 69.85281372070312 69.85281372070312 90 45 90 C 20.14718627929688 90 0 69.85281372070312 0 45 C 0 20.14718627929688 20.14718627929688 0 45 0 Z" stroke="none" fill="#ee9865"/>
      </g>
    </g>
    <g id="_027-loan" data-name="027-loan" transform="translate(355.915 715.164)">
      <g id="Grupo_1151925" data-name="Grupo 1151925" transform="translate(1.001 1.032)">
        <path id="Trazado_987119" data-name="Trazado 987119" d="M13.1,10A3.1,3.1,0,0,0,10,13.1V54.374H41.991V13.1a3.1,3.1,0,0,1,3.1-3.1Z" transform="translate(-10 -10)" fill="#fff"/>
        <path id="Trazado_987120" data-name="Trazado 987120" d="M326.192,21.352H320V13.1a3.1,3.1,0,1,1,6.192,0Z" transform="translate(-288.009 -10)" fill="#f5eeec"/>
        <path id="Trazado_987121" data-name="Trazado 987121" d="M290.575,300.219H272v-16L281.288,277l9.288,7.224Z" transform="translate(-244.963 -249.447)" fill="#fff"/>
        <path id="Trazado_987122" data-name="Trazado 987122" d="M236.447,242,222,254.123h0l2.653,3.162,11.794-9.9,11.794,9.9,2.653-3.162Z" transform="translate(-200.122 -218.059)" fill="#ff9eb1"/>
        <path id="Trazado_987123" data-name="Trazado 987123" d="M332,412h6.192v9.288H332Z" transform="translate(-298.771 -370.515)" fill="#a0c8ff"/>
      </g>
      <g id="Grupo_1151926" data-name="Grupo 1151926" transform="translate(-0.379)">
        <ellipse id="Elipse_11775" data-name="Elipse 11775" cx="1.5" cy="1" rx="1.5" ry="1" transform="translate(0.184 13.836)"/>
        <path id="Trazado_987124" data-name="Trazado 987124" d="M124.858,45.172a1.032,1.032,0,0,0-1.431.286l-8.256,12.384a1.032,1.032,0,0,0,1.717,1.145L125.145,46.6A1.032,1.032,0,0,0,124.858,45.172Z" transform="translate(-102.784 -40.355)"/>
        <path id="Trazado_987125" data-name="Trazado 987125" d="M103.1,45a3.1,3.1,0,1,0,3.1,3.1A3.1,3.1,0,0,0,103.1,45Zm0,4.128a1.032,1.032,0,1,1,1.032-1.032A1.033,1.033,0,0,1,103.1,49.128Z" transform="translate(-89.333 -40.356)"/>
        <path id="Trazado_987126" data-name="Trazado 987126" d="M173.1,125a3.1,3.1,0,1,0,3.1,3.1A3.1,3.1,0,0,0,173.1,125Zm0,4.128a1.032,1.032,0,1,1,1.032-1.032A1.033,1.033,0,0,1,173.1,129.128Z" transform="translate(-152.11 -112.101)"/>
        <path id="Trazado_987127" data-name="Trazado 987127" d="M40.3,359.857a1.032,1.032,0,0,0,1.459,0l1.334-1.334,1.334,1.334a1.032,1.032,0,0,0,1.349.1l3.412-2.559,1.431,1.431a1.032,1.032,0,0,0,.73.3h2.064a1.032,1.032,0,0,0,0-2.064H51.779L50.018,355.3a1.032,1.032,0,0,0-1.349-.1l-3.412,2.559-1.431-1.431a1.032,1.032,0,0,0-1.459,0L40.3,358.4a1.032,1.032,0,0,0,0,1.459Z" transform="translate(-35.525 -318.365)"/>
        <path id="Trazado_987128" data-name="Trazado 987128" d="M135.6,215h-2.064a1.032,1.032,0,0,0,0,2.064H135.6a1.032,1.032,0,1,0,0-2.064Z" transform="translate(-118.479 -192.813)"/>
        <path id="Trazado_987129" data-name="Trazado 987129" d="M45,216.032a1.032,1.032,0,0,0,1.032,1.032h4.9a1.032,1.032,0,0,0,0-2.064h-4.9A1.032,1.032,0,0,0,45,216.032Z" transform="translate(-40.009 -192.813)"/>
        <path id="Trazado_987130" data-name="Trazado 987130" d="M192.5,216.032a1.032,1.032,0,0,0,1.032,1.032h8a1.032,1.032,0,0,0,0-2.064h-8A1.032,1.032,0,0,0,192.5,216.032Z" transform="translate(-172.288 -192.813)"/>
        <path id="Trazado_987131" data-name="Trazado 987131" d="M46.032,297.064H57.126a1.032,1.032,0,1,0,0-2.064H46.032a1.032,1.032,0,1,0,0,2.064Z" transform="translate(-40.009 -264.557)"/>
        <path id="Trazado_987132" data-name="Trazado 987132" d="M46.032,257.064H62.285a1.032,1.032,0,1,0,0-2.064H46.032a1.032,1.032,0,1,0,0,2.064Z" transform="translate(-40.009 -228.685)"/>
        <path id="Trazado_987133" data-name="Trazado 987133" d="M342,353.032a1.032,1.032,0,0,0,1.032,1.032H345.1a1.032,1.032,0,0,0,0-2.064h-2.064A1.032,1.032,0,0,0,342,353.032Z" transform="translate(-306.36 -315.675)"/>
        <path id="Trazado_987134" data-name="Trazado 987134" d="M52.468,36.306,38.02,24.183a1.032,1.032,0,0,0-1.327,0L34.055,26.4V13.415h5.16a1.032,1.032,0,0,0,1.032-1.032V4.128A4.133,4.133,0,0,0,36.119,0H4.128A4.133,4.133,0,0,0,0,4.128V10.32a1.032,1.032,0,0,0,2.064,0V4.128A2.066,2.066,0,0,1,4.128,2.064H32.545a4.1,4.1,0,0,0-.554,2.064v24l-9.744,8.177a1.032,1.032,0,0,0-.127,1.454l2.653,3.162a1.032,1.032,0,0,0,1.454.127l.811-.681v4.006H2.064V19.607a1.032,1.032,0,0,0-2.064,0v25.8a1.032,1.032,0,0,0,1.032,1.032H27.037V51.8a1.032,1.032,0,0,0,1.032,1.032H46.645A1.032,1.032,0,0,0,47.677,51.8V40.368l.811.681a1.032,1.032,0,0,0,1.454-.127l2.653-3.162a1.032,1.032,0,0,0-.127-1.454ZM34.055,4.128a2.064,2.064,0,1,1,4.128,0v7.224H34.055Zm5.366,46.645H35.293V43.549h4.128Zm6.192,0H41.485V42.517a1.032,1.032,0,0,0-1.032-1.032H34.261a1.032,1.032,0,0,0-1.032,1.032v8.256H29.1V38.636l8.256-6.927,8.256,6.927ZM49.024,38.8l-11-9.233a1.032,1.032,0,0,0-1.327,0l-11,9.233-1.327-1.581,12.993-10.9,12.994,10.9Z" transform="translate(0.347)"/>
      </g>
    </g>
  </g>
</svg>
