<svg xmlns="http://www.w3.org/2000/svg" xmlns:xlink="http://www.w3.org/1999/xlink" width="108" height="108" viewBox="0 0 108 108">
  <defs>
    <filter id="Fondo" x="0" y="0" width="108" height="108" filterUnits="userSpaceOnUse">
      <feOffset dy="3" input="SourceAlpha"/>
      <feGaussianBlur stdDeviation="3" result="blur"/>
      <feFlood flood-opacity="0.161"/>
      <feComposite operator="in" in2="blur"/>
      <feComposite in="SourceGraphic"/>
    </filter>
  </defs>
  <g id="Icono" transform="translate(-325.72 -689)">
    <g transform="matrix(1, 0, 0, 1, 325.72, 689)" filter="url(#Fondo)">
      <g id="Fondo-2" data-name="Fondo" transform="translate(9 6)" fill="#fbeadf">
        <path d="M 45 88.5 C 39.12687683105469 88.5 33.43022537231445 87.35007476806641 28.06830024719238 85.08217620849609 C 22.88852500915527 82.89131164550781 18.23629951477051 79.75458526611328 14.2408504486084 75.75914764404297 C 10.24541282653809 71.76370239257812 7.108687400817871 67.11147308349609 4.917825222015381 61.93170166015625 C 2.649924993515015 56.56977462768555 1.5 50.87312316894531 1.5 45 C 1.5 39.12687683105469 2.649924993515015 33.43022537231445 4.917825222015381 28.06830024719238 C 7.108687400817871 22.88852500915527 10.24541282653809 18.23629951477051 14.2408504486084 14.2408504486084 C 18.23629951477051 10.24541282653809 22.88852500915527 7.108687400817871 28.06830024719238 4.917825222015381 C 33.43022537231445 2.649924993515015 39.12687683105469 1.5 45 1.5 C 50.87312316894531 1.5 56.56977462768555 2.649924993515015 61.93170166015625 4.917825222015381 C 67.11147308349609 7.108687400817871 71.76370239257812 10.24541282653809 75.75914764404297 14.2408504486084 C 79.75458526611328 18.23629951477051 82.89131164550781 22.88852500915527 85.08217620849609 28.06830024719238 C 87.35007476806641 33.43022537231445 88.5 39.12687683105469 88.5 45 C 88.5 50.87312316894531 87.35007476806641 56.56977462768555 85.08217620849609 61.93170166015625 C 82.89131164550781 67.11147308349609 79.75458526611328 71.76370239257812 75.75914764404297 75.75914764404297 C 71.76370239257812 79.75458526611328 67.11147308349609 82.89131164550781 61.93170166015625 85.08217620849609 C 56.56977462768555 87.35007476806641 50.87312316894531 88.5 45 88.5 Z" stroke="none"/>
        <path d="M 45 3 C 39.32871246337891 3 33.82865524291992 4.110054016113281 28.65262985229492 6.299339294433594 C 23.65165710449219 8.414573669433594 19.15968322753906 11.44334411621094 15.301513671875 15.301513671875 C 11.44334411621094 19.15968322753906 8.414573669433594 23.65165710449219 6.299339294433594 28.65262985229492 C 4.110054016113281 33.82865524291992 3 39.32871246337891 3 45 C 3 50.67128753662109 4.110054016113281 56.17134475708008 6.299339294433594 61.34737396240234 C 8.414573669433594 66.34834289550781 11.44334411621094 70.84031677246094 15.301513671875 74.698486328125 C 19.15968322753906 78.55665588378906 23.65165710449219 81.58542633056641 28.65262985229492 83.70066070556641 C 33.82865524291992 85.88994598388672 39.32871246337891 87 45 87 C 50.67128753662109 87 56.17134475708008 85.88994598388672 61.34737396240234 83.70066070556641 C 66.34834289550781 81.58542633056641 70.84031677246094 78.55665588378906 74.698486328125 74.698486328125 C 78.55665588378906 70.84031677246094 81.58542633056641 66.34834289550781 83.70066070556641 61.34737396240234 C 85.88994598388672 56.17134475708008 87 50.67128753662109 87 45 C 87 39.32871246337891 85.88994598388672 33.82865524291992 83.70066070556641 28.65262985229492 C 81.58542633056641 23.65165710449219 78.55665588378906 19.15968322753906 74.698486328125 15.301513671875 C 70.84031677246094 11.44334411621094 66.34834289550781 8.414573669433594 61.34737396240234 6.299339294433594 C 56.17134475708008 4.110054016113281 50.67128753662109 3 45 3 M 45 0 C 69.85281372070312 0 90 20.14718627929688 90 45 C 90 69.85281372070312 69.85281372070312 90 45 90 C 20.14718627929688 90 0 69.85281372070312 0 45 C 0 20.14718627929688 20.14718627929688 0 45 0 Z" stroke="none" fill="#ee9865"/>
      </g>
    </g>
    <g id="_040-briefcase" data-name="040-briefcase" transform="translate(353.165 711.445)">
      <g id="Grupo_1151931" data-name="Grupo 1151931" transform="translate(1.066 7.459)">
        <path id="Trazado_987146" data-name="Trazado 987146" d="M70.49,150H30v21.31a2.131,2.131,0,0,0,2.131,2.131H68.359a2.131,2.131,0,0,0,2.131-2.131Z" transform="translate(-27.869 -141.476)" fill="#a0c8ff"/>
        <path id="Trazado_987147" data-name="Trazado 987147" d="M52.621,70H12.131A2.131,2.131,0,0,0,10,72.131V79.59a4.262,4.262,0,0,0,4.262,4.262H50.49a4.262,4.262,0,0,0,4.262-4.262V72.131A2.131,2.131,0,0,0,52.621,70Z" transform="translate(-10 -70)" fill="#bfdbff"/>
        <g id="Grupo_1151930" data-name="Grupo 1151930" transform="translate(6.393 10.655)">
          <path id="Trazado_987148" data-name="Trazado 987148" d="M72.131,170A2.131,2.131,0,0,0,70,172.131v2.131a2.131,2.131,0,0,0,4.262,0v-2.131A2.131,2.131,0,0,0,72.131,170Z" transform="translate(-70 -170)" fill="#fff2a0"/>
          <path id="Trazado_987149" data-name="Trazado 987149" d="M332.131,170A2.131,2.131,0,0,0,330,172.131v2.131a2.131,2.131,0,1,0,4.262,0v-2.131A2.131,2.131,0,0,0,332.131,170Z" transform="translate(-302.296 -170)" fill="#fff2a0"/>
          <path id="Trazado_987150" data-name="Trazado 987150" d="M138.647,452H122.664a2.664,2.664,0,0,0,0,5.328h15.983a2.664,2.664,0,1,0,0-5.328Z" transform="translate(-114.672 -421.952)" fill="#fff2a0"/>
        </g>
        <path id="Trazado_987151" data-name="Trazado 987151" d="M138.647,402H122.664a2.664,2.664,0,0,0,0,5.328h15.983a2.664,2.664,0,1,0,0-5.328Z" transform="translate(-108.279 -366.625)" fill="#fff7bf"/>
        <path id="Trazado_987152" data-name="Trazado 987152" d="M138.647,352H122.664a2.664,2.664,0,0,0,0,5.328h15.983a2.664,2.664,0,1,0,0-5.328Z" transform="translate(-108.279 -321.952)" fill="#fff2a0"/>
        <path id="Trazado_987153" data-name="Trazado 987153" d="M138.647,302H122.664a2.664,2.664,0,0,0,0,5.328h15.983a2.664,2.664,0,0,0,0-5.328Z" transform="translate(-108.279 -277.28)" fill="#fff7bf"/>
        <circle id="Elipse_11777" data-name="Elipse 11777" cx="10.5" cy="10.5" r="10.5" transform="translate(31.489 25.096)" fill="#fff2a0"/>
      </g>
      <g id="Grupo_1151932" data-name="Grupo 1151932">
        <path id="Trazado_987154" data-name="Trazado 987154" d="M211.081,192.131a1.066,1.066,0,0,0,0-2.131h0a1.066,1.066,0,1,0,0,2.131Z" transform="translate(-187.637 -169.755)"/>
        <path id="Trazado_987155" data-name="Trazado 987155" d="M44.752,31.271V21.308a5.323,5.323,0,0,0,2.131-4.259V9.59a3.2,3.2,0,0,0-3.2-3.2H30.9V3.2A3.2,3.2,0,0,0,27.7,0H19.179a3.2,3.2,0,0,0-3.2,3.2v3.2H3.2A3.2,3.2,0,0,0,0,9.59v7.459a5.323,5.323,0,0,0,2.131,4.259V37.293a3.2,3.2,0,0,0,3.2,3.2h6.408a3.719,3.719,0,0,0,1.108,2.344,3.721,3.721,0,0,0,0,5.328,3.727,3.727,0,0,0,2.606,6.393H31.433a3.735,3.735,0,0,0,3.645-2.942,11.718,11.718,0,1,0,9.674-20.342ZM18.114,3.2a1.067,1.067,0,0,1,1.066-1.066H27.7A1.067,1.067,0,0,1,28.769,3.2v3.2H18.114ZM4.262,37.293V22.269a5.329,5.329,0,0,0,1.066.107H6.393a3.2,3.2,0,0,0,6.393,0h5.86a1.066,1.066,0,0,0,0-2.131h-5.86a3.2,3.2,0,0,0-6.393,0H5.328a3.2,3.2,0,0,1-3.2-3.2V9.59A1.067,1.067,0,0,1,3.2,8.524h40.49A1.067,1.067,0,0,1,44.752,9.59v7.459a3.2,3.2,0,0,1-3.2,3.2H40.49a3.2,3.2,0,0,0-6.393,0h-5.86a1.066,1.066,0,0,0,0,2.131H34.1a3.2,3.2,0,0,0,6.393,0h1.066a5.329,5.329,0,0,0,1.066-.107v8.847a11.671,11.671,0,0,0-7.543,2.939,3.735,3.735,0,0,0-3.645-2.942H15.45a3.727,3.727,0,0,0-2.606,6.393,3.758,3.758,0,0,0-.652.852H5.328a1.067,1.067,0,0,1-1.066-1.066ZM8.524,22.376V20.245a1.066,1.066,0,0,1,2.131,0v2.131a1.066,1.066,0,0,1-2.131,0Zm29.835-2.131v2.131a1.066,1.066,0,1,1-2.131,0V20.245a1.066,1.066,0,0,1,2.131,0Zm-7.2,21.524H15.45a1.6,1.6,0,1,1,0-3.2H31.433a1.6,1.6,0,0,1,.457.067,11.628,11.628,0,0,0-.728,3.129Zm.728,5.26a1.6,1.6,0,0,1-.457.067H15.45a1.6,1.6,0,1,1,0-3.2H31.162A11.628,11.628,0,0,0,31.89,47.029Zm-.457,5.395H15.45a1.6,1.6,0,1,1,0-3.2H31.433a1.6,1.6,0,0,1,0,3.2Zm0-15.983H15.45a1.6,1.6,0,1,1,0-3.2H31.433a1.6,1.6,0,1,1,0,3.2Zm11.4,15.983a9.59,9.59,0,1,1,9.59-9.59A9.6,9.6,0,0,1,42.834,52.424Z"/>
        <path id="Trazado_987156" data-name="Trazado 987156" d="M371.88,338.4a9.919,9.919,0,0,1-2.516-1.168.81.81,0,0,1-.18-.768,1.12,1.12,0,0,1,.736-.883,2.008,2.008,0,0,1,1.846.291l-.014-.012h0a1.064,1.064,0,1,0,1.443-1.565h0a3.823,3.823,0,0,0-1.7-.841v-.383a1.066,1.066,0,1,0-2.131,0v.453l-.062.017a3.228,3.228,0,0,0-2.216,2.529,2.884,2.884,0,0,0,.959,2.84,10.864,10.864,0,0,0,3.121,1.5,1.283,1.283,0,0,1,.93,1.5,1.687,1.687,0,0,1-1.674,1.423,2.834,2.834,0,0,1-2.038-.534,1.066,1.066,0,1,0-1.167,1.783,4.61,4.61,0,0,0,2.146.837v.432a1.066,1.066,0,0,0,2.131,0v-.538a3.873,3.873,0,0,0,2.7-3.05A3.417,3.417,0,0,0,371.88,338.4Z" transform="translate(-327.661 -296.625)"/>
      </g>
    </g>
  </g>
</svg>
