<svg xmlns="http://www.w3.org/2000/svg" width="820" height="322.498" viewBox="0 0 820 322.498">
  <g id="Grupo_1151965" data-name="Grupo 1151965" transform="translate(-390 -1984.596)">
    <path id="Trazado_986335" data-name="Trazado 986335" d="M399.793,103.226V264.04s3.718,10.69,29.745,10.225,244.011,0,244.011,0V325.39L833.433,192,673.549,58.607V110.2H431.4S403.046,112.521,399.793,103.226Z" transform="translate(376.567 1981.703)" fill="#fadfd0"/>
    <path id="Trazado_986336" data-name="Trazado 986336" d="M434.421,62.419s-3.719-10.69-29.746-10.225-244.01,0-244.01,0V1.068L.781,134.46,160.665,267.851V216.261H382.958V94.893s-2.092-16.732,28.119-16.964S434.421,62.419,434.421,62.419Z" transform="translate(389.219 1983.528)" fill="#fadfd0"/>
    <path id="Trazado_986337" data-name="Trazado 986337" d="M447.743,107.522V76.847s-2.867,5.81-22.155,7.436-26.028,6.275-25.8,11.155C401.186,108.568,428.376,108.249,447.743,107.522Z" transform="translate(376.567 1981.125)" fill="#825337"/>
    <path id="Trazado_987403" data-name="Trazado 987403" d="M20.8,15H14.28V.605h6.992a4.447,4.447,0,0,1,3.75,1.533,3.648,3.648,0,0,1,.664,2.2,3.213,3.213,0,0,1-.664,2.119,3.428,3.428,0,0,1-1.094.82,3.209,3.209,0,0,1,1.665,1.27,3.8,3.8,0,0,1,.562,2.109,4.192,4.192,0,0,1-.645,2.295A3.986,3.986,0,0,1,22.849,14.8,10.083,10.083,0,0,1,20.8,15Zm-.068-6.338H17.151V12.5h3.535a3.47,3.47,0,0,0,1.475-.254,1.808,1.808,0,0,0,.957-1.8,1.544,1.544,0,0,0-.928-1.543A3.717,3.717,0,0,0,20.735,8.662Zm1.494-2.744a1.346,1.346,0,0,0,.586-1.26,1.288,1.288,0,0,0-.781-1.328,5.529,5.529,0,0,0-1.719-.225H17.151V6.279h3.535A2.942,2.942,0,0,0,22.229,5.918Zm9.084-1.562V15H28.491V4.355Zm0-3.838V3.086H28.491V.518ZM43.122,11.875a3.531,3.531,0,0,1-.986,1.924,4.832,4.832,0,0,1-3.828,1.553,5.4,5.4,0,0,1-3.584-1.309,5.278,5.278,0,0,1-1.553-4.258,5.918,5.918,0,0,1,1.4-4.238A4.792,4.792,0,0,1,38.21,4.072a5.579,5.579,0,0,1,2.393.5A4.191,4.191,0,0,1,42.36,6.143a5.364,5.364,0,0,1,.811,2.2,14.191,14.191,0,0,1,.088,2.109H35.973A2.645,2.645,0,0,0,36.979,12.7a2.369,2.369,0,0,0,1.387.4,2,2,0,0,0,1.4-.488,2.319,2.319,0,0,0,.518-.732ZM40.368,8.613A2.423,2.423,0,0,0,39.7,6.938a2.077,2.077,0,0,0-1.489-.571,1.89,1.89,0,0,0-1.5.605,3.022,3.022,0,0,0-.669,1.641Zm9.777-2.2a1.938,1.938,0,0,0-1.943,1.2,4.126,4.126,0,0,0-.273,1.621V15H45.155V4.375h2.686V5.928a4.725,4.725,0,0,1,1.016-1.182A3.53,3.53,0,0,1,51.034,4.1a4.109,4.109,0,0,1,2.7.864,3.514,3.514,0,0,1,1.05,2.866V15H51.932V8.525a2.954,2.954,0,0,0-.225-1.289A1.58,1.58,0,0,0,50.145,6.416Zm16.32,5.459a3.531,3.531,0,0,1-.986,1.924,4.832,4.832,0,0,1-3.828,1.553,5.4,5.4,0,0,1-3.584-1.309,5.278,5.278,0,0,1-1.553-4.258,5.918,5.918,0,0,1,1.4-4.238,4.792,4.792,0,0,1,3.638-1.475,5.579,5.579,0,0,1,2.393.5A4.191,4.191,0,0,1,65.7,6.143a5.364,5.364,0,0,1,.811,2.2,14.19,14.19,0,0,1,.088,2.109H59.317A2.645,2.645,0,0,0,60.323,12.7a2.369,2.369,0,0,0,1.387.4,2,2,0,0,0,1.4-.488,2.319,2.319,0,0,0,.518-.732ZM63.712,8.613a2.423,2.423,0,0,0-.669-1.675,2.077,2.077,0,0,0-1.489-.571,1.89,1.89,0,0,0-1.5.605,3.022,3.022,0,0,0-.669,1.641Zm12.1-3.77A3.429,3.429,0,0,1,77.249,7.6H74.466a1.646,1.646,0,0,0-.3-.85A1.9,1.9,0,0,0,72.6,6.182a2.245,2.245,0,0,0-1.294.283.815.815,0,0,0-.386.664.727.727,0,0,0,.41.693,17.756,17.756,0,0,0,2.9.771,5.327,5.327,0,0,1,2.49,1.182,2.683,2.683,0,0,1,.82,2,3.235,3.235,0,0,1-1.177,2.583,5.529,5.529,0,0,1-3.638,1,5.476,5.476,0,0,1-3.706-1.06,3.447,3.447,0,0,1-1.2-2.7h2.822a1.859,1.859,0,0,0,.381,1.055,2.575,2.575,0,0,0,1.914.557,2.918,2.918,0,0,0,1.3-.244.819.819,0,0,0,.093-1.445,15.891,15.891,0,0,0-2.9-.84,6.041,6.041,0,0,1-2.549-1.123,2.435,2.435,0,0,1-.742-1.914A3.32,3.32,0,0,1,69.3,5.112a4.648,4.648,0,0,1,3.257-1.06A6.03,6.03,0,0,1,75.813,4.844Zm13.676,7.363,2.2-7.852h2.959L90.993,14.824a14.7,14.7,0,0,1-1.67,3.755,3.173,3.173,0,0,1-2.461.728q-.371,0-.6,0t-.674-.034V17.041l.352.02a4.386,4.386,0,0,0,.781-.029,1.4,1.4,0,0,0,.625-.225,1.5,1.5,0,0,0,.454-.693,1.466,1.466,0,0,0,.171-.645L84.069,4.355h3.1Zm19.691-7.363A3.429,3.429,0,0,1,110.616,7.6h-2.783a1.646,1.646,0,0,0-.3-.85,1.9,1.9,0,0,0-1.562-.566,2.245,2.245,0,0,0-1.294.283.815.815,0,0,0-.386.664.727.727,0,0,0,.41.693,17.756,17.756,0,0,0,2.9.771,5.327,5.327,0,0,1,2.49,1.182,2.683,2.683,0,0,1,.82,2,3.235,3.235,0,0,1-1.177,2.583,7.06,7.06,0,0,1-7.344-.059,3.447,3.447,0,0,1-1.2-2.7h2.822a1.859,1.859,0,0,0,.381,1.055,2.575,2.575,0,0,0,1.914.557,2.918,2.918,0,0,0,1.3-.244.819.819,0,0,0,.093-1.445,15.891,15.891,0,0,0-2.9-.84,6.041,6.041,0,0,1-2.549-1.123,2.435,2.435,0,0,1-.742-1.914,3.32,3.32,0,0,1,1.157-2.534,4.648,4.648,0,0,1,3.257-1.06A6.03,6.03,0,0,1,109.181,4.844Zm12.9,7.031A3.531,3.531,0,0,1,121.1,13.8a4.832,4.832,0,0,1-3.828,1.553,5.4,5.4,0,0,1-3.584-1.309,5.278,5.278,0,0,1-1.553-4.258,5.918,5.918,0,0,1,1.4-4.238,4.792,4.792,0,0,1,3.638-1.475,5.579,5.579,0,0,1,2.393.5,4.191,4.191,0,0,1,1.758,1.572,5.364,5.364,0,0,1,.811,2.2,14.19,14.19,0,0,1,.088,2.109h-7.285A2.645,2.645,0,0,0,115.94,12.7a2.369,2.369,0,0,0,1.387.4,2,2,0,0,0,1.4-.488,2.319,2.319,0,0,0,.518-.732Zm-2.754-3.262a2.423,2.423,0,0,0-.669-1.675,2.077,2.077,0,0,0-1.489-.571,1.89,1.89,0,0,0-1.5.605A3.022,3.022,0,0,0,115,8.613Zm10.119-1.689a2.308,2.308,0,0,0-2.256,1.094,4.255,4.255,0,0,0-.322,1.895V15h-2.8V4.355h2.656V6.211a5.884,5.884,0,0,1,1.123-1.455,3.057,3.057,0,0,1,2.031-.654q.078,0,.132,0t.239.015V6.973q-.264-.029-.469-.039T129.448,6.924Zm1.389-2.568h3.125l2.217,7.852,2.266-7.852h2.988L137.595,15h-2.939Zm15.031,0V15h-2.822V4.355Zm0-3.838V3.086h-2.822V.518Zm11.906,7.656h-2.852a2.47,2.47,0,0,0-.4-1.074,1.679,1.679,0,0,0-1.455-.645,1.916,1.916,0,0,0-1.924,1.4,5.839,5.839,0,0,0-.273,1.973,5.368,5.368,0,0,0,.273,1.885,1.857,1.857,0,0,0,1.875,1.328,1.653,1.653,0,0,0,1.387-.527,2.625,2.625,0,0,0,.5-1.367h2.842a4.656,4.656,0,0,1-.918,2.4,4.462,4.462,0,0,1-3.877,1.826,4.535,4.535,0,0,1-3.779-1.523,6.164,6.164,0,0,1-1.211-3.955A6.255,6.255,0,0,1,149.3,5.625,4.657,4.657,0,0,1,152.99,4.1a5.558,5.558,0,0,1,3.276.9A4.179,4.179,0,0,1,157.775,8.174Zm4.777-3.818V15H159.73V4.355Zm0-3.838V3.086H159.73V.518ZM174.126,5.7A6.212,6.212,0,0,1,175.474,9.7a6.171,6.171,0,0,1-1.348,4.009,5.86,5.86,0,0,1-8.184,0A6.171,6.171,0,0,1,164.6,9.7,6.212,6.212,0,0,1,165.943,5.7a5.8,5.8,0,0,1,8.184,0Zm-4.1.664a2.224,2.224,0,0,0-1.88.864,4,4,0,0,0-.659,2.466,4.021,4.021,0,0,0,.659,2.471,2.462,2.462,0,0,0,3.755,0,4.043,4.043,0,0,0,.654-2.471,4.021,4.021,0,0,0-.654-2.466A2.211,2.211,0,0,0,170.025,6.367ZM184.8,4.844A3.429,3.429,0,0,1,186.238,7.6h-2.783a1.646,1.646,0,0,0-.3-.85,1.9,1.9,0,0,0-1.562-.566,2.245,2.245,0,0,0-1.294.283.815.815,0,0,0-.386.664.727.727,0,0,0,.41.693,17.756,17.756,0,0,0,2.9.771,5.327,5.327,0,0,1,2.49,1.182,2.683,2.683,0,0,1,.82,2,3.235,3.235,0,0,1-1.177,2.583,7.06,7.06,0,0,1-7.344-.059,3.447,3.447,0,0,1-1.2-2.7h2.822a1.859,1.859,0,0,0,.381,1.055,2.575,2.575,0,0,0,1.914.557,2.918,2.918,0,0,0,1.3-.244.819.819,0,0,0,.093-1.445,15.891,15.891,0,0,0-2.9-.84,6.041,6.041,0,0,1-2.549-1.123,2.435,2.435,0,0,1-.742-1.914,3.32,3.32,0,0,1,1.157-2.534,4.648,4.648,0,0,1,3.257-1.06A6.03,6.03,0,0,1,184.8,4.844ZM52.983,32.5a5.711,5.711,0,0,1,1.289,4.043,6.412,6.412,0,0,1-1.265,4.287A4.094,4.094,0,0,1,49.751,42.3a3.4,3.4,0,0,1-2.109-.635,4.092,4.092,0,0,1-.9-1.025v5.547H43.989V31.355h2.666v1.572a4.468,4.468,0,0,1,.957-1.094,3.516,3.516,0,0,1,2.207-.713A4.186,4.186,0,0,1,52.983,32.5ZM51.4,36.678A4.189,4.189,0,0,0,50.84,34.5a1.955,1.955,0,0,0-1.821-.947,2.072,2.072,0,0,0-2.08,1.436,5.445,5.445,0,0,0-.293,1.934,3.084,3.084,0,0,0,.986,2.607,2.246,2.246,0,0,0,1.387.439,2.009,2.009,0,0,0,1.772-.9A4.19,4.19,0,0,0,51.4,36.678Zm10.236-2.754a2.308,2.308,0,0,0-2.256,1.094,4.255,4.255,0,0,0-.322,1.895V42h-2.8V31.355h2.656v1.855a5.884,5.884,0,0,1,1.123-1.455,3.057,3.057,0,0,1,2.031-.654q.078,0,.132,0t.239.015v2.852q-.264-.029-.469-.039T61.638,33.924ZM72.948,32.7a6.614,6.614,0,0,1,0,8,4.952,4.952,0,0,1-4.092,1.665,4.952,4.952,0,0,1-4.092-1.665,6.614,6.614,0,0,1,0-8,4.918,4.918,0,0,1,4.092-1.689A4.918,4.918,0,0,1,72.948,32.7Zm-4.1.664a2.224,2.224,0,0,0-1.88.864,4,4,0,0,0-.659,2.466,4.021,4.021,0,0,0,.659,2.471,2.462,2.462,0,0,0,3.755,0,4.043,4.043,0,0,0,.654-2.471,4.021,4.021,0,0,0-.654-2.466A2.211,2.211,0,0,0,68.847,33.367Zm17.131-5.742V42H83.272V40.525A3.926,3.926,0,0,1,81.915,41.9a3.811,3.811,0,0,1-1.895.43,3.956,3.956,0,0,1-3.14-1.509,5.794,5.794,0,0,1-1.274-3.872,6.664,6.664,0,0,1,1.255-4.287A4.083,4.083,0,0,1,80.216,31.1a3.433,3.433,0,0,1,1.719.425A3.381,3.381,0,0,1,83.155,32.7V27.625Zm-7.5,9.121a4.185,4.185,0,0,0,.586,2.354,1.951,1.951,0,0,0,1.758.889,2.055,2.055,0,0,0,1.8-.879,3.883,3.883,0,0,0,.615-2.275,3.49,3.49,0,0,0-.986-2.793,2.123,2.123,0,0,0-1.406-.508,1.955,1.955,0,0,0-1.792.923A4.276,4.276,0,0,0,78.477,36.746ZM95.335,40.5q-.039.049-.2.293a1.96,1.96,0,0,1-.371.43,3.876,3.876,0,0,1-1.265.8,4.31,4.31,0,0,1-1.431.215,3.189,3.189,0,0,1-3.184-1.7,6.5,6.5,0,0,1-.459-2.764V31.355h2.852v6.416a3.359,3.359,0,0,0,.215,1.367,1.487,1.487,0,0,0,1.494.811A1.953,1.953,0,0,0,94.944,38.8a4.172,4.172,0,0,0,.273-1.65V31.355H98.04V42H95.335Zm14.6-5.322h-2.852a2.47,2.47,0,0,0-.4-1.074,1.679,1.679,0,0,0-1.455-.645,1.916,1.916,0,0,0-1.924,1.4,5.839,5.839,0,0,0-.273,1.973,5.369,5.369,0,0,0,.273,1.885,1.857,1.857,0,0,0,1.875,1.328,1.653,1.653,0,0,0,1.387-.527,2.625,2.625,0,0,0,.5-1.367h2.842a4.656,4.656,0,0,1-.918,2.4,4.462,4.462,0,0,1-3.877,1.826,4.535,4.535,0,0,1-3.779-1.523,6.165,6.165,0,0,1-1.211-3.955,6.255,6.255,0,0,1,1.338-4.268,4.657,4.657,0,0,1,3.691-1.523,5.558,5.558,0,0,1,3.276.9A4.179,4.179,0,0,1,109.937,35.174Zm4.777-3.818V42h-2.822V31.355Zm0-3.838v2.568h-2.822V27.518Zm12.385.107V42h-2.705V40.525a3.926,3.926,0,0,1-1.357,1.377,3.811,3.811,0,0,1-1.895.43A3.956,3.956,0,0,1,118,40.823a5.794,5.794,0,0,1-1.274-3.872,6.664,6.664,0,0,1,1.255-4.287,4.083,4.083,0,0,1,3.354-1.562,3.433,3.433,0,0,1,1.719.425,3.381,3.381,0,0,1,1.221,1.177V27.625Zm-7.5,9.121a4.185,4.185,0,0,0,.586,2.354,1.951,1.951,0,0,0,1.758.889,2.055,2.055,0,0,0,1.8-.879,3.883,3.883,0,0,0,.615-2.275,3.49,3.49,0,0,0-.986-2.793,2.123,2.123,0,0,0-1.406-.508,1.955,1.955,0,0,0-1.792.923A4.276,4.276,0,0,0,119.6,36.746ZM138.507,32.7a6.614,6.614,0,0,1,0,8,5.86,5.86,0,0,1-8.184,0,6.614,6.614,0,0,1,0-8,5.8,5.8,0,0,1,8.184,0Zm-4.1.664a2.224,2.224,0,0,0-1.88.864,4,4,0,0,0-.659,2.466,4.021,4.021,0,0,0,.659,2.471,2.462,2.462,0,0,0,3.755,0,4.043,4.043,0,0,0,.654-2.471,4.021,4.021,0,0,0-.654-2.466A2.211,2.211,0,0,0,134.405,33.367Zm14.777-1.523a3.429,3.429,0,0,1,1.436,2.754h-2.783a1.646,1.646,0,0,0-.3-.85,1.9,1.9,0,0,0-1.562-.566,2.245,2.245,0,0,0-1.294.283.815.815,0,0,0-.386.664.727.727,0,0,0,.41.693,17.756,17.756,0,0,0,2.9.771,5.327,5.327,0,0,1,2.49,1.182,2.683,2.683,0,0,1,.82,2,3.235,3.235,0,0,1-1.177,2.583,7.06,7.06,0,0,1-7.344-.059,3.447,3.447,0,0,1-1.2-2.7h2.822a1.858,1.858,0,0,0,.381,1.055,2.575,2.575,0,0,0,1.914.557,2.918,2.918,0,0,0,1.3-.244.819.819,0,0,0,.093-1.445,15.891,15.891,0,0,0-2.9-.84,6.041,6.041,0,0,1-2.549-1.123,2.435,2.435,0,0,1-.742-1.914,3.32,3.32,0,0,1,1.157-2.534,4.648,4.648,0,0,1,3.257-1.06A6.03,6.03,0,0,1,149.183,31.844Zm3.742,7.246h2.959V42h-2.959Z" transform="translate(558 2091.967)" fill="#212429"/>
    <path id="Trazado_987404" data-name="Trazado 987404" d="M53.815,15h-6.2V.605h6.2a7.566,7.566,0,0,1,2.227.313,4.752,4.752,0,0,1,2.451,1.826,6.406,6.406,0,0,1,1.025,2.324,11.157,11.157,0,0,1,.273,2.383,9.568,9.568,0,0,1-1.152,4.863A5.2,5.2,0,0,1,53.815,15ZM56.052,4.277a2.923,2.923,0,0,0-2.744-1.172H50.534V12.5h2.773a3,3,0,0,0,2.969-2.1,7.405,7.405,0,0,0,.459-2.744A6.825,6.825,0,0,0,56.052,4.277Zm14.895,7.6A3.531,3.531,0,0,1,69.96,13.8a4.832,4.832,0,0,1-3.828,1.553,5.4,5.4,0,0,1-3.584-1.309,5.278,5.278,0,0,1-1.553-4.258,5.918,5.918,0,0,1,1.4-4.238,4.792,4.792,0,0,1,3.638-1.475,5.579,5.579,0,0,1,2.393.5,4.191,4.191,0,0,1,1.758,1.572,5.364,5.364,0,0,1,.811,2.2,14.19,14.19,0,0,1,.088,2.109H63.8A2.645,2.645,0,0,0,64.8,12.7a2.369,2.369,0,0,0,1.387.4,2,2,0,0,0,1.4-.488,2.319,2.319,0,0,0,.518-.732ZM68.192,8.613a2.423,2.423,0,0,0-.669-1.675,2.077,2.077,0,0,0-1.489-.571,1.89,1.89,0,0,0-1.5.605,3.022,3.022,0,0,0-.669,1.641ZM78.936,7.285a1.363,1.363,0,0,0-1.377-.771,1.643,1.643,0,0,0-1.6.771,2.973,2.973,0,0,0-.225,1.309V15H72.911V4.375h2.705V5.928a4.479,4.479,0,0,1,.977-1.182,3.864,3.864,0,0,1,4.072-.088,3.124,3.124,0,0,1,.918,1.279A3.539,3.539,0,0,1,82.94,4.561a4.142,4.142,0,0,1,1.914-.439,3.705,3.705,0,0,1,1.387.273,3.094,3.094,0,0,1,1.24.957,3.058,3.058,0,0,1,.605,1.367,9.45,9.45,0,0,1,.1,1.572L88.165,15H85.313V8.223a2.224,2.224,0,0,0-.2-1,1.388,1.388,0,0,0-1.367-.742,1.6,1.6,0,0,0-1.592.957,3.005,3.005,0,0,0-.225,1.221V15h-2.8V8.662A3.559,3.559,0,0,0,78.936,7.285ZM91.145,5.508A4.545,4.545,0,0,1,94.935,4.1a6.732,6.732,0,0,1,3.105.693A2.662,2.662,0,0,1,99.4,7.412v4.883q0,.508.02,1.23a1.547,1.547,0,0,0,.166.742,1,1,0,0,0,.41.322V15H96.966a3.1,3.1,0,0,1-.176-.605q-.049-.283-.078-.645a5.718,5.718,0,0,1-1.328,1.064,4,4,0,0,1-2.031.518,3.492,3.492,0,0,1-2.388-.825,2.943,2.943,0,0,1-.942-2.339,3.036,3.036,0,0,1,1.514-2.842,6.721,6.721,0,0,1,2.441-.684l.947-.117a4.344,4.344,0,0,0,1.1-.244.837.837,0,0,0,.6-.791.939.939,0,0,0-.454-.9,2.837,2.837,0,0,0-1.333-.249,1.737,1.737,0,0,0-1.4.488,2.029,2.029,0,0,0-.391.977H90.364A4.084,4.084,0,0,1,91.145,5.508Zm2.07,7.48a1.454,1.454,0,0,0,.957.322,2.835,2.835,0,0,0,1.655-.527,2.249,2.249,0,0,0,.786-1.924V9.824a3.024,3.024,0,0,1-.532.269,4.451,4.451,0,0,1-.737.19l-.625.117a4.036,4.036,0,0,0-1.26.381,1.277,1.277,0,0,0-.645,1.182A1.222,1.222,0,0,0,93.216,12.988ZM106.88,6.416a1.938,1.938,0,0,0-1.943,1.2,4.126,4.126,0,0,0-.273,1.621V15H101.89V4.375h2.686V5.928a4.725,4.725,0,0,1,1.016-1.182,3.53,3.53,0,0,1,2.178-.645,4.109,4.109,0,0,1,2.7.864,3.514,3.514,0,0,1,1.05,2.866V15h-2.852V8.525a2.954,2.954,0,0,0-.225-1.289A1.58,1.58,0,0,0,106.88,6.416Zm16.9-5.791V15h-2.705V13.525a3.926,3.926,0,0,1-1.357,1.377,3.811,3.811,0,0,1-1.895.43,3.956,3.956,0,0,1-3.14-1.509,5.794,5.794,0,0,1-1.274-3.872,6.664,6.664,0,0,1,1.255-4.287A4.083,4.083,0,0,1,118.015,4.1a3.433,3.433,0,0,1,1.719.425A3.381,3.381,0,0,1,120.954,5.7V.625Zm-7.5,9.121a4.185,4.185,0,0,0,.586,2.354,1.951,1.951,0,0,0,1.758.889,2.055,2.055,0,0,0,1.8-.879,3.883,3.883,0,0,0,.615-2.275,3.49,3.49,0,0,0-.986-2.793,2.123,2.123,0,0,0-1.406-.508,1.955,1.955,0,0,0-1.792.923A4.276,4.276,0,0,0,116.276,9.746Zm10.432-4.238A4.545,4.545,0,0,1,130.5,4.1a6.732,6.732,0,0,1,3.105.693,2.662,2.662,0,0,1,1.357,2.617v4.883q0,.508.02,1.23a1.547,1.547,0,0,0,.166.742,1,1,0,0,0,.41.322V15h-3.027a3.1,3.1,0,0,1-.176-.605q-.049-.283-.078-.645a5.718,5.718,0,0,1-1.328,1.064,4,4,0,0,1-2.031.518,3.492,3.492,0,0,1-2.388-.825,2.943,2.943,0,0,1-.942-2.339A3.036,3.036,0,0,1,127.1,9.326a6.721,6.721,0,0,1,2.441-.684l.947-.117a4.344,4.344,0,0,0,1.1-.244.837.837,0,0,0,.6-.791.939.939,0,0,0-.454-.9,2.837,2.837,0,0,0-1.333-.249,1.737,1.737,0,0,0-1.4.488,2.03,2.03,0,0,0-.391.977h-2.686A4.084,4.084,0,0,1,126.708,5.508Zm2.07,7.48a1.454,1.454,0,0,0,.957.322,2.835,2.835,0,0,0,1.655-.527,2.249,2.249,0,0,0,.786-1.924V9.824a3.025,3.025,0,0,1-.532.269,4.451,4.451,0,0,1-.737.19l-.625.117a4.036,4.036,0,0,0-1.26.381,1.277,1.277,0,0,0-.645,1.182A1.222,1.222,0,0,0,128.778,12.988ZM151.868,5.7A6.212,6.212,0,0,1,153.216,9.7a6.171,6.171,0,0,1-1.348,4.009,5.86,5.86,0,0,1-8.184,0A6.171,6.171,0,0,1,142.337,9.7,6.212,6.212,0,0,1,143.685,5.7a5.8,5.8,0,0,1,8.184,0Zm-4.1.664a2.224,2.224,0,0,0-1.88.864,4,4,0,0,0-.659,2.466,4.021,4.021,0,0,0,.659,2.471,2.462,2.462,0,0,0,3.755,0A4.043,4.043,0,0,0,150.3,9.7a4.021,4.021,0,0,0-.654-2.466A2.211,2.211,0,0,0,147.767,6.367ZM27.7,35.174H24.844a2.47,2.47,0,0,0-.4-1.074,1.679,1.679,0,0,0-1.455-.645,1.916,1.916,0,0,0-1.924,1.4,5.839,5.839,0,0,0-.273,1.973,5.369,5.369,0,0,0,.273,1.885,1.857,1.857,0,0,0,1.875,1.328,1.653,1.653,0,0,0,1.387-.527,2.625,2.625,0,0,0,.5-1.367h2.842a4.656,4.656,0,0,1-.918,2.4,4.462,4.462,0,0,1-3.877,1.826,4.535,4.535,0,0,1-3.779-1.523,6.164,6.164,0,0,1-1.211-3.955,6.255,6.255,0,0,1,1.338-4.268A4.657,4.657,0,0,1,22.911,31.1a5.558,5.558,0,0,1,3.276.9A4.179,4.179,0,0,1,27.7,35.174ZM38.489,32.7a6.614,6.614,0,0,1,0,8A4.952,4.952,0,0,1,34.4,42.371a4.952,4.952,0,0,1-4.092-1.665,6.614,6.614,0,0,1,0-8A4.918,4.918,0,0,1,34.4,31.014,4.918,4.918,0,0,1,38.489,32.7Zm-4.1.664a2.224,2.224,0,0,0-1.88.864,4,4,0,0,0-.659,2.466,4.021,4.021,0,0,0,.659,2.471,2.462,2.462,0,0,0,3.755,0,4.043,4.043,0,0,0,.654-2.471,4.021,4.021,0,0,0-.654-2.466A2.211,2.211,0,0,0,34.387,33.367Zm12.453.049a1.938,1.938,0,0,0-1.943,1.2,4.126,4.126,0,0,0-.273,1.621V42H41.85V31.375h2.686v1.553a4.725,4.725,0,0,1,1.016-1.182,3.53,3.53,0,0,1,2.178-.645,4.109,4.109,0,0,1,2.7.864,3.514,3.514,0,0,1,1.05,2.866V42H48.628V35.525a2.954,2.954,0,0,0-.225-1.289A1.58,1.58,0,0,0,46.841,33.416Zm14.543-1.572A3.429,3.429,0,0,1,62.819,34.6H60.036a1.646,1.646,0,0,0-.3-.85,1.9,1.9,0,0,0-1.562-.566,2.245,2.245,0,0,0-1.294.283.815.815,0,0,0-.386.664.727.727,0,0,0,.41.693,17.756,17.756,0,0,0,2.9.771,5.327,5.327,0,0,1,2.49,1.182,2.683,2.683,0,0,1,.82,2,3.235,3.235,0,0,1-1.177,2.583,5.529,5.529,0,0,1-3.638,1,5.476,5.476,0,0,1-3.706-1.06,3.447,3.447,0,0,1-1.2-2.7h2.822a1.858,1.858,0,0,0,.381,1.055,2.575,2.575,0,0,0,1.914.557,2.918,2.918,0,0,0,1.3-.244.819.819,0,0,0,.093-1.445,15.891,15.891,0,0,0-2.9-.84,6.041,6.041,0,0,1-2.549-1.123,2.435,2.435,0,0,1-.742-1.914,3.32,3.32,0,0,1,1.157-2.534,4.648,4.648,0,0,1,3.257-1.06A6.03,6.03,0,0,1,61.384,31.844ZM72,40.5q-.039.049-.2.293a1.96,1.96,0,0,1-.371.43,3.876,3.876,0,0,1-1.265.8,4.31,4.31,0,0,1-1.431.215,3.189,3.189,0,0,1-3.184-1.7,6.5,6.5,0,0,1-.459-2.764V31.355h2.852v6.416a3.359,3.359,0,0,0,.215,1.367,1.487,1.487,0,0,0,1.494.811A1.953,1.953,0,0,0,71.61,38.8a4.172,4.172,0,0,0,.273-1.65V31.355h2.822V42H72ZM83.37,34.285a1.363,1.363,0,0,0-1.377-.771,1.643,1.643,0,0,0-1.6.771,2.973,2.973,0,0,0-.225,1.309V42H77.345V31.375H80.05v1.553a4.479,4.479,0,0,1,.977-1.182,3.864,3.864,0,0,1,4.072-.088,3.124,3.124,0,0,1,.918,1.279,3.539,3.539,0,0,1,1.357-1.377,4.142,4.142,0,0,1,1.914-.439,3.705,3.705,0,0,1,1.387.273,3.094,3.094,0,0,1,1.24.957,3.058,3.058,0,0,1,.605,1.367,9.45,9.45,0,0,1,.1,1.572L92.6,42H89.747V35.223a2.224,2.224,0,0,0-.2-1,1.388,1.388,0,0,0-1.367-.742,1.6,1.6,0,0,0-1.592.957,3.005,3.005,0,0,0-.225,1.221V42h-2.8V35.662A3.559,3.559,0,0,0,83.37,34.285Zm14.67-2.93V42H95.218V31.355Zm0-3.838v2.568H95.218V27.518Zm12.385.107V42H107.72V40.525a3.926,3.926,0,0,1-1.357,1.377,3.811,3.811,0,0,1-1.895.43,3.956,3.956,0,0,1-3.14-1.509,5.794,5.794,0,0,1-1.274-3.872,6.664,6.664,0,0,1,1.255-4.287,4.083,4.083,0,0,1,3.354-1.562,3.433,3.433,0,0,1,1.719.425A3.381,3.381,0,0,1,107.6,32.7V27.625Zm-7.5,9.121a4.185,4.185,0,0,0,.586,2.354,1.951,1.951,0,0,0,1.758.889,2.055,2.055,0,0,0,1.8-.879,3.883,3.883,0,0,0,.615-2.275,3.49,3.49,0,0,0-.986-2.793,2.123,2.123,0,0,0-1.406-.508,1.955,1.955,0,0,0-1.792.923A4.276,4.276,0,0,0,102.925,36.746ZM121.833,32.7a6.614,6.614,0,0,1,0,8,5.86,5.86,0,0,1-8.184,0,6.614,6.614,0,0,1,0-8,5.8,5.8,0,0,1,8.184,0Zm-4.1.664a2.224,2.224,0,0,0-1.88.864,4,4,0,0,0-.659,2.466,4.021,4.021,0,0,0,.659,2.471,2.462,2.462,0,0,0,3.755,0,4.043,4.043,0,0,0,.654-2.471,4.021,4.021,0,0,0-.654-2.466A2.211,2.211,0,0,0,117.731,33.367Zm12.795.557a2.308,2.308,0,0,0-2.256,1.094,4.255,4.255,0,0,0-.322,1.895V42h-2.8V31.355H127.8v1.855a5.884,5.884,0,0,1,1.123-1.455,3.057,3.057,0,0,1,2.031-.654q.078,0,.132,0t.239.015v2.852q-.264-.029-.469-.039T130.526,33.924Zm11.545,4.951a3.531,3.531,0,0,1-.986,1.924,4.832,4.832,0,0,1-3.828,1.553,5.4,5.4,0,0,1-3.584-1.309,5.278,5.278,0,0,1-1.553-4.258,5.918,5.918,0,0,1,1.4-4.238,4.792,4.792,0,0,1,3.638-1.475,5.579,5.579,0,0,1,2.393.5,4.191,4.191,0,0,1,1.758,1.572,5.364,5.364,0,0,1,.811,2.2,14.192,14.192,0,0,1,.088,2.109h-7.285a2.645,2.645,0,0,0,1.006,2.246,2.369,2.369,0,0,0,1.387.4,2,2,0,0,0,1.4-.488,2.319,2.319,0,0,0,.518-.732Zm-2.754-3.262a2.423,2.423,0,0,0-.669-1.675,2.077,2.077,0,0,0-1.489-.571,1.89,1.89,0,0,0-1.5.605,3.022,3.022,0,0,0-.669,1.641Zm12.1-3.77a3.429,3.429,0,0,1,1.436,2.754h-2.783a1.646,1.646,0,0,0-.3-.85,1.9,1.9,0,0,0-1.562-.566,2.245,2.245,0,0,0-1.294.283.815.815,0,0,0-.386.664.727.727,0,0,0,.41.693,17.756,17.756,0,0,0,2.9.771,5.327,5.327,0,0,1,2.49,1.182,2.683,2.683,0,0,1,.82,2,3.235,3.235,0,0,1-1.177,2.583,7.06,7.06,0,0,1-7.344-.059,3.447,3.447,0,0,1-1.2-2.7h2.822a1.858,1.858,0,0,0,.381,1.055,2.575,2.575,0,0,0,1.914.557,2.918,2.918,0,0,0,1.3-.244.819.819,0,0,0,.093-1.445,15.891,15.891,0,0,0-2.9-.84,6.041,6.041,0,0,1-2.549-1.123,2.435,2.435,0,0,1-.742-1.914,3.32,3.32,0,0,1,1.157-2.534,4.648,4.648,0,0,1,3.257-1.06A6.03,6.03,0,0,1,151.419,31.844Zm19.037-4.219V42h-2.705V40.525a3.926,3.926,0,0,1-1.357,1.377,3.811,3.811,0,0,1-1.895.43,3.956,3.956,0,0,1-3.14-1.509,5.794,5.794,0,0,1-1.274-3.872,6.664,6.664,0,0,1,1.255-4.287,4.083,4.083,0,0,1,3.354-1.562,3.433,3.433,0,0,1,1.719.425,3.381,3.381,0,0,1,1.221,1.177V27.625Zm-7.5,9.121a4.185,4.185,0,0,0,.586,2.354,1.951,1.951,0,0,0,1.758.889,2.055,2.055,0,0,0,1.8-.879,3.883,3.883,0,0,0,.615-2.275,3.49,3.49,0,0,0-.986-2.793,2.123,2.123,0,0,0-1.406-.508,1.955,1.955,0,0,0-1.792.923A4.276,4.276,0,0,0,162.956,36.746ZM182.1,38.875a3.531,3.531,0,0,1-.986,1.924,4.832,4.832,0,0,1-3.828,1.553,5.4,5.4,0,0,1-3.584-1.309,5.278,5.278,0,0,1-1.553-4.258,5.918,5.918,0,0,1,1.4-4.238,4.792,4.792,0,0,1,3.638-1.475,5.579,5.579,0,0,1,2.393.5,4.191,4.191,0,0,1,1.758,1.572,5.364,5.364,0,0,1,.811,2.2,14.192,14.192,0,0,1,.088,2.109h-7.285a2.645,2.645,0,0,0,1.006,2.246,2.369,2.369,0,0,0,1.387.4,2,2,0,0,0,1.4-.488,2.319,2.319,0,0,0,.518-.732Zm-2.754-3.262a2.423,2.423,0,0,0-.669-1.675,2.077,2.077,0,0,0-1.489-.571,1.89,1.89,0,0,0-1.5.605,3.022,3.022,0,0,0-.669,1.641ZM41.476,65.875A3.531,3.531,0,0,1,40.49,67.8a4.832,4.832,0,0,1-3.828,1.553,5.4,5.4,0,0,1-3.584-1.309,5.278,5.278,0,0,1-1.553-4.258,5.918,5.918,0,0,1,1.4-4.238,4.792,4.792,0,0,1,3.638-1.475,5.579,5.579,0,0,1,2.393.5,4.191,4.191,0,0,1,1.758,1.572,5.364,5.364,0,0,1,.811,2.2,14.191,14.191,0,0,1,.088,2.109H34.328A2.645,2.645,0,0,0,35.334,66.7a2.369,2.369,0,0,0,1.387.4,2,2,0,0,0,1.4-.488,2.319,2.319,0,0,0,.518-.732Zm-2.754-3.262a2.423,2.423,0,0,0-.669-1.675,2.077,2.077,0,0,0-1.489-.571,1.89,1.89,0,0,0-1.5.605,3.022,3.022,0,0,0-.669,1.641Zm12.1-3.77A3.429,3.429,0,0,1,52.26,61.6H49.476a1.646,1.646,0,0,0-.3-.85,1.9,1.9,0,0,0-1.562-.566,2.245,2.245,0,0,0-1.294.283.815.815,0,0,0-.386.664.727.727,0,0,0,.41.693,17.756,17.756,0,0,0,2.9.771,5.327,5.327,0,0,1,2.49,1.182,2.683,2.683,0,0,1,.82,2,3.235,3.235,0,0,1-1.177,2.583,5.529,5.529,0,0,1-3.638,1,5.476,5.476,0,0,1-3.706-1.06,3.447,3.447,0,0,1-1.2-2.7h2.822a1.859,1.859,0,0,0,.381,1.055,2.575,2.575,0,0,0,1.914.557,2.918,2.918,0,0,0,1.3-.244.819.819,0,0,0,.093-1.445,15.891,15.891,0,0,0-2.9-.84A6.041,6.041,0,0,1,43.9,63.561a2.435,2.435,0,0,1-.742-1.914,3.32,3.32,0,0,1,1.157-2.534,4.648,4.648,0,0,1,3.257-1.06A6.03,6.03,0,0,1,50.824,58.844Zm8.664,8.174V69.1l-1.318.049a3.538,3.538,0,0,1-2.7-.684,2.035,2.035,0,0,1-.469-1.475V60.436H53.521V58.453h1.484V55.484H57.76v2.969h1.729v1.982H57.76v5.625a1.267,1.267,0,0,0,.166.815,1.828,1.828,0,0,0,1.016.161q.127,0,.269,0T59.488,67.018ZM70.154,59.7a6.614,6.614,0,0,1,0,8,4.952,4.952,0,0,1-4.092,1.665,4.952,4.952,0,0,1-4.092-1.665,6.614,6.614,0,0,1,0-8,4.918,4.918,0,0,1,4.092-1.689A4.918,4.918,0,0,1,70.154,59.7Zm-4.1.664a2.224,2.224,0,0,0-1.88.864,4.951,4.951,0,0,0,0,4.937,2.462,2.462,0,0,0,3.755,0,4.983,4.983,0,0,0,0-4.937A2.211,2.211,0,0,0,66.053,60.367ZM80.83,58.844A3.429,3.429,0,0,1,82.266,61.6H79.482a1.646,1.646,0,0,0-.3-.85,1.9,1.9,0,0,0-1.562-.566,2.245,2.245,0,0,0-1.294.283.815.815,0,0,0-.386.664.727.727,0,0,0,.41.693,17.756,17.756,0,0,0,2.9.771,5.327,5.327,0,0,1,2.49,1.182,2.683,2.683,0,0,1,.82,2,3.235,3.235,0,0,1-1.177,2.583,5.529,5.529,0,0,1-3.638,1,5.476,5.476,0,0,1-3.706-1.06,3.447,3.447,0,0,1-1.2-2.7h2.822a1.859,1.859,0,0,0,.381,1.055,2.575,2.575,0,0,0,1.914.557,2.918,2.918,0,0,0,1.3-.244.819.819,0,0,0,.093-1.445,15.891,15.891,0,0,0-2.9-.84,6.041,6.041,0,0,1-2.549-1.123,2.435,2.435,0,0,1-.742-1.914,3.32,3.32,0,0,1,1.157-2.534,4.648,4.648,0,0,1,3.257-1.06A6.03,6.03,0,0,1,80.83,58.844ZM95.961,69.283a3.8,3.8,0,0,1-2.119-.527,4.233,4.233,0,0,1-1.035-1.094V69H90.082V54.625h2.773v5.117a4.061,4.061,0,0,1,1.162-1.133,3.452,3.452,0,0,1,1.914-.488,3.943,3.943,0,0,1,3.286,1.514,6.145,6.145,0,0,1,1.187,3.906,6.868,6.868,0,0,1-1.172,4.111A3.8,3.8,0,0,1,95.961,69.283Zm1.523-5.449a5.151,5.151,0,0,0-.293-1.875,2.041,2.041,0,0,0-2.051-1.406,2.071,2.071,0,0,0-2.08,1.377,5.168,5.168,0,0,0-.293,1.895,3.968,3.968,0,0,0,.605,2.266,2.073,2.073,0,0,0,1.846.9,1.91,1.91,0,0,0,1.67-.869A3.969,3.969,0,0,0,97.484,63.834Zm7.775-5.479V69h-2.822V58.355Zm0-3.838v2.568h-2.822V54.518Zm11.809,11.357a3.531,3.531,0,0,1-.986,1.924,4.832,4.832,0,0,1-3.828,1.553,5.4,5.4,0,0,1-3.584-1.309,5.278,5.278,0,0,1-1.553-4.258,5.918,5.918,0,0,1,1.4-4.238,4.792,4.792,0,0,1,3.638-1.475,5.579,5.579,0,0,1,2.393.5,4.191,4.191,0,0,1,1.758,1.572,5.364,5.364,0,0,1,.811,2.2,14.19,14.19,0,0,1,.088,2.109H109.92a2.645,2.645,0,0,0,1.006,2.246,2.369,2.369,0,0,0,1.387.4,2,2,0,0,0,1.4-.488,2.319,2.319,0,0,0,.518-.732Zm-2.754-3.262a2.423,2.423,0,0,0-.669-1.675,2.077,2.077,0,0,0-1.489-.571,1.89,1.89,0,0,0-1.5.605,3.022,3.022,0,0,0-.669,1.641Zm9.777-2.2a1.938,1.938,0,0,0-1.943,1.2,4.126,4.126,0,0,0-.273,1.621V69H119.1V58.375h2.686v1.553a4.725,4.725,0,0,1,1.016-1.182,3.53,3.53,0,0,1,2.178-.645,4.109,4.109,0,0,1,2.7.864,3.514,3.514,0,0,1,1.05,2.866V69h-2.852V62.525a2.954,2.954,0,0,0-.225-1.289A1.58,1.58,0,0,0,124.092,60.416Zm16.32,5.459a3.531,3.531,0,0,1-.986,1.924,4.832,4.832,0,0,1-3.828,1.553,5.4,5.4,0,0,1-3.584-1.309,5.278,5.278,0,0,1-1.553-4.258,5.918,5.918,0,0,1,1.4-4.238,4.792,4.792,0,0,1,3.638-1.475,5.579,5.579,0,0,1,2.393.5,4.191,4.191,0,0,1,1.758,1.572,5.364,5.364,0,0,1,.811,2.2,14.192,14.192,0,0,1,.088,2.109h-7.285A2.645,2.645,0,0,0,134.27,66.7a2.369,2.369,0,0,0,1.387.4,2,2,0,0,0,1.4-.488,2.319,2.319,0,0,0,.518-.732Zm-2.754-3.262a2.423,2.423,0,0,0-.669-1.675,2.077,2.077,0,0,0-1.489-.571,1.89,1.89,0,0,0-1.5.605,3.022,3.022,0,0,0-.669,1.641Zm12.1-3.77A3.429,3.429,0,0,1,151.2,61.6h-2.783a1.646,1.646,0,0,0-.3-.85,1.9,1.9,0,0,0-1.562-.566,2.245,2.245,0,0,0-1.294.283.815.815,0,0,0-.386.664.727.727,0,0,0,.41.693,17.756,17.756,0,0,0,2.9.771,5.327,5.327,0,0,1,2.49,1.182,2.683,2.683,0,0,1,.82,2,3.235,3.235,0,0,1-1.177,2.583,7.06,7.06,0,0,1-7.344-.059,3.447,3.447,0,0,1-1.2-2.7h2.822a1.859,1.859,0,0,0,.381,1.055,2.575,2.575,0,0,0,1.914.557,2.918,2.918,0,0,0,1.3-.244.819.819,0,0,0,.093-1.445,15.891,15.891,0,0,0-2.9-.84,6.041,6.041,0,0,1-2.549-1.123,2.435,2.435,0,0,1-.742-1.914,3.32,3.32,0,0,1,1.157-2.534,4.648,4.648,0,0,1,3.257-1.06A6.03,6.03,0,0,1,149.76,58.844Zm13.676,7.363,2.2-7.852h2.959L164.94,68.824a14.7,14.7,0,0,1-1.67,3.755,3.173,3.173,0,0,1-2.461.728q-.371,0-.6,0t-.674-.034V71.041l.352.02a4.386,4.386,0,0,0,.781-.029,1.4,1.4,0,0,0,.625-.225,1.5,1.5,0,0,0,.454-.693,1.466,1.466,0,0,0,.171-.645l-3.906-11.113h3.1ZM65.261,85.844A3.429,3.429,0,0,1,66.7,88.6H63.913a1.646,1.646,0,0,0-.3-.85,1.9,1.9,0,0,0-1.562-.566,2.245,2.245,0,0,0-1.294.283.815.815,0,0,0-.386.664.727.727,0,0,0,.41.693,17.756,17.756,0,0,0,2.9.771,5.327,5.327,0,0,1,2.49,1.182,2.683,2.683,0,0,1,.82,2,3.235,3.235,0,0,1-1.177,2.583,5.529,5.529,0,0,1-3.638,1,5.476,5.476,0,0,1-3.706-1.06,3.447,3.447,0,0,1-1.2-2.7h2.822a1.859,1.859,0,0,0,.381,1.055,2.575,2.575,0,0,0,1.914.557,2.918,2.918,0,0,0,1.3-.244.819.819,0,0,0,.093-1.445,15.891,15.891,0,0,0-2.9-.84,6.041,6.041,0,0,1-2.549-1.123,2.435,2.435,0,0,1-.742-1.914,3.32,3.32,0,0,1,1.157-2.534,4.648,4.648,0,0,1,3.257-1.06A6.03,6.03,0,0,1,65.261,85.844Zm12.9,7.031a3.531,3.531,0,0,1-.986,1.924,4.832,4.832,0,0,1-3.828,1.553,5.4,5.4,0,0,1-3.584-1.309,5.278,5.278,0,0,1-1.553-4.258,5.918,5.918,0,0,1,1.4-4.238,4.792,4.792,0,0,1,3.638-1.475,5.579,5.579,0,0,1,2.393.5A4.191,4.191,0,0,1,77.4,87.143a5.364,5.364,0,0,1,.811,2.2,14.19,14.19,0,0,1,.088,2.109H71.015A2.645,2.645,0,0,0,72.02,93.7a2.369,2.369,0,0,0,1.387.4,2,2,0,0,0,1.4-.488,2.319,2.319,0,0,0,.518-.732Zm-2.754-3.262a2.423,2.423,0,0,0-.669-1.675,2.077,2.077,0,0,0-1.489-.571,1.89,1.89,0,0,0-1.5.605,3.022,3.022,0,0,0-.669,1.641Zm10.119-1.689a2.308,2.308,0,0,0-2.256,1.094,4.255,4.255,0,0,0-.322,1.895V96h-2.8V85.355H82.8v1.855a5.884,5.884,0,0,1,1.123-1.455,3.057,3.057,0,0,1,2.031-.654q.078,0,.132,0t.239.015v2.852q-.264-.029-.469-.039T85.528,87.924Zm1.389-2.568h3.125l2.217,7.852,2.266-7.852h2.988L93.675,96H90.735Zm15.031,0V96H99.126V85.355Zm0-3.838v2.568H99.126V81.518Zm11.906,7.656H111a2.47,2.47,0,0,0-.4-1.074,1.679,1.679,0,0,0-1.455-.645,1.916,1.916,0,0,0-1.924,1.4,5.839,5.839,0,0,0-.273,1.973,5.369,5.369,0,0,0,.273,1.885,1.857,1.857,0,0,0,1.875,1.328,1.653,1.653,0,0,0,1.387-.527,2.625,2.625,0,0,0,.5-1.367h2.842a4.656,4.656,0,0,1-.918,2.4,4.462,4.462,0,0,1-3.877,1.826,4.535,4.535,0,0,1-3.779-1.523,6.165,6.165,0,0,1-1.211-3.955,6.255,6.255,0,0,1,1.338-4.268,4.657,4.657,0,0,1,3.691-1.523,5.558,5.558,0,0,1,3.276.9A4.179,4.179,0,0,1,113.855,89.174Zm4.777-3.818V96H115.81V85.355Zm0-3.838v2.568H115.81V81.518ZM130.206,86.7a6.614,6.614,0,0,1,0,8,5.86,5.86,0,0,1-8.184,0,6.614,6.614,0,0,1,0-8,5.8,5.8,0,0,1,8.184,0Zm-4.1.664a2.224,2.224,0,0,0-1.88.864,4.951,4.951,0,0,0,0,4.937,2.462,2.462,0,0,0,3.755,0,4.983,4.983,0,0,0,0-4.937A2.211,2.211,0,0,0,126.1,87.367Zm14.777-1.523a3.429,3.429,0,0,1,1.436,2.754h-2.783a1.646,1.646,0,0,0-.3-.85,1.9,1.9,0,0,0-1.562-.566,2.245,2.245,0,0,0-1.294.283.815.815,0,0,0-.386.664.727.727,0,0,0,.41.693,17.756,17.756,0,0,0,2.9.771,5.327,5.327,0,0,1,2.49,1.182,2.683,2.683,0,0,1,.82,2,3.235,3.235,0,0,1-1.177,2.583,7.06,7.06,0,0,1-7.344-.059,3.447,3.447,0,0,1-1.2-2.7h2.822a1.859,1.859,0,0,0,.381,1.055,2.575,2.575,0,0,0,1.914.557,2.918,2.918,0,0,0,1.3-.244.819.819,0,0,0,.093-1.445,15.891,15.891,0,0,0-2.9-.84,6.041,6.041,0,0,1-2.549-1.123,2.435,2.435,0,0,1-.742-1.914,3.32,3.32,0,0,1,1.157-2.534,4.648,4.648,0,0,1,3.257-1.06A6.03,6.03,0,0,1,140.882,85.844Z" transform="translate(819 2120.967)" fill="#212429"/>
  </g>
</svg>
