<svg xmlns="http://www.w3.org/2000/svg" xmlns:xlink="http://www.w3.org/1999/xlink" width="108" height="108" viewBox="0 0 108 108">
  <defs>
    <filter id="Fondo" x="0" y="0" width="108" height="108" filterUnits="userSpaceOnUse">
      <feOffset dy="3" input="SourceAlpha"/>
      <feGaussianBlur stdDeviation="3" result="blur"/>
      <feFlood flood-opacity="0.161"/>
      <feComposite operator="in" in2="blur"/>
      <feComposite in="SourceGraphic"/>
    </filter>
  </defs>
  <g id="Icono" transform="translate(-325.72 -689)">
    <g transform="matrix(1, 0, 0, 1, 325.72, 689)" filter="url(#Fondo)">
      <g id="Fondo-2" data-name="Fondo" transform="translate(9 6)" fill="#fbeadf">
        <path d="M 45 88.5 C 39.12687683105469 88.5 33.43022537231445 87.35007476806641 28.06830024719238 85.08217620849609 C 22.88852500915527 82.89131164550781 18.23629951477051 79.75458526611328 14.2408504486084 75.75914764404297 C 10.24541282653809 71.76370239257812 7.108687400817871 67.11147308349609 4.917825222015381 61.93170166015625 C 2.649924993515015 56.56977462768555 1.5 50.87312316894531 1.5 45 C 1.5 39.12687683105469 2.649924993515015 33.43022537231445 4.917825222015381 28.06830024719238 C 7.108687400817871 22.88852500915527 10.24541282653809 18.23629951477051 14.2408504486084 14.2408504486084 C 18.23629951477051 10.24541282653809 22.88852500915527 7.108687400817871 28.06830024719238 4.917825222015381 C 33.43022537231445 2.649924993515015 39.12687683105469 1.5 45 1.5 C 50.87312316894531 1.5 56.56977462768555 2.649924993515015 61.93170166015625 4.917825222015381 C 67.11147308349609 7.108687400817871 71.76370239257812 10.24541282653809 75.75914764404297 14.2408504486084 C 79.75458526611328 18.23629951477051 82.89131164550781 22.88852500915527 85.08217620849609 28.06830024719238 C 87.35007476806641 33.43022537231445 88.5 39.12687683105469 88.5 45 C 88.5 50.87312316894531 87.35007476806641 56.56977462768555 85.08217620849609 61.93170166015625 C 82.89131164550781 67.11147308349609 79.75458526611328 71.76370239257812 75.75914764404297 75.75914764404297 C 71.76370239257812 79.75458526611328 67.11147308349609 82.89131164550781 61.93170166015625 85.08217620849609 C 56.56977462768555 87.35007476806641 50.87312316894531 88.5 45 88.5 Z" stroke="none"/>
        <path d="M 45 3 C 39.32871246337891 3 33.82865524291992 4.110054016113281 28.65262985229492 6.299339294433594 C 23.65165710449219 8.414573669433594 19.15968322753906 11.44334411621094 15.301513671875 15.301513671875 C 11.44334411621094 19.15968322753906 8.414573669433594 23.65165710449219 6.299339294433594 28.65262985229492 C 4.110054016113281 33.82865524291992 3 39.32871246337891 3 45 C 3 50.67128753662109 4.110054016113281 56.17134475708008 6.299339294433594 61.34737396240234 C 8.414573669433594 66.34834289550781 11.44334411621094 70.84031677246094 15.301513671875 74.698486328125 C 19.15968322753906 78.55665588378906 23.65165710449219 81.58542633056641 28.65262985229492 83.70066070556641 C 33.82865524291992 85.88994598388672 39.32871246337891 87 45 87 C 50.67128753662109 87 56.17134475708008 85.88994598388672 61.34737396240234 83.70066070556641 C 66.34834289550781 81.58542633056641 70.84031677246094 78.55665588378906 74.698486328125 74.698486328125 C 78.55665588378906 70.84031677246094 81.58542633056641 66.34834289550781 83.70066070556641 61.34737396240234 C 85.88994598388672 56.17134475708008 87 50.67128753662109 87 45 C 87 39.32871246337891 85.88994598388672 33.82865524291992 83.70066070556641 28.65262985229492 C 81.58542633056641 23.65165710449219 78.55665588378906 19.15968322753906 74.698486328125 15.301513671875 C 70.84031677246094 11.44334411621094 66.34834289550781 8.414573669433594 61.34737396240234 6.299339294433594 C 56.17134475708008 4.110054016113281 50.67128753662109 3 45 3 M 45 0 C 69.85281372070312 0 90 20.14718627929688 90 45 C 90 69.85281372070312 69.85281372070312 90 45 90 C 20.14718627929688 90 0 69.85281372070312 0 45 C 0 20.14718627929688 20.14718627929688 0 45 0 Z" stroke="none" fill="#ee9865"/>
      </g>
    </g>
    <g id="_021-bank" data-name="021-bank" transform="translate(353.72 711)">
      <g id="Grupo_1151923" data-name="Grupo 1151923" transform="translate(1.055 1.055)">
        <path id="Trazado_987106" data-name="Trazado 987106" d="M10,462H61.891v4.219H10Z" transform="translate(-10 -414.328)" fill="#a0c8ff"/>
        <path id="Trazado_987107" data-name="Trazado 987107" d="M63.168,10H46.293L31,21.6v3.375H78.461V21.6Z" transform="translate(-28.785 -10)" fill="#a0c8ff"/>
        <path id="Trazado_987108" data-name="Trazado 987108" d="M31,192H41.547v4.219H31Z" transform="translate(-28.785 -172.805)" fill="#fff2a0"/>
        <path id="Trazado_987109" data-name="Trazado 987109" d="M51,232h6.328v20.039H51Z" transform="translate(-46.676 -208.586)" fill="#a0c8ff"/>
        <path id="Trazado_987110" data-name="Trazado 987110" d="M31,422H41.547v4.219H31Z" transform="translate(-28.785 -378.547)" fill="#fff2a0"/>
        <path id="Trazado_987111" data-name="Trazado 987111" d="M381,192h10.547v4.219H381Z" transform="translate(-341.871 -172.805)" fill="#fff2a0"/>
        <path id="Trazado_987112" data-name="Trazado 987112" d="M401,232h6.328v20.039H401Z" transform="translate(-359.762 -208.586)" fill="#a0c8ff"/>
        <path id="Trazado_987113" data-name="Trazado 987113" d="M381,422h10.547v4.219H381Z" transform="translate(-341.871 -378.547)" fill="#fff2a0"/>
        <ellipse id="Elipse_11772" data-name="Elipse 11772" cx="3" cy="3.5" rx="3" ry="3.5" transform="translate(22.945 3.945)" fill="#b6bccf"/>
        <ellipse id="Elipse_11773" data-name="Elipse 11773" cx="10" cy="10.5" rx="10" ry="10.5" transform="translate(15.945 22.945)" fill="#fff2a0"/>
        <path id="Trazado_987114" data-name="Trazado 987114" d="M10,152H61.891v4.219H10Z" transform="translate(-10 -137.023)" fill="#fff"/>
      </g>
      <g id="Grupo_1151924" data-name="Grupo 1151924" transform="translate(0 0)">
        <path id="Trazado_987115" data-name="Trazado 987115" d="M50.73,25.523a1.055,1.055,0,0,0,1.055-1.055V21.3h1.16A1.055,1.055,0,0,0,54,20.25V16.031a1.055,1.055,0,0,0-1.055-1.055h-1.16v-2.32a1.055,1.055,0,0,0-.417-.84L36.075.214A1.055,1.055,0,0,0,35.437,0H18.562a1.055,1.055,0,0,0-.637.214L2.632,11.816a1.055,1.055,0,0,0-.417.84v2.32H1.055A1.055,1.055,0,0,0,0,16.031V20.25A1.055,1.055,0,0,0,1.055,21.3h1.16v3.164A1.055,1.055,0,0,0,3.27,25.523H4.324v17.93H3.27a1.055,1.055,0,0,0-1.055,1.055v3.164H1.055A1.055,1.055,0,0,0,0,48.727v4.219A1.055,1.055,0,0,0,1.055,54H52.945A1.055,1.055,0,0,0,54,52.945V48.727a1.055,1.055,0,0,0-1.055-1.055h-1.16V44.508a1.055,1.055,0,0,0-1.055-1.055H49.676V25.523ZM4.324,13.18,18.917,2.109H35.083L49.676,13.18v1.8H4.324ZM2.109,19.2V17.086H51.891V19.2H31.746a1.055,1.055,0,1,0,0,2.109h7.383v3.164a1.055,1.055,0,0,0,1.055,1.055h1.055v17.93H40.184a1.055,1.055,0,0,0-1.055,1.055v3.164H14.871V44.508a1.055,1.055,0,0,0-1.055-1.055H12.762V25.523h1.055a1.055,1.055,0,0,0,1.055-1.055V21.3h7.383a1.055,1.055,0,1,0,0-2.109ZM49.676,45.562v2.109H41.238V45.562Zm-6.328-2.109V25.523h4.219v17.93ZM4.324,23.414V21.3h8.437v2.109Zm6.328,2.109v17.93H6.434V25.523ZM4.324,45.562h8.437v2.109H4.324Zm47.566,4.219v2.109H2.109V49.781ZM41.238,23.414V21.3h8.438v2.109Z" transform="translate(0 0)"/>
        <path id="Trazado_987116" data-name="Trazado 987116" d="M220.219,42a4.219,4.219,0,1,0,4.219,4.219A4.224,4.224,0,0,0,220.219,42Zm0,6.328a2.109,2.109,0,1,1,2.109-2.109A2.112,2.112,0,0,1,220.219,48.328Z" transform="translate(-193.219 -37.57)"/>
        <path id="Trazado_987117" data-name="Trazado 987117" d="M151,233.074A11.074,11.074,0,1,0,162.074,222,11.087,11.087,0,0,0,151,233.074Zm20.039,0a8.965,8.965,0,1,1-8.965-8.965A8.975,8.975,0,0,1,171.039,233.074Z" transform="translate(-135.074 -198.586)"/>
        <circle id="Elipse_11774" data-name="Elipse 11774" cx="1" cy="1" r="1" transform="translate(26 19)"/>
        <path id="Trazado_987118" data-name="Trazado 987118" d="M225.227,263.055v.345a3.017,3.017,0,0,0-2.065,2.361,2.7,2.7,0,0,0,.9,2.662,10.4,10.4,0,0,0,2.857,1.376,1.069,1.069,0,0,1,.786,1.268,1.444,1.444,0,0,1-1.433,1.218,2.478,2.478,0,0,1-1.8-.47,1.055,1.055,0,0,0-1.155,1.765,4.286,4.286,0,0,0,1.908.765v.313a1.055,1.055,0,0,0,2.109,0v-.422a3.607,3.607,0,0,0,2.451-2.819,3.186,3.186,0,0,0-2.164-3.606,8.939,8.939,0,0,1-2.258-1.046.661.661,0,0,1-.131-.612.929.929,0,0,1,.607-.734,1.53,1.53,0,0,1,1.51.165,1.055,1.055,0,0,0,1.578-1.4,3.061,3.061,0,0,0-1.593-.887v-.241a1.055,1.055,0,0,0-2.109,0Z" transform="translate(-199.339 -234.367)"/>
      </g>
    </g>
  </g>
</svg>
