<svg xmlns="http://www.w3.org/2000/svg" xmlns:xlink="http://www.w3.org/1999/xlink" width="108" height="108" viewBox="0 0 108 108">
  <defs>
    <filter id="Trazado_982538" x="0" y="0" width="108" height="108" filterUnits="userSpaceOnUse">
      <feOffset dy="3" input="SourceAlpha"/>
      <feGaussianBlur stdDeviation="3" result="blur"/>
      <feFlood flood-opacity="0.161"/>
      <feComposite operator="in" in2="blur"/>
      <feComposite in="SourceGraphic"/>
    </filter>
  </defs>
  <g id="Grupo_1151936" data-name="Grupo 1151936" transform="translate(-201 -1919)">
    <g id="Grupo_1151623" data-name="Grupo 1151623" transform="translate(0 -8371)">
      <g id="Grupo_1150893" data-name="Grupo 1150893" transform="translate(0 7321)">
        <g transform="matrix(1, 0, 0, 1, 201, 2969)" filter="url(#Trazado_982538)">
          <g id="Trazado_982538-2" data-name="Trazado 982538" transform="translate(9 6)" fill="#f3f3f3">
            <path d="M 45 88.5 C 39.12687683105469 88.5 33.43022537231445 87.35007476806641 28.06830024719238 85.08217620849609 C 22.88852500915527 82.89131164550781 18.23629951477051 79.75458526611328 14.2408504486084 75.75914764404297 C 10.24541282653809 71.76370239257812 7.108687400817871 67.11147308349609 4.917825222015381 61.93170166015625 C 2.649924993515015 56.56977462768555 1.5 50.87312316894531 1.5 45 C 1.5 39.12687683105469 2.649924993515015 33.43022537231445 4.917825222015381 28.06830024719238 C 7.108687400817871 22.88852500915527 10.24541282653809 18.23629951477051 14.2408504486084 14.2408504486084 C 18.23629951477051 10.24541282653809 22.88852500915527 7.108687400817871 28.06830024719238 4.917825222015381 C 33.43022537231445 2.649924993515015 39.12687683105469 1.5 45 1.5 C 50.87312316894531 1.5 56.56977462768555 2.649924993515015 61.93170166015625 4.917825222015381 C 67.11147308349609 7.108687400817871 71.76370239257812 10.24541282653809 75.75914764404297 14.2408504486084 C 79.75458526611328 18.23629951477051 82.89131164550781 22.88852500915527 85.08217620849609 28.06830024719238 C 87.35007476806641 33.43022537231445 88.5 39.12687683105469 88.5 45 C 88.5 50.87312316894531 87.35007476806641 56.56977462768555 85.08217620849609 61.93170166015625 C 82.89131164550781 67.11147308349609 79.75458526611328 71.76370239257812 75.75914764404297 75.75914764404297 C 71.76370239257812 79.75458526611328 67.11147308349609 82.89131164550781 61.93170166015625 85.08217620849609 C 56.56977462768555 87.35007476806641 50.87312316894531 88.5 45 88.5 Z" stroke="none"/>
            <path d="M 45 3 C 39.32871246337891 3 33.82865524291992 4.110054016113281 28.65262985229492 6.299339294433594 C 23.65165710449219 8.414573669433594 19.15968322753906 11.44334411621094 15.301513671875 15.301513671875 C 11.44334411621094 19.15968322753906 8.414573669433594 23.65165710449219 6.299339294433594 28.65262985229492 C 4.110054016113281 33.82865524291992 3 39.32871246337891 3 45 C 3 50.67128753662109 4.110054016113281 56.17134475708008 6.299339294433594 61.34737396240234 C 8.414573669433594 66.34834289550781 11.44334411621094 70.84031677246094 15.301513671875 74.698486328125 C 19.15968322753906 78.55665588378906 23.65165710449219 81.58542633056641 28.65262985229492 83.70066070556641 C 33.82865524291992 85.88994598388672 39.32871246337891 87 45 87 C 50.67128753662109 87 56.17134475708008 85.88994598388672 61.34737396240234 83.70066070556641 C 66.34834289550781 81.58542633056641 70.84031677246094 78.55665588378906 74.698486328125 74.698486328125 C 78.55665588378906 70.84031677246094 81.58542633056641 66.34834289550781 83.70066070556641 61.34737396240234 C 85.88994598388672 56.17134475708008 87 50.67128753662109 87 45 C 87 39.32871246337891 85.88994598388672 33.82865524291992 83.70066070556641 28.65262985229492 C 81.58542633056641 23.65165710449219 78.55665588378906 19.15968322753906 74.698486328125 15.301513671875 C 70.84031677246094 11.44334411621094 66.34834289550781 8.414573669433594 61.34737396240234 6.299339294433594 C 56.17134475708008 4.110054016113281 50.67128753662109 3 45 3 M 45 0 C 69.85281372070312 0 90 20.14718627929688 90 45 C 90 69.85281372070312 69.85281372070312 90 45 90 C 20.14718627929688 90 0 69.85281372070312 0 45 C 0 20.14718627929688 20.14718627929688 0 45 0 Z" stroke="none" fill="#00282e"/>
          </g>
        </g>
      </g>
    </g>
    <g id="_020-growth" data-name="020-growth" transform="translate(227.086 1943.086)">
      <g id="Grupo_1151934" data-name="Grupo 1151934" transform="translate(8.409 1.092)">
        <g id="Grupo_1151933" data-name="Grupo 1151933" transform="translate(0 14.197)">
          <path id="Trazado_987157" data-name="Trazado 987157" d="M77,360h6.552v8.191H77Z" transform="translate(-77 -335.974)" fill="#ff9eb1"/>
          <path id="Trazado_987158" data-name="Trazado 987158" d="M182,340h6.552v10.375H182Z" transform="translate(-170.533 -318.159)" fill="#ff9eb1"/>
          <path id="Trazado_987159" data-name="Trazado 987159" d="M293.552,280,287,284.914v12.013h6.552Z" transform="translate(-264.067 -264.711)" fill="#ff9eb1"/>
          <path id="Trazado_987160" data-name="Trazado 987160" d="M398.552,140,392,142.73v29.486h6.552Z" transform="translate(-357.6 -140)" fill="#ff9eb1"/>
        </g>
        <path id="Trazado_987161" data-name="Trazado 987161" d="M114.676,30l-8.737,9.829h4.368A23.9,23.9,0,0,1,91.021,63.28L77,66.038H92.835a26.21,26.21,0,0,0,26.21-26.21h4.368Z" transform="translate(-77 -27.816)" fill="#9ea6bf"/>
        <path id="Trazado_987162" data-name="Trazado 987162" d="M89.013,10A12.015,12.015,0,0,1,99.163,28.439l1.862,5.586-5.586-1.862A12.013,12.013,0,1,1,89.013,10Z" transform="translate(-77 -10)" fill="#fff2a0"/>
      </g>
      <g id="Grupo_1151935" data-name="Grupo 1151935">
        <path id="Trazado_987163" data-name="Trazado 987163" d="M54.822,50.781H5.133V1.092a1.092,1.092,0,1,0-2.184,0V50.781H1.092a1.092,1.092,0,1,0,0,2.184H2.949v1.857a1.092,1.092,0,1,0,2.184,0V52.965H54.822a1.092,1.092,0,1,0,0-2.184Z"/>
        <path id="Trazado_987164" data-name="Trazado 987164" d="M68.092,66.414h6.552a1.092,1.092,0,0,0,1.092-1.092v-7.1h2.73v7.1a1.092,1.092,0,0,0,1.092,1.092h6.552A1.092,1.092,0,0,0,87.2,65.322V58.03a27.284,27.284,0,0,0,2.73-.466v7.757a1.092,1.092,0,0,0,1.092,1.092h6.552a1.092,1.092,0,0,0,1.092-1.092V53.911A27.371,27.371,0,0,0,101.4,51.9V65.322a1.092,1.092,0,0,0,1.092,1.092h6.552a1.092,1.092,0,0,0,1.092-1.092V38.611a27.337,27.337,0,0,0,1.071-6.6H114.5a1.094,1.094,0,0,0,.818-1.82l-8.734-9.826a1.092,1.092,0,0,0-1.632,0l-8.734,9.826a1.094,1.094,0,0,0,.818,1.82h3.246a22.87,22.87,0,0,1-2.614,9.563A1.092,1.092,0,0,0,99.6,42.6a25.061,25.061,0,0,0,2.894-11.676,1.092,1.092,0,0,0-1.092-1.092H99.464l6.3-7.093,6.3,7.093h-1.936a1.092,1.092,0,0,0-1.092,1.092A25.146,25.146,0,0,1,83.927,56.039H79.3l3.022-.595a25.072,25.072,0,0,0,10.753-4.976,1.092,1.092,0,0,0-1.362-1.707A22.881,22.881,0,0,1,81.9,53.3L67.881,56.06A1.092,1.092,0,0,0,67,57.131v8.191A1.092,1.092,0,0,0,68.092,66.414Zm35.492-16.545a27.372,27.372,0,0,0,4.368-5.952V64.23h-4.368ZM92.118,56.98a26.943,26.943,0,0,0,4.368-1.8V64.23H92.118ZM80.651,58.223h3.276q.548,0,1.092-.021V64.23H80.651Zm-11.467,0h4.368V64.23H69.184Z" transform="translate(-59.683 -17.817)"/>
        <circle id="Elipse_11778" data-name="Elipse 11778" cx="1.092" cy="1.092" r="1.092" transform="translate(35.127 27.264)"/>
        <path id="Trazado_987165" data-name="Trazado 987165" d="M80.1,26.21a13.07,13.07,0,0,0,6.561-1.758l5.107,1.7a1.092,1.092,0,0,0,1.381-1.381l-1.7-5.107A13.106,13.106,0,1,0,80.1,26.21Zm0-24.026a10.923,10.923,0,0,1,9.229,16.762,1.092,1.092,0,0,0-.114.93l1.171,3.514-3.514-1.171a1.092,1.092,0,0,0-.93.114A10.921,10.921,0,1,1,80.1,2.184Z" transform="translate(-59.683)"/>
        <path id="Trazado_987166" data-name="Trazado 987166" d="M148.023,54.711a5.286,5.286,0,0,0,2.649.992v.677a1.092,1.092,0,0,0,2.184,0V55.6a4.441,4.441,0,0,0,3.234-3.539,3.908,3.908,0,0,0-2.657-4.422c-.19-.067-.384-.137-.578-.209V43.9a1.508,1.508,0,0,1,.532.315,1.092,1.092,0,0,0,1.64-1.442,3.79,3.79,0,0,0-2.173-1.123v-.559a1.092,1.092,0,0,0-2.184,0v.679q-.1.027-.2.058a3.679,3.679,0,0,0-2.523,2.884,3.268,3.268,0,0,0,1.08,3.219,8.056,8.056,0,0,0,1.647.963v4.612a3.308,3.308,0,0,1-1.453-.623,1.092,1.092,0,1,0-1.2,1.828Zm4.833-4.956a1.69,1.69,0,0,1,1.081,1.943,2.257,2.257,0,0,1-1.081,1.568Zm-2.483-3.543a1.131,1.131,0,0,1-.281-1.1,1.626,1.626,0,0,1,.58-.979v2.285C150.564,46.355,150.464,46.284,150.373,46.213Z" transform="translate(-131.417 -35.632)"/>
      </g>
    </g>
  </g>
</svg>
